<svg width="979" height="490" viewBox="0 0 979 490" fill="none" xmlns="http://www.w3.org/2000/svg">
<g clip-path="url(#clip0_612_1864)">
<mask id="mask0_612_1864" style="mask-type:luminance" maskUnits="userSpaceOnUse" x="445" y="445" width="89" height="45">
<path d="M533.144 489.547C533.144 477.971 528.546 466.87 520.361 458.685C512.176 450.501 501.075 445.902 489.5 445.902C477.925 445.902 466.823 450.501 458.639 458.685C450.454 466.87 445.855 477.971 445.855 489.547H489.5H533.144Z" fill="white"/>
</mask>
<g mask="url(#mask0_612_1864)">
<path d="M533.144 489.547C533.144 477.971 528.546 466.87 520.361 458.685C512.176 450.501 501.075 445.902 489.5 445.902C477.925 445.902 466.823 450.501 458.639 458.685C450.454 466.87 445.855 477.971 445.855 489.547H489.5H533.144Z" stroke="#EDF0FE" stroke-width="3.42308"/>
</g>
<mask id="mask1_612_1864" style="mask-type:luminance" maskUnits="userSpaceOnUse" x="397" y="397" width="185" height="93">
<path d="M581.067 489.547C581.067 465.262 571.42 441.971 554.248 424.799C537.076 407.627 513.785 397.979 489.5 397.979C465.215 397.979 441.924 407.627 424.752 424.799C407.58 441.971 397.933 465.262 397.933 489.547H489.5H581.067Z" fill="white"/>
</mask>
<g mask="url(#mask1_612_1864)">
<path d="M581.067 489.547C581.067 465.262 571.42 441.971 554.248 424.799C537.076 407.627 513.785 397.979 489.5 397.979C465.215 397.979 441.924 407.627 424.752 424.799C407.58 441.971 397.933 465.262 397.933 489.547H489.5H581.067Z" stroke="#EDF0FE" stroke-width="3.42308"/>
</g>
<mask id="mask2_612_1864" style="mask-type:luminance" maskUnits="userSpaceOnUse" x="353" y="353" width="274" height="137">
<path d="M626.423 489.975C626.423 453.774 612.042 419.056 586.444 393.458C560.847 367.86 526.129 353.479 489.928 353.479C453.727 353.479 419.009 367.86 393.411 393.458C367.813 419.056 353.433 453.774 353.433 489.975H489.928H626.423Z" fill="white"/>
</mask>
<g mask="url(#mask2_612_1864)">
<path d="M626.423 489.975C626.423 453.774 612.042 419.056 586.444 393.458C560.847 367.86 526.129 353.479 489.928 353.479C453.727 353.479 419.009 367.86 393.411 393.458C367.813 419.056 353.433 453.774 353.433 489.975H489.928H626.423Z" stroke="#EDF0FE" stroke-width="3.42308"/>
</g>
<mask id="mask3_612_1864" style="mask-type:luminance" maskUnits="userSpaceOnUse" x="308" y="308" width="364" height="182">
<path d="M671.779 489.975C671.779 441.745 652.62 395.49 618.516 361.386C584.413 327.283 538.158 308.124 489.928 308.124C441.698 308.124 395.444 327.283 361.34 361.386C327.236 395.49 308.077 441.745 308.077 489.974L489.928 489.975H671.779Z" fill="white"/>
</mask>
<g mask="url(#mask3_612_1864)">
<path d="M671.779 489.975C671.779 441.745 652.62 395.49 618.516 361.386C584.413 327.283 538.158 308.124 489.928 308.124C441.698 308.124 395.444 327.283 361.34 361.386C327.236 395.49 308.077 441.745 308.077 489.974L489.928 489.975H671.779Z" stroke="#EDF0FE" stroke-width="3.42308"/>
</g>
<mask id="mask4_612_1864" style="mask-type:luminance" maskUnits="userSpaceOnUse" x="266" y="266" width="448" height="224">
<path d="M713.711 489.975C713.711 430.623 690.134 373.703 648.166 331.736C606.199 289.768 549.278 266.191 489.927 266.191C430.576 266.191 373.656 289.768 331.688 331.736C289.721 373.703 266.144 430.623 266.144 489.975H489.927H713.711Z" fill="white"/>
</mask>
<g mask="url(#mask4_612_1864)">
<path d="M713.711 489.975C713.711 430.623 690.134 373.703 648.166 331.736C606.199 289.768 549.278 266.191 489.927 266.191C430.576 266.191 373.656 289.768 331.688 331.736C289.721 373.703 266.144 430.623 266.144 489.975H489.927H713.711Z" stroke="#EDF0FE" stroke-width="3.42308"/>
</g>
<mask id="mask5_612_1864" style="mask-type:luminance" maskUnits="userSpaceOnUse" x="219" y="219" width="541" height="271">
<path d="M759.923 489.975C759.923 418.368 731.477 349.693 680.843 299.059C630.209 248.425 561.535 219.979 489.928 219.979C418.321 219.979 349.646 248.425 299.012 299.059C248.378 349.693 219.933 418.367 219.933 489.975H489.928H759.923Z" fill="white"/>
</mask>
<g mask="url(#mask5_612_1864)">
<path d="M759.923 489.975C759.923 418.368 731.477 349.693 680.843 299.059C630.209 248.425 561.535 219.979 489.928 219.979C418.321 219.979 349.646 248.425 299.012 299.059C248.378 349.693 219.933 418.367 219.933 489.975H489.928H759.923Z" stroke="#EDF0FE" stroke-width="3.42308"/>
</g>
<mask id="mask6_612_1864" style="mask-type:luminance" maskUnits="userSpaceOnUse" x="170" y="170" width="640" height="320">
<path d="M809.557 489.975C809.557 405.203 775.882 323.904 715.94 263.962C655.998 204.02 574.699 170.345 489.928 170.345C405.157 170.345 323.858 204.02 263.915 263.962C203.973 323.904 170.298 405.203 170.298 489.975H489.928H809.557Z" fill="white"/>
</mask>
<g mask="url(#mask6_612_1864)">
<path d="M809.557 489.975C809.557 405.203 775.882 323.904 715.94 263.962C655.998 204.02 574.699 170.345 489.928 170.345C405.157 170.345 323.858 204.02 263.915 263.962C203.973 323.904 170.298 405.203 170.298 489.975H489.928H809.557Z" stroke="#EDF0FE" stroke-width="3.42308"/>
</g>
<mask id="mask7_612_1864" style="mask-type:luminance" maskUnits="userSpaceOnUse" x="118" y="118" width="743" height="372">
<path d="M860.904 489.546C860.904 391.044 821.774 296.576 752.123 226.924C682.471 157.273 588.003 118.143 489.501 118.143C390.998 118.143 296.53 157.272 226.878 226.924C157.227 296.576 118.097 391.044 118.097 489.546H489.501H860.904Z" fill="white"/>
</mask>
<g mask="url(#mask7_612_1864)">
<path d="M860.904 489.546C860.904 391.044 821.774 296.576 752.123 226.924C682.471 157.273 588.003 118.143 489.501 118.143C390.998 118.143 296.53 157.272 226.878 226.924C157.227 296.576 118.097 391.044 118.097 489.546H489.501H860.904Z" stroke="#EDF0FE" stroke-width="3.42308"/>
</g>
<mask id="mask8_612_1864" style="mask-type:luminance" maskUnits="userSpaceOnUse" x="59" y="59" width="861" height="431">
<path d="M919.097 489.547C919.097 375.611 873.836 266.341 793.271 185.776C712.706 105.212 603.436 59.9507 489.5 59.9507C375.565 59.9507 266.295 105.212 185.73 185.776C105.165 266.341 59.9043 375.611 59.9043 489.547H489.5H919.097Z" fill="white"/>
</mask>
<g mask="url(#mask8_612_1864)">
<path d="M919.097 489.547C919.097 375.611 873.836 266.341 793.271 185.776C712.706 105.212 603.436 59.9507 489.5 59.9507C375.565 59.9507 266.295 105.212 185.73 185.776C105.165 266.341 59.9043 375.611 59.9043 489.547H489.5H919.097Z" stroke="#EDF0FE" stroke-width="3.42308"/>
</g>
<mask id="mask9_612_1864" style="mask-type:luminance" maskUnits="userSpaceOnUse" x="0" y="0" width="979" height="490">
<path d="M979 489.513C979 359.689 927.428 235.183 835.629 143.384C743.83 51.5849 619.324 0.0127051 489.5 0.0126953C359.677 0.0126855 235.17 51.5848 143.371 143.384C51.5722 235.183 1.96028e-05 359.689 0 489.513H489.5H979Z" fill="white"/>
</mask>
<g mask="url(#mask9_612_1864)">
<path d="M979 489.513C979 359.689 927.428 235.183 835.629 143.384C743.83 51.5849 619.324 0.0127051 489.5 0.0126953C359.677 0.0126855 235.17 51.5848 143.371 143.384C51.5722 235.183 1.96028e-05 359.689 0 489.513H489.5H979Z" stroke="#EDF0FE" stroke-width="3.42308"/>
</g>
<g filter="url(#filter0_d_612_1864)">
<path d="M111.5 321.2C111.5 311.679 111.5 306.919 113.353 303.282C114.983 300.083 117.583 297.483 120.782 295.853C124.419 294 129.179 294 138.7 294H153.3C162.821 294 167.581 294 171.218 295.853C174.417 297.483 177.017 300.083 178.647 303.282C180.5 306.919 180.5 311.679 180.5 321.2V335.8C180.5 345.321 180.5 350.081 178.647 353.718C177.017 356.917 174.417 359.517 171.218 361.147C167.581 363 162.821 363 153.3 363H138.7C129.179 363 124.419 363 120.782 361.147C117.583 359.517 114.983 356.917 113.353 353.718C111.5 350.081 111.5 345.321 111.5 335.8V321.2Z" fill="white"/>
<path d="M138.7 294.5H153.3C158.068 294.5 161.615 294.5 164.425 294.729C167.054 294.944 168.999 295.358 170.662 296.138L170.991 296.299C174.096 297.881 176.619 300.404 178.201 303.509C179.086 305.245 179.541 307.271 179.771 310.075C180 312.885 180 316.432 180 321.2V335.8C180 340.568 180 344.115 179.771 346.925C179.556 349.554 179.142 351.499 178.362 353.162L178.201 353.491C176.718 356.402 174.408 358.802 171.566 360.395L170.991 360.701C169.255 361.586 167.229 362.041 164.425 362.271C161.615 362.5 158.068 362.5 153.3 362.5H138.7C133.932 362.5 130.385 362.5 127.575 362.271C124.771 362.041 122.745 361.586 121.009 360.701C118.098 359.218 115.698 356.908 114.105 354.066L113.799 353.491C112.914 351.755 112.459 349.729 112.229 346.925C112 344.115 112 340.568 112 335.8V321.2C112 316.432 112 312.885 112.229 310.075C112.459 307.271 112.914 305.245 113.799 303.509C115.381 300.404 117.904 297.881 121.009 296.299C122.745 295.414 124.771 294.959 127.575 294.729C130.385 294.5 133.932 294.5 138.7 294.5Z" stroke="#E5E5E5"/>
<mask id="mask10_612_1864" style="mask-type:luminance" maskUnits="userSpaceOnUse" x="125" y="308" width="42" height="41">
<path d="M166.5 308H125.5V349H166.5V308Z" fill="white"/>
</mask>
<g mask="url(#mask10_612_1864)">
<path fill-rule="evenodd" clip-rule="evenodd" d="M125.5 328.499C125.5 336.614 130.215 343.626 137.053 346.949L127.275 320.157C126.138 322.705 125.5 325.527 125.5 328.499ZM159.839 327.465C159.839 324.931 158.928 323.177 158.149 321.812C157.11 320.122 156.135 318.692 156.135 317.004C156.135 315.119 157.563 313.365 159.577 313.365C159.668 313.365 159.754 313.376 159.843 313.381C156.196 310.04 151.336 308 146 308C138.837 308 132.537 311.675 128.871 317.239C129.353 317.255 129.807 317.264 130.191 317.264C132.335 317.264 135.654 317.004 135.654 317.004C136.759 316.938 136.89 318.563 135.785 318.692C135.785 318.692 134.674 318.823 133.439 318.888L140.904 341.093L145.391 327.638L142.198 318.888C141.094 318.823 140.047 318.692 140.047 318.692C138.942 318.627 139.072 316.938 140.177 317.004C140.177 317.004 143.563 317.264 145.577 317.264C147.72 317.264 151.04 317.004 151.04 317.004C152.146 316.938 152.275 318.563 151.171 318.692C151.171 318.692 150.059 318.823 148.825 318.888L156.233 340.924L158.28 334.092C159.164 331.255 159.839 329.219 159.839 327.465ZM163.989 318.665C164.077 319.318 164.127 320.018 164.127 320.772C164.127 322.852 163.738 325.19 162.568 328.115L156.306 346.219C162.401 342.666 166.5 336.062 166.5 328.5C166.5 324.935 165.589 321.585 163.989 318.665ZM146.36 330.293L140.208 348.165C142.046 348.706 143.988 349.001 146 349.001C148.387 349.001 150.676 348.588 152.807 347.839C152.753 347.75 152.702 347.658 152.661 347.557L146.36 330.293Z" fill="#00759D"/>
</g>
</g>
<g filter="url(#filter1_d_612_1864)">
<path d="M100 377C100 372.582 103.582 369 108 369H184C188.418 369 192 372.582 192 377V395C192 399.418 188.418 403 184 403H108C103.582 403 100 399.418 100 395V377Z" fill="#F6F8FA"/>
<path d="M111.898 392L109.028 381.57H110.778L113.102 390.6H112.668L115.076 381.57H116.798L119.206 390.6H118.758L121.096 381.57H122.832L119.976 392H118.114L115.692 383.11H116.182L113.746 392H111.898ZM127.069 392.168C126.341 392.168 125.674 391.995 125.067 391.65C124.47 391.305 123.994 390.833 123.639 390.236C123.285 389.639 123.107 388.962 123.107 388.206C123.107 387.441 123.285 386.764 123.639 386.176C123.994 385.579 124.47 385.112 125.067 384.776C125.665 384.431 126.332 384.258 127.069 384.258C127.816 384.258 128.483 384.431 129.071 384.776C129.669 385.112 130.14 385.579 130.485 386.176C130.84 386.764 131.017 387.441 131.017 388.206C131.017 388.971 130.84 389.653 130.485 390.25C130.131 390.847 129.655 391.319 129.057 391.664C128.46 392 127.797 392.168 127.069 392.168ZM127.069 390.698C127.517 390.698 127.914 390.591 128.259 390.376C128.605 390.161 128.875 389.867 129.071 389.494C129.277 389.111 129.379 388.682 129.379 388.206C129.379 387.73 129.277 387.305 129.071 386.932C128.875 386.559 128.605 386.265 128.259 386.05C127.914 385.835 127.517 385.728 127.069 385.728C126.631 385.728 126.234 385.835 125.879 386.05C125.534 386.265 125.259 386.559 125.053 386.932C124.857 387.305 124.759 387.73 124.759 388.206C124.759 388.682 124.857 389.111 125.053 389.494C125.259 389.867 125.534 390.161 125.879 390.376C126.234 390.591 126.631 390.698 127.069 390.698ZM132.562 392V384.426H134.074V385.952L133.934 385.728C134.102 385.233 134.372 384.879 134.746 384.664C135.119 384.44 135.567 384.328 136.09 384.328H136.552V385.77H135.894C135.371 385.77 134.946 385.933 134.62 386.26C134.302 386.577 134.144 387.035 134.144 387.632V392H132.562ZM141.134 392.168C140.406 392.168 139.753 391.995 139.174 391.65C138.605 391.295 138.152 390.819 137.816 390.222C137.489 389.625 137.326 388.953 137.326 388.206C137.326 387.459 137.494 386.787 137.83 386.19C138.166 385.593 138.619 385.121 139.188 384.776C139.757 384.431 140.401 384.258 141.12 384.258C141.727 384.258 142.263 384.379 142.73 384.622C143.197 384.865 143.565 385.201 143.836 385.63L143.598 385.994V381.402H145.166V392H143.668V390.46L143.85 390.754C143.589 391.211 143.215 391.561 142.73 391.804C142.245 392.047 141.713 392.168 141.134 392.168ZM141.288 390.698C141.727 390.698 142.119 390.591 142.464 390.376C142.819 390.161 143.094 389.867 143.29 389.494C143.495 389.111 143.598 388.682 143.598 388.206C143.598 387.73 143.495 387.305 143.29 386.932C143.094 386.559 142.819 386.265 142.464 386.05C142.119 385.835 141.727 385.728 141.288 385.728C140.849 385.728 140.453 385.835 140.098 386.05C139.743 386.265 139.468 386.559 139.272 386.932C139.076 387.305 138.978 387.73 138.978 388.206C138.978 388.682 139.076 389.111 139.272 389.494C139.468 389.867 139.739 390.161 140.084 390.376C140.439 390.591 140.84 390.698 141.288 390.698ZM147.167 392V381.57H150.961C151.661 381.57 152.277 381.701 152.809 381.962C153.35 382.214 153.77 382.587 154.069 383.082C154.368 383.567 154.517 384.151 154.517 384.832C154.517 385.504 154.363 386.083 154.055 386.568C153.756 387.053 153.341 387.427 152.809 387.688C152.277 387.949 151.661 388.08 150.961 388.08H148.819V392H147.167ZM148.819 386.61H151.003C151.376 386.61 151.703 386.535 151.983 386.386C152.263 386.237 152.482 386.031 152.641 385.77C152.8 385.499 152.879 385.182 152.879 384.818C152.879 384.454 152.8 384.141 152.641 383.88C152.482 383.609 152.263 383.404 151.983 383.264C151.703 383.115 151.376 383.04 151.003 383.04H148.819V386.61ZM156.064 392V384.426H157.576V385.952L157.436 385.728C157.604 385.233 157.874 384.879 158.248 384.664C158.621 384.44 159.069 384.328 159.592 384.328H160.054V385.77H159.396C158.873 385.77 158.448 385.933 158.122 386.26C157.804 386.577 157.646 387.035 157.646 387.632V392H156.064ZM164.692 392.168C163.936 392.168 163.264 391.995 162.676 391.65C162.097 391.295 161.645 390.819 161.318 390.222C160.991 389.615 160.828 388.939 160.828 388.192C160.828 387.427 160.991 386.75 161.318 386.162C161.654 385.574 162.102 385.112 162.662 384.776C163.222 384.431 163.857 384.258 164.566 384.258C165.135 384.258 165.644 384.356 166.092 384.552C166.54 384.748 166.918 385.019 167.226 385.364C167.534 385.7 167.767 386.087 167.926 386.526C168.094 386.965 168.178 387.431 168.178 387.926C168.178 388.047 168.173 388.173 168.164 388.304C168.155 388.435 168.136 388.556 168.108 388.668H162.074V387.408H167.212L166.456 387.982C166.549 387.525 166.517 387.119 166.358 386.764C166.209 386.4 165.975 386.115 165.658 385.91C165.35 385.695 164.986 385.588 164.566 385.588C164.146 385.588 163.773 385.695 163.446 385.91C163.119 386.115 162.867 386.414 162.69 386.806C162.513 387.189 162.443 387.655 162.48 388.206C162.433 388.719 162.503 389.167 162.69 389.55C162.886 389.933 163.157 390.231 163.502 390.446C163.857 390.661 164.258 390.768 164.706 390.768C165.163 390.768 165.551 390.665 165.868 390.46C166.195 390.255 166.451 389.989 166.638 389.662L167.926 390.292C167.777 390.647 167.543 390.969 167.226 391.258C166.918 391.538 166.545 391.762 166.106 391.93C165.677 392.089 165.205 392.168 164.692 392.168ZM172.522 392.168C171.747 392.168 171.066 391.977 170.478 391.594C169.899 391.211 169.493 390.698 169.26 390.054L170.478 389.48C170.683 389.909 170.963 390.25 171.318 390.502C171.682 390.754 172.083 390.88 172.522 390.88C172.895 390.88 173.199 390.796 173.432 390.628C173.665 390.46 173.782 390.231 173.782 389.942C173.782 389.755 173.731 389.606 173.628 389.494C173.525 389.373 173.395 389.275 173.236 389.2C173.087 389.125 172.933 389.069 172.774 389.032L171.584 388.696C170.931 388.509 170.441 388.229 170.114 387.856C169.797 387.473 169.638 387.03 169.638 386.526C169.638 386.069 169.755 385.672 169.988 385.336C170.221 384.991 170.543 384.725 170.954 384.538C171.365 384.351 171.827 384.258 172.34 384.258C173.031 384.258 173.647 384.431 174.188 384.776C174.729 385.112 175.112 385.583 175.336 386.19L174.118 386.764C173.969 386.4 173.731 386.111 173.404 385.896C173.087 385.681 172.727 385.574 172.326 385.574C171.981 385.574 171.705 385.658 171.5 385.826C171.295 385.985 171.192 386.195 171.192 386.456C171.192 386.633 171.239 386.783 171.332 386.904C171.425 387.016 171.547 387.109 171.696 387.184C171.845 387.249 171.999 387.305 172.158 387.352L173.39 387.716C174.015 387.893 174.496 388.173 174.832 388.556C175.168 388.929 175.336 389.377 175.336 389.9C175.336 390.348 175.215 390.745 174.972 391.09C174.739 391.426 174.412 391.692 173.992 391.888C173.572 392.075 173.082 392.168 172.522 392.168ZM179.686 392.168C178.911 392.168 178.23 391.977 177.642 391.594C177.063 391.211 176.657 390.698 176.424 390.054L177.642 389.48C177.847 389.909 178.127 390.25 178.482 390.502C178.846 390.754 179.247 390.88 179.686 390.88C180.059 390.88 180.363 390.796 180.596 390.628C180.829 390.46 180.946 390.231 180.946 389.942C180.946 389.755 180.895 389.606 180.792 389.494C180.689 389.373 180.559 389.275 180.4 389.2C180.251 389.125 180.097 389.069 179.938 389.032L178.748 388.696C178.095 388.509 177.605 388.229 177.278 387.856C176.961 387.473 176.802 387.03 176.802 386.526C176.802 386.069 176.919 385.672 177.152 385.336C177.385 384.991 177.707 384.725 178.118 384.538C178.529 384.351 178.991 384.258 179.504 384.258C180.195 384.258 180.811 384.431 181.352 384.776C181.893 385.112 182.276 385.583 182.5 386.19L181.282 386.764C181.133 386.4 180.895 386.111 180.568 385.896C180.251 385.681 179.891 385.574 179.49 385.574C179.145 385.574 178.869 385.658 178.664 385.826C178.459 385.985 178.356 386.195 178.356 386.456C178.356 386.633 178.403 386.783 178.496 386.904C178.589 387.016 178.711 387.109 178.86 387.184C179.009 387.249 179.163 387.305 179.322 387.352L180.554 387.716C181.179 387.893 181.66 388.173 181.996 388.556C182.332 388.929 182.5 389.377 182.5 389.9C182.5 390.348 182.379 390.745 182.136 391.09C181.903 391.426 181.576 391.692 181.156 391.888C180.736 392.075 180.246 392.168 179.686 392.168Z" fill="#202021"/>
</g>
<g filter="url(#filter2_d_612_1864)">
<path d="M463.5 64.2C463.5 54.6791 463.5 49.9187 465.353 46.2822C466.983 43.0834 469.583 40.4827 472.782 38.8529C476.419 37 481.179 37 490.7 37H505.3C514.821 37 519.581 37 523.218 38.8529C526.417 40.4827 529.017 43.0834 530.647 46.2822C532.5 49.9187 532.5 54.6791 532.5 64.2V78.8C532.5 88.3209 532.5 93.0813 530.647 96.7178C529.017 99.9166 526.417 102.517 523.218 104.147C519.581 106 514.821 106 505.3 106H490.7C481.179 106 476.419 106 472.782 104.147C469.583 102.517 466.983 99.9166 465.353 96.7178C463.5 93.0813 463.5 88.3209 463.5 78.8V64.2Z" fill="white"/>
<path d="M490.7 37.5H505.3C510.068 37.5 513.615 37.4999 516.425 37.7295C519.054 37.9443 520.999 38.358 522.662 39.1377L522.991 39.2988C526.096 40.8807 528.619 43.4045 530.201 46.5088C531.086 48.2448 531.541 50.2713 531.771 53.0752C532 55.8849 532 59.4315 532 64.2002V78.7998C532 83.5685 532 87.1151 531.771 89.9248C531.556 92.5536 531.142 94.4987 530.362 96.1621L530.201 96.4912C528.718 99.4016 526.408 101.802 523.566 103.395L522.991 103.701C521.255 104.586 519.229 105.041 516.425 105.271C513.615 105.5 510.068 105.5 505.3 105.5H490.7C485.932 105.5 482.385 105.5 479.575 105.271C476.771 105.041 474.745 104.586 473.009 103.701C470.098 102.218 467.698 99.9075 466.105 97.0664L465.799 96.4912C464.914 94.7552 464.459 92.7287 464.229 89.9248C464 87.1151 464 83.5685 464 78.7998V64.2002C464 59.4315 464 55.8849 464.229 53.0752C464.459 50.2713 464.914 48.2448 465.799 46.5088C467.381 43.4045 469.904 40.8807 473.009 39.2988C474.745 38.4143 476.771 37.9586 479.575 37.7295C482.385 37.4999 485.932 37.5 490.7 37.5Z" stroke="#E5E5E5"/>
<path fill-rule="evenodd" clip-rule="evenodd" d="M497.989 51L480.917 61.512V81.4867L485.351 84.1412V64.1642L497.993 56.3525L510.647 64.153L510.699 64.1835L510.693 84.1115L515.084 81.4867V61.512L497.989 51ZM500.249 86.6524L497.989 88.056L495.728 86.6448V63.3158L489.872 66.9799V86.9524L497.989 92L506.176 86.9165V66.9674L500.249 63.2978V86.6524Z" fill="#F37B1F"/>
</g>
<g filter="url(#filter3_d_612_1864)">
<path d="M446 120C446 115.582 449.582 112 454 112H542C546.418 112 550 115.582 550 120V138C550 142.418 546.418 146 542 146H454C449.582 146 446 142.418 446 138V120Z" fill="#F6F8FA"/>
<path d="M468.59 135V124.57H470.13L474.05 130.002H473.28L477.13 124.57H478.67V135H477.032V126.516L477.648 126.684L473.714 132.06H473.546L469.696 126.684L470.242 126.516V135H468.59ZM482.94 135.168C482.427 135.168 481.974 135.079 481.582 134.902C481.199 134.715 480.901 134.463 480.686 134.146C480.471 133.819 480.364 133.437 480.364 132.998C480.364 132.587 480.453 132.219 480.63 131.892C480.817 131.565 481.101 131.29 481.484 131.066C481.867 130.842 482.347 130.683 482.926 130.59L485.558 130.156V131.402L483.234 131.808C482.814 131.883 482.506 132.018 482.31 132.214C482.114 132.401 482.016 132.643 482.016 132.942C482.016 133.231 482.123 133.469 482.338 133.656C482.562 133.833 482.847 133.922 483.192 133.922C483.621 133.922 483.995 133.829 484.312 133.642C484.639 133.455 484.891 133.208 485.068 132.9C485.245 132.583 485.334 132.233 485.334 131.85V129.904C485.334 129.531 485.194 129.227 484.914 128.994C484.643 128.751 484.279 128.63 483.822 128.63C483.402 128.63 483.033 128.742 482.716 128.966C482.408 129.181 482.179 129.461 482.03 129.806L480.714 129.148C480.854 128.775 481.083 128.448 481.4 128.168C481.717 127.879 482.086 127.655 482.506 127.496C482.935 127.337 483.388 127.258 483.864 127.258C484.461 127.258 484.989 127.37 485.446 127.594C485.913 127.818 486.272 128.131 486.524 128.532C486.785 128.924 486.916 129.381 486.916 129.904V135H485.404V133.628L485.726 133.67C485.549 133.978 485.32 134.244 485.04 134.468C484.769 134.692 484.457 134.865 484.102 134.986C483.757 135.107 483.369 135.168 482.94 135.168ZM492.42 138.08C491.869 138.08 491.36 137.991 490.894 137.814C490.427 137.637 490.026 137.389 489.69 137.072C489.354 136.764 489.102 136.4 488.934 135.98L490.39 135.378C490.52 135.733 490.758 136.027 491.104 136.26C491.458 136.493 491.892 136.61 492.406 136.61C492.807 136.61 493.166 136.531 493.484 136.372C493.801 136.223 494.053 135.999 494.24 135.7C494.426 135.411 494.52 135.061 494.52 134.65V132.942L494.8 133.264C494.538 133.749 494.174 134.118 493.708 134.37C493.25 134.622 492.732 134.748 492.154 134.748C491.454 134.748 490.824 134.585 490.264 134.258C489.704 133.931 489.26 133.483 488.934 132.914C488.616 132.345 488.458 131.705 488.458 130.996C488.458 130.277 488.616 129.638 488.934 129.078C489.26 128.518 489.699 128.075 490.25 127.748C490.8 127.421 491.43 127.258 492.14 127.258C492.718 127.258 493.232 127.384 493.68 127.636C494.137 127.879 494.51 128.233 494.8 128.7L494.59 129.092V127.426H496.088V134.65C496.088 135.303 495.929 135.887 495.612 136.4C495.304 136.923 494.874 137.333 494.324 137.632C493.773 137.931 493.138 138.08 492.42 138.08ZM492.336 133.278C492.756 133.278 493.129 133.18 493.456 132.984C493.782 132.779 494.039 132.508 494.226 132.172C494.422 131.827 494.52 131.439 494.52 131.01C494.52 130.581 494.422 130.193 494.226 129.848C494.03 129.503 493.768 129.232 493.442 129.036C493.115 128.831 492.746 128.728 492.336 128.728C491.906 128.728 491.524 128.831 491.188 129.036C490.852 129.232 490.586 129.503 490.39 129.848C490.203 130.184 490.11 130.571 490.11 131.01C490.11 131.43 490.203 131.813 490.39 132.158C490.586 132.503 490.852 132.779 491.188 132.984C491.524 133.18 491.906 133.278 492.336 133.278ZM501.496 135.168C500.74 135.168 500.068 134.995 499.48 134.65C498.901 134.295 498.448 133.819 498.122 133.222C497.795 132.615 497.632 131.939 497.632 131.192C497.632 130.427 497.795 129.75 498.122 129.162C498.458 128.574 498.906 128.112 499.466 127.776C500.026 127.431 500.66 127.258 501.37 127.258C501.939 127.258 502.448 127.356 502.896 127.552C503.344 127.748 503.722 128.019 504.03 128.364C504.338 128.7 504.571 129.087 504.73 129.526C504.898 129.965 504.982 130.431 504.982 130.926C504.982 131.047 504.977 131.173 504.968 131.304C504.958 131.435 504.94 131.556 504.912 131.668H498.878V130.408H504.016L503.26 130.982C503.353 130.525 503.32 130.119 503.162 129.764C503.012 129.4 502.779 129.115 502.462 128.91C502.154 128.695 501.79 128.588 501.37 128.588C500.95 128.588 500.576 128.695 500.25 128.91C499.923 129.115 499.671 129.414 499.494 129.806C499.316 130.189 499.246 130.655 499.284 131.206C499.237 131.719 499.307 132.167 499.494 132.55C499.69 132.933 499.96 133.231 500.306 133.446C500.66 133.661 501.062 133.768 501.51 133.768C501.967 133.768 502.354 133.665 502.672 133.46C502.998 133.255 503.255 132.989 503.442 132.662L504.73 133.292C504.58 133.647 504.347 133.969 504.03 134.258C503.722 134.538 503.348 134.762 502.91 134.93C502.48 135.089 502.009 135.168 501.496 135.168ZM506.526 135V127.426H508.038V128.91L507.856 128.714C508.042 128.238 508.341 127.879 508.752 127.636C509.162 127.384 509.638 127.258 510.18 127.258C510.74 127.258 511.234 127.379 511.664 127.622C512.093 127.865 512.429 128.201 512.672 128.63C512.914 129.059 513.036 129.554 513.036 130.114V135H511.468V130.534C511.468 130.151 511.398 129.829 511.258 129.568C511.118 129.297 510.917 129.092 510.656 128.952C510.404 128.803 510.114 128.728 509.788 128.728C509.461 128.728 509.167 128.803 508.906 128.952C508.654 129.092 508.458 129.297 508.318 129.568C508.178 129.839 508.108 130.161 508.108 130.534V135H506.526ZM518.005 135.084C517.211 135.084 516.595 134.86 516.157 134.412C515.718 133.964 515.499 133.334 515.499 132.522V128.854H514.169V127.426H514.379C514.733 127.426 515.009 127.323 515.205 127.118C515.401 126.913 515.499 126.633 515.499 126.278V125.69H517.081V127.426H518.803V128.854H517.081V132.452C517.081 132.713 517.123 132.937 517.207 133.124C517.291 133.301 517.426 133.441 517.613 133.544C517.799 133.637 518.042 133.684 518.341 133.684C518.415 133.684 518.499 133.679 518.593 133.67C518.686 133.661 518.775 133.651 518.859 133.642V135C518.728 135.019 518.583 135.037 518.425 135.056C518.266 135.075 518.126 135.084 518.005 135.084ZM523.92 135.168C523.192 135.168 522.524 134.995 521.918 134.65C521.32 134.305 520.844 133.833 520.49 133.236C520.135 132.639 519.958 131.962 519.958 131.206C519.958 130.441 520.135 129.764 520.49 129.176C520.844 128.579 521.32 128.112 521.918 127.776C522.515 127.431 523.182 127.258 523.92 127.258C524.666 127.258 525.334 127.431 525.922 127.776C526.519 128.112 526.99 128.579 527.336 129.176C527.69 129.764 527.868 130.441 527.868 131.206C527.868 131.971 527.69 132.653 527.336 133.25C526.981 133.847 526.505 134.319 525.908 134.664C525.31 135 524.648 135.168 523.92 135.168ZM523.92 133.698C524.368 133.698 524.764 133.591 525.11 133.376C525.455 133.161 525.726 132.867 525.922 132.494C526.127 132.111 526.23 131.682 526.23 131.206C526.23 130.73 526.127 130.305 525.922 129.932C525.726 129.559 525.455 129.265 525.11 129.05C524.764 128.835 524.368 128.728 523.92 128.728C523.481 128.728 523.084 128.835 522.73 129.05C522.384 129.265 522.109 129.559 521.904 129.932C521.708 130.305 521.61 130.73 521.61 131.206C521.61 131.682 521.708 132.111 521.904 132.494C522.109 132.867 522.384 133.161 522.73 133.376C523.084 133.591 523.481 133.698 523.92 133.698Z" fill="#202021"/>
</g>
<g filter="url(#filter4_d_612_1864)">
<path d="M805.5 321.2C805.5 311.679 805.5 306.919 807.353 303.282C808.983 300.083 811.583 297.483 814.782 295.853C818.419 294 823.179 294 832.7 294H847.3C856.821 294 861.581 294 865.218 295.853C868.417 297.483 871.017 300.083 872.647 303.282C874.5 306.919 874.5 311.679 874.5 321.2V335.8C874.5 345.321 874.5 350.081 872.647 353.718C871.017 356.917 868.417 359.517 865.218 361.147C861.581 363 856.821 363 847.3 363H832.7C823.179 363 818.419 363 814.782 361.147C811.583 359.517 808.983 356.917 807.353 353.718C805.5 350.081 805.5 345.321 805.5 335.8V321.2Z" fill="white"/>
<path d="M832.7 294.5H847.3C852.068 294.5 855.615 294.5 858.425 294.729C861.054 294.944 862.999 295.358 864.662 296.138L864.991 296.299C868.096 297.881 870.619 300.404 872.201 303.509C873.086 305.245 873.541 307.271 873.771 310.075C874 312.885 874 316.432 874 321.2V335.8C874 340.568 874 344.115 873.771 346.925C873.556 349.554 873.142 351.499 872.362 353.162L872.201 353.491C870.718 356.402 868.408 358.802 865.566 360.395L864.991 360.701C863.255 361.586 861.229 362.041 858.425 362.271C855.615 362.5 852.068 362.5 847.3 362.5H832.7C827.932 362.5 824.385 362.5 821.575 362.271C818.771 362.041 816.745 361.586 815.009 360.701C812.098 359.218 809.698 356.908 808.105 354.066L807.799 353.491C806.914 351.755 806.459 349.729 806.229 346.925C806 344.115 806 340.568 806 335.8V321.2C806 316.432 806 312.885 806.229 310.075C806.459 307.271 806.914 305.245 807.799 303.509C809.381 300.404 811.904 297.881 815.009 296.299C816.745 295.414 818.771 294.959 821.575 294.729C824.385 294.5 827.932 294.5 832.7 294.5Z" stroke="#E5E5E5"/>
<path fill-rule="evenodd" clip-rule="evenodd" d="M848.411 313.975C849.083 314.645 849.844 315.404 849.844 315.404C849.844 315.404 852.98 315.638 853.128 315.65C853.277 315.663 853.456 315.777 853.484 315.983C853.512 316.19 857.938 346.259 857.938 346.259L847.079 348.62L848.411 313.975ZM846.745 312.836C846.662 312.846 846.59 312.863 846.54 312.878C846.513 312.885 846.064 313.025 845.321 313.256C844.593 311.152 843.31 309.218 841.052 309.218C840.99 309.218 840.924 309.221 840.86 309.225C840.217 308.372 839.422 308 838.735 308C833.473 308 830.96 314.611 830.172 317.969C828.127 318.606 826.675 319.058 826.49 319.117C825.348 319.477 825.311 319.513 825.162 320.593C825.048 321.412 822.062 344.619 822.062 344.619L845.331 349L845.355 348.995L846.745 312.836ZM840.688 314.468C840.688 314.548 840.688 314.623 840.688 314.697C839.406 315.096 838.014 315.529 836.62 315.963C837.402 312.926 838.87 311.459 840.154 310.906C840.476 311.721 840.688 312.891 840.688 314.468ZM838.589 309.418C838.818 309.418 839.047 309.497 839.266 309.648C837.579 310.445 835.772 312.454 835.008 316.464C833.892 316.811 832.802 317.151 831.794 317.465C832.688 314.405 834.81 309.418 838.589 309.418ZM839.496 327.298C839.496 327.298 838.135 326.568 836.466 326.568C834.018 326.568 833.894 328.112 833.894 328.5C833.894 330.623 839.399 331.437 839.399 336.408C839.399 340.318 836.931 342.837 833.602 342.837C829.607 342.837 827.565 340.339 827.565 340.339L828.635 336.788C828.635 336.788 830.736 338.6 832.508 338.6C833.664 338.6 834.135 337.684 834.135 337.015C834.135 334.246 829.618 334.122 829.618 329.572C829.618 325.744 832.352 322.039 837.873 322.039C839.999 322.039 841.052 322.651 841.052 322.651L839.496 327.298ZM842.066 314.268C842.066 314.128 842.068 313.991 842.068 313.841C842.068 312.534 841.886 311.481 841.597 310.647C842.761 310.793 843.536 312.124 844.034 313.655C843.451 313.837 842.786 314.044 842.066 314.268Z" fill="#81BF37"/>
</g>
<g filter="url(#filter5_d_612_1864)">
<path d="M878 369H802C797.582 369 794 372.582 794 377V395C794 399.418 797.582 403 802 403H878C882.418 403 886 399.418 886 395V377C886 372.582 882.418 369 878 369Z" fill="#F6F8FA"/>
<path d="M818.318 392.168C817.665 392.168 817.058 392.047 816.498 391.804C815.938 391.552 815.462 391.211 815.07 390.782C814.678 390.353 814.389 389.858 814.202 389.298L815.602 388.71C815.854 389.354 816.223 389.849 816.708 390.194C817.193 390.539 817.753 390.712 818.388 390.712C818.761 390.712 819.088 390.656 819.368 390.544C819.648 390.423 819.863 390.255 820.012 390.04C820.171 389.825 820.25 389.578 820.25 389.298C820.25 388.915 820.143 388.612 819.928 388.388C819.713 388.164 819.396 387.987 818.976 387.856L817.016 387.24C816.232 386.997 815.635 386.629 815.224 386.134C814.813 385.63 814.608 385.042 814.608 384.37C814.608 383.782 814.753 383.269 815.042 382.83C815.331 382.382 815.728 382.032 816.232 381.78C816.745 381.528 817.329 381.402 817.982 381.402C818.607 381.402 819.177 381.514 819.69 381.738C820.203 381.953 820.642 382.251 821.006 382.634C821.379 383.017 821.65 383.46 821.818 383.964L820.446 384.566C820.241 384.015 819.919 383.591 819.48 383.292C819.051 382.993 818.551 382.844 817.982 382.844C817.637 382.844 817.333 382.905 817.072 383.026C816.811 383.138 816.605 383.306 816.456 383.53C816.316 383.745 816.246 383.997 816.246 384.286C816.246 384.622 816.353 384.921 816.568 385.182C816.783 385.443 817.109 385.639 817.548 385.77L819.368 386.344C820.199 386.596 820.824 386.96 821.244 387.436C821.664 387.903 821.874 388.486 821.874 389.186C821.874 389.765 821.72 390.278 821.412 390.726C821.113 391.174 820.698 391.529 820.166 391.79C819.634 392.042 819.018 392.168 818.318 392.168ZM823.574 392V381.402H825.156V385.91L824.904 385.714C825.091 385.238 825.39 384.879 825.8 384.636C826.211 384.384 826.687 384.258 827.228 384.258C827.788 384.258 828.283 384.379 828.712 384.622C829.142 384.865 829.478 385.201 829.72 385.63C829.963 386.059 830.084 386.549 830.084 387.1V392H828.516V387.534C828.516 387.151 828.442 386.829 828.292 386.568C828.152 386.297 827.956 386.092 827.704 385.952C827.452 385.803 827.163 385.728 826.836 385.728C826.519 385.728 826.23 385.803 825.968 385.952C825.716 386.092 825.516 386.297 825.366 386.568C825.226 386.839 825.156 387.161 825.156 387.534V392H823.574ZM835.432 392.168C834.704 392.168 834.036 391.995 833.43 391.65C832.832 391.305 832.356 390.833 832.002 390.236C831.647 389.639 831.47 388.962 831.47 388.206C831.47 387.441 831.647 386.764 832.002 386.176C832.356 385.579 832.832 385.112 833.43 384.776C834.027 384.431 834.694 384.258 835.432 384.258C836.178 384.258 836.846 384.431 837.434 384.776C838.031 385.112 838.502 385.579 838.848 386.176C839.202 386.764 839.38 387.441 839.38 388.206C839.38 388.971 839.202 389.653 838.848 390.25C838.493 390.847 838.017 391.319 837.42 391.664C836.822 392 836.16 392.168 835.432 392.168ZM835.432 390.698C835.88 390.698 836.276 390.591 836.622 390.376C836.967 390.161 837.238 389.867 837.434 389.494C837.639 389.111 837.742 388.682 837.742 388.206C837.742 387.73 837.639 387.305 837.434 386.932C837.238 386.559 836.967 386.265 836.622 386.05C836.276 385.835 835.88 385.728 835.432 385.728C834.993 385.728 834.596 385.835 834.242 386.05C833.896 386.265 833.621 386.559 833.416 386.932C833.22 387.305 833.122 387.73 833.122 388.206C833.122 388.682 833.22 389.111 833.416 389.494C833.621 389.867 833.896 390.161 834.242 390.376C834.596 390.591 834.993 390.698 835.432 390.698ZM840.924 394.8V384.426H842.436V385.994L842.254 385.63C842.534 385.201 842.907 384.865 843.374 384.622C843.841 384.379 844.373 384.258 844.97 384.258C845.689 384.258 846.333 384.431 846.902 384.776C847.481 385.121 847.933 385.593 848.26 386.19C848.596 386.787 848.764 387.459 848.764 388.206C848.764 388.953 848.596 389.625 848.26 390.222C847.933 390.819 847.485 391.295 846.916 391.65C846.347 391.995 845.698 392.168 844.97 392.168C844.382 392.168 843.845 392.047 843.36 391.804C842.884 391.561 842.515 391.211 842.254 390.754L842.506 390.46V394.8H840.924ZM844.816 390.698C845.264 390.698 845.661 390.591 846.006 390.376C846.351 390.161 846.622 389.867 846.818 389.494C847.023 389.111 847.126 388.682 847.126 388.206C847.126 387.73 847.023 387.305 846.818 386.932C846.622 386.559 846.351 386.265 846.006 386.05C845.661 385.835 845.264 385.728 844.816 385.728C844.377 385.728 843.981 385.835 843.626 386.05C843.281 386.265 843.005 386.559 842.8 386.932C842.604 387.305 842.506 387.73 842.506 388.206C842.506 388.682 842.604 389.111 842.8 389.494C843.005 389.867 843.281 390.161 843.626 390.376C843.981 390.591 844.377 390.698 844.816 390.698ZM850.303 392V384.426H851.885V392H850.303ZM850.303 383.39V381.57H851.885V383.39H850.303ZM854.589 392V385.854H853.189V384.426H854.589V384.034C854.589 383.465 854.705 382.989 854.939 382.606C855.172 382.214 855.494 381.915 855.905 381.71C856.325 381.505 856.805 381.402 857.347 381.402C857.449 381.402 857.566 381.411 857.697 381.43C857.827 381.439 857.935 381.453 858.019 381.472V382.844C857.944 382.825 857.86 382.816 857.767 382.816C857.673 382.807 857.599 382.802 857.543 382.802C857.123 382.802 856.787 382.9 856.535 383.096C856.283 383.283 856.157 383.595 856.157 384.034V384.426H857.893V385.854H856.157V392H854.589ZM860.039 395.08C859.853 395.08 859.666 395.061 859.479 395.024C859.302 394.996 859.139 394.949 858.989 394.884V393.526C859.101 393.554 859.237 393.577 859.395 393.596C859.554 393.624 859.708 393.638 859.857 393.638C860.296 393.638 860.618 393.54 860.823 393.344C861.038 393.157 861.229 392.868 861.397 392.476L861.901 391.328L861.873 392.658L858.597 384.426H860.291L862.713 390.74H862.139L864.547 384.426H866.255L862.909 392.826C862.732 393.274 862.508 393.666 862.237 394.002C861.976 394.347 861.663 394.613 861.299 394.8C860.945 394.987 860.525 395.08 860.039 395.08Z" fill="#202021"/>
</g>
<g filter="url(#filter6_d_612_1864)">
<path d="M463.5 321.2C463.5 311.679 463.5 306.919 465.353 303.282C466.983 300.083 469.583 297.483 472.782 295.853C476.419 294 481.179 294 490.7 294H505.3C514.821 294 519.581 294 523.218 295.853C526.417 297.483 529.017 300.083 530.647 303.282C532.5 306.919 532.5 311.679 532.5 321.2V335.8C532.5 345.321 532.5 350.081 530.647 353.718C529.017 356.917 526.417 359.517 523.218 361.147C519.581 363 514.821 363 505.3 363H490.7C481.179 363 476.419 363 472.782 361.147C469.583 359.517 466.983 356.917 465.353 353.718C463.5 350.081 463.5 345.321 463.5 335.8V321.2Z" fill="white"/>
<path d="M490.7 294.5H505.3C510.068 294.5 513.615 294.5 516.425 294.729C519.054 294.944 520.999 295.358 522.662 296.138L522.991 296.299C526.096 297.881 528.619 300.404 530.201 303.509C531.086 305.245 531.541 307.271 531.771 310.075C532 312.885 532 316.432 532 321.2V335.8C532 340.568 532 344.115 531.771 346.925C531.556 349.554 531.142 351.499 530.362 353.162L530.201 353.491C528.718 356.402 526.408 358.802 523.566 360.395L522.991 360.701C521.255 361.586 519.229 362.041 516.425 362.271C513.615 362.5 510.068 362.5 505.3 362.5H490.7C485.932 362.5 482.385 362.5 479.575 362.271C476.771 362.041 474.745 361.586 473.009 360.701C470.098 359.218 467.698 356.908 466.105 354.066L465.799 353.491C464.914 351.755 464.459 349.729 464.229 346.925C464 344.115 464 340.568 464 335.8V321.2C464 316.432 464 312.885 464.229 310.075C464.459 307.271 464.914 305.245 465.799 303.509C467.381 300.404 469.904 297.881 473.009 296.299C474.745 295.414 476.771 294.959 479.575 294.729C482.385 294.5 485.932 294.5 490.7 294.5Z" stroke="#E5E5E5"/>
<path d="M498 346.438C507.907 346.438 515.938 338.407 515.938 328.5C515.938 318.593 507.907 310.562 498 310.562C488.093 310.562 480.062 318.593 480.062 328.5C480.062 338.407 488.093 346.438 498 346.438Z" fill="#0678BE"/>
<path d="M498 314.406C490.237 314.406 483.906 320.737 483.906 328.5C483.906 336.263 490.237 342.594 498 342.594C505.763 342.594 512.094 336.263 512.094 328.5C512.094 320.836 505.664 314.406 498 314.406ZM498 337.469C493.75 337.469 490.312 334.032 490.312 329.781C490.312 326.18 492.698 323.914 494.824 321.789C496.233 320.379 497.598 318.489 498 316.969C498.403 318.49 499.745 320.379 501.176 321.789C503.302 323.914 505.688 326.18 505.688 329.781C505.688 334.032 502.25 337.469 498 337.469Z" fill="white"/>
</g>
<g filter="url(#filter7_d_612_1864)">
<path d="M446 377C446 372.582 449.582 369 454 369H542C546.418 369 550 372.582 550 377V395C550 399.418 546.418 403 542 403H454C449.582 403 446 399.418 446 395V377Z" fill="#F6F8FA"/>
<path d="M476.8 392V381.57H480.216C481.298 381.57 482.236 381.789 483.03 382.228C483.832 382.657 484.453 383.264 484.892 384.048C485.33 384.832 485.55 385.742 485.55 386.778C485.55 387.805 485.33 388.715 484.892 389.508C484.453 390.292 483.832 390.903 483.03 391.342C482.236 391.781 481.298 392 480.216 392H476.8ZM478.452 390.53H480.244C480.981 390.53 481.62 390.376 482.162 390.068C482.712 389.76 483.137 389.326 483.436 388.766C483.734 388.206 483.884 387.543 483.884 386.778C483.884 386.013 483.73 385.355 483.422 384.804C483.123 384.244 482.703 383.81 482.162 383.502C481.62 383.194 480.981 383.04 480.244 383.04H478.452V390.53ZM487.023 392V384.426H488.535V385.952L488.395 385.728C488.563 385.233 488.833 384.879 489.207 384.664C489.58 384.44 490.028 384.328 490.551 384.328H491.013V385.77H490.355C489.832 385.77 489.407 385.933 489.081 386.26C488.763 386.577 488.605 387.035 488.605 387.632V392H487.023ZM494.797 392.168C494.228 392.168 493.728 392.042 493.299 391.79C492.87 391.529 492.534 391.169 492.291 390.712C492.058 390.245 491.941 389.709 491.941 389.102V384.426H493.523V388.962C493.523 389.307 493.593 389.611 493.733 389.872C493.873 390.133 494.069 390.339 494.321 390.488C494.573 390.628 494.862 390.698 495.189 390.698C495.525 390.698 495.819 390.623 496.071 390.474C496.323 390.325 496.519 390.115 496.659 389.844C496.808 389.573 496.883 389.256 496.883 388.892V384.426H498.451V392H496.953V390.516L497.121 390.712C496.944 391.179 496.65 391.538 496.239 391.79C495.828 392.042 495.348 392.168 494.797 392.168ZM500.298 394.8V384.426H501.81V385.994L501.628 385.63C501.908 385.201 502.281 384.865 502.748 384.622C503.215 384.379 503.747 384.258 504.344 384.258C505.063 384.258 505.707 384.431 506.276 384.776C506.855 385.121 507.307 385.593 507.634 386.19C507.97 386.787 508.138 387.459 508.138 388.206C508.138 388.953 507.97 389.625 507.634 390.222C507.307 390.819 506.859 391.295 506.29 391.65C505.721 391.995 505.072 392.168 504.344 392.168C503.756 392.168 503.219 392.047 502.734 391.804C502.258 391.561 501.889 391.211 501.628 390.754L501.88 390.46V394.8H500.298ZM504.19 390.698C504.638 390.698 505.035 390.591 505.38 390.376C505.725 390.161 505.996 389.867 506.192 389.494C506.397 389.111 506.5 388.682 506.5 388.206C506.5 387.73 506.397 387.305 506.192 386.932C505.996 386.559 505.725 386.265 505.38 386.05C505.035 385.835 504.638 385.728 504.19 385.728C503.751 385.728 503.355 385.835 503 386.05C502.655 386.265 502.379 386.559 502.174 386.932C501.978 387.305 501.88 387.73 501.88 388.206C501.88 388.682 501.978 389.111 502.174 389.494C502.379 389.867 502.655 390.161 503 390.376C503.355 390.591 503.751 390.698 504.19 390.698ZM511.945 392.168C511.432 392.168 510.979 392.079 510.587 391.902C510.204 391.715 509.906 391.463 509.691 391.146C509.476 390.819 509.369 390.437 509.369 389.998C509.369 389.587 509.458 389.219 509.635 388.892C509.822 388.565 510.106 388.29 510.489 388.066C510.872 387.842 511.352 387.683 511.931 387.59L514.563 387.156V388.402L512.239 388.808C511.819 388.883 511.511 389.018 511.315 389.214C511.119 389.401 511.021 389.643 511.021 389.942C511.021 390.231 511.128 390.469 511.343 390.656C511.567 390.833 511.852 390.922 512.197 390.922C512.626 390.922 513 390.829 513.317 390.642C513.644 390.455 513.896 390.208 514.073 389.9C514.25 389.583 514.339 389.233 514.339 388.85V386.904C514.339 386.531 514.199 386.227 513.919 385.994C513.648 385.751 513.284 385.63 512.827 385.63C512.407 385.63 512.038 385.742 511.721 385.966C511.413 386.181 511.184 386.461 511.035 386.806L509.719 386.148C509.859 385.775 510.088 385.448 510.405 385.168C510.722 384.879 511.091 384.655 511.511 384.496C511.94 384.337 512.393 384.258 512.869 384.258C513.466 384.258 513.994 384.37 514.451 384.594C514.918 384.818 515.277 385.131 515.529 385.532C515.79 385.924 515.921 386.381 515.921 386.904V392H514.409V390.628L514.731 390.67C514.554 390.978 514.325 391.244 514.045 391.468C513.774 391.692 513.462 391.865 513.107 391.986C512.762 392.107 512.374 392.168 511.945 392.168ZM517.771 392V381.402H519.353V392H517.771Z" fill="#202021"/>
</g>
</g>
<defs>
<filter id="filter0_d_612_1864" x="101.7" y="284.2" width="88.6" height="88.6" filterUnits="userSpaceOnUse" color-interpolation-filters="sRGB">
<feFlood flood-opacity="0" result="BackgroundImageFix"/>
<feColorMatrix in="SourceAlpha" type="matrix" values="0 0 0 0 0 0 0 0 0 0 0 0 0 0 0 0 0 0 127 0" result="hardAlpha"/>
<feOffset/>
<feGaussianBlur stdDeviation="4.9"/>
<feComposite in2="hardAlpha" operator="out"/>
<feColorMatrix type="matrix" values="0 0 0 0 0 0 0 0 0 0 0 0 0 0 0 0 0 0 0.1 0"/>
<feBlend mode="normal" in2="BackgroundImageFix" result="effect1_dropShadow_612_1864"/>
<feBlend mode="normal" in="SourceGraphic" in2="effect1_dropShadow_612_1864" result="shape"/>
</filter>
<filter id="filter1_d_612_1864" x="91" y="360" width="110" height="52" filterUnits="userSpaceOnUse" color-interpolation-filters="sRGB">
<feFlood flood-opacity="0" result="BackgroundImageFix"/>
<feColorMatrix in="SourceAlpha" type="matrix" values="0 0 0 0 0 0 0 0 0 0 0 0 0 0 0 0 0 0 127 0" result="hardAlpha"/>
<feOffset/>
<feGaussianBlur stdDeviation="4.5"/>
<feComposite in2="hardAlpha" operator="out"/>
<feColorMatrix type="matrix" values="0 0 0 0 0 0 0 0 0 0 0 0 0 0 0 0 0 0 0.1 0"/>
<feBlend mode="normal" in2="BackgroundImageFix" result="effect1_dropShadow_612_1864"/>
<feBlend mode="normal" in="SourceGraphic" in2="effect1_dropShadow_612_1864" result="shape"/>
</filter>
<filter id="filter2_d_612_1864" x="453.7" y="27.2" width="88.6" height="88.6" filterUnits="userSpaceOnUse" color-interpolation-filters="sRGB">
<feFlood flood-opacity="0" result="BackgroundImageFix"/>
<feColorMatrix in="SourceAlpha" type="matrix" values="0 0 0 0 0 0 0 0 0 0 0 0 0 0 0 0 0 0 127 0" result="hardAlpha"/>
<feOffset/>
<feGaussianBlur stdDeviation="4.9"/>
<feComposite in2="hardAlpha" operator="out"/>
<feColorMatrix type="matrix" values="0 0 0 0 0 0 0 0 0 0 0 0 0 0 0 0 0 0 0.1 0"/>
<feBlend mode="normal" in2="BackgroundImageFix" result="effect1_dropShadow_612_1864"/>
<feBlend mode="normal" in="SourceGraphic" in2="effect1_dropShadow_612_1864" result="shape"/>
</filter>
<filter id="filter3_d_612_1864" x="437" y="103" width="122" height="52" filterUnits="userSpaceOnUse" color-interpolation-filters="sRGB">
<feFlood flood-opacity="0" result="BackgroundImageFix"/>
<feColorMatrix in="SourceAlpha" type="matrix" values="0 0 0 0 0 0 0 0 0 0 0 0 0 0 0 0 0 0 127 0" result="hardAlpha"/>
<feOffset/>
<feGaussianBlur stdDeviation="4.5"/>
<feComposite in2="hardAlpha" operator="out"/>
<feColorMatrix type="matrix" values="0 0 0 0 0 0 0 0 0 0 0 0 0 0 0 0 0 0 0.1 0"/>
<feBlend mode="normal" in2="BackgroundImageFix" result="effect1_dropShadow_612_1864"/>
<feBlend mode="normal" in="SourceGraphic" in2="effect1_dropShadow_612_1864" result="shape"/>
</filter>
<filter id="filter4_d_612_1864" x="795.7" y="284.2" width="88.6" height="88.6" filterUnits="userSpaceOnUse" color-interpolation-filters="sRGB">
<feFlood flood-opacity="0" result="BackgroundImageFix"/>
<feColorMatrix in="SourceAlpha" type="matrix" values="0 0 0 0 0 0 0 0 0 0 0 0 0 0 0 0 0 0 127 0" result="hardAlpha"/>
<feOffset/>
<feGaussianBlur stdDeviation="4.9"/>
<feComposite in2="hardAlpha" operator="out"/>
<feColorMatrix type="matrix" values="0 0 0 0 0 0 0 0 0 0 0 0 0 0 0 0 0 0 0.1 0"/>
<feBlend mode="normal" in2="BackgroundImageFix" result="effect1_dropShadow_612_1864"/>
<feBlend mode="normal" in="SourceGraphic" in2="effect1_dropShadow_612_1864" result="shape"/>
</filter>
<filter id="filter5_d_612_1864" x="785" y="360" width="110" height="52" filterUnits="userSpaceOnUse" color-interpolation-filters="sRGB">
<feFlood flood-opacity="0" result="BackgroundImageFix"/>
<feColorMatrix in="SourceAlpha" type="matrix" values="0 0 0 0 0 0 0 0 0 0 0 0 0 0 0 0 0 0 127 0" result="hardAlpha"/>
<feOffset/>
<feGaussianBlur stdDeviation="4.5"/>
<feComposite in2="hardAlpha" operator="out"/>
<feColorMatrix type="matrix" values="0 0 0 0 0 0 0 0 0 0 0 0 0 0 0 0 0 0 0.1 0"/>
<feBlend mode="normal" in2="BackgroundImageFix" result="effect1_dropShadow_612_1864"/>
<feBlend mode="normal" in="SourceGraphic" in2="effect1_dropShadow_612_1864" result="shape"/>
</filter>
<filter id="filter6_d_612_1864" x="453.7" y="284.2" width="88.6" height="88.6" filterUnits="userSpaceOnUse" color-interpolation-filters="sRGB">
<feFlood flood-opacity="0" result="BackgroundImageFix"/>
<feColorMatrix in="SourceAlpha" type="matrix" values="0 0 0 0 0 0 0 0 0 0 0 0 0 0 0 0 0 0 127 0" result="hardAlpha"/>
<feOffset/>
<feGaussianBlur stdDeviation="4.9"/>
<feComposite in2="hardAlpha" operator="out"/>
<feColorMatrix type="matrix" values="0 0 0 0 0 0 0 0 0 0 0 0 0 0 0 0 0 0 0.1 0"/>
<feBlend mode="normal" in2="BackgroundImageFix" result="effect1_dropShadow_612_1864"/>
<feBlend mode="normal" in="SourceGraphic" in2="effect1_dropShadow_612_1864" result="shape"/>
</filter>
<filter id="filter7_d_612_1864" x="437" y="360" width="122" height="52" filterUnits="userSpaceOnUse" color-interpolation-filters="sRGB">
<feFlood flood-opacity="0" result="BackgroundImageFix"/>
<feColorMatrix in="SourceAlpha" type="matrix" values="0 0 0 0 0 0 0 0 0 0 0 0 0 0 0 0 0 0 127 0" result="hardAlpha"/>
<feOffset/>
<feGaussianBlur stdDeviation="4.5"/>
<feComposite in2="hardAlpha" operator="out"/>
<feColorMatrix type="matrix" values="0 0 0 0 0 0 0 0 0 0 0 0 0 0 0 0 0 0 0.1 0"/>
<feBlend mode="normal" in2="BackgroundImageFix" result="effect1_dropShadow_612_1864"/>
<feBlend mode="normal" in="SourceGraphic" in2="effect1_dropShadow_612_1864" result="shape"/>
</filter>
<clipPath id="clip0_612_1864">
<rect width="979" height="490" fill="white"/>
</clipPath>
</defs>
</svg>
