<svg width="48" height="48" viewBox="0 0 48 48" fill="none" xmlns="http://www.w3.org/2000/svg">
<path d="M24.3042 8.17445C24.3025 7.43918 24.2002 6.70759 24 6C33.9365 6.01089 41.9889 14.0796 41.9999 24C42.0321 33.9249 33.9411 41.967 24 41.9994C14.0589 42.0315 6.03231 33.926 6 24.0011C8.22336 24.4727 10.5408 23.9963 12.2998 22.5591C14.1124 21.0904 15.1578 18.8787 15.1404 16.5481C15.1392 16.0239 15.0922 15.5014 15 14.9854C17.0357 15.7925 19.3409 15.5282 21.1416 14.2832C23.1392 12.8907 24.3221 10.6068 24.3042 8.17445Z" stroke="white" stroke-width="4" stroke-linecap="round" stroke-linejoin="round"/>
<path d="M6.00391 14.004V14H6V14.0039L6.00391 14.004Z" stroke="white" stroke-width="4" stroke-linecap="round" stroke-linejoin="round"/>
<path d="M16.0039 6.004V6H16V6.00391L16.0039 6.004Z" stroke="white" stroke-width="4" stroke-linecap="round" stroke-linejoin="round"/>
<path d="M8.00391 6.004V6H8V6.00391L8.00391 6.004Z" stroke="white" stroke-width="4" stroke-linecap="round" stroke-linejoin="round"/>
<path d="M20.0039 34.004V34H20V34.0039L20.0039 34.004Z" stroke="white" stroke-width="4" stroke-linecap="round" stroke-linejoin="round"/>
<path d="M30.0039 30.004V30H30V30.0039L30.0039 30.004Z" stroke="white" stroke-width="4" stroke-linecap="round" stroke-linejoin="round"/>
<path d="M22.0039 24.004V24H22V24.0039L22.0039 24.004Z" stroke="white" stroke-width="4" stroke-linecap="round" stroke-linejoin="round"/>
<path d="M32.0039 20.004V20H32V20.0039L32.0039 20.004Z" stroke="white" stroke-width="4" stroke-linecap="round" stroke-linejoin="round"/>
<path d="M6.00391 14.004V14H6V14.0039L6.00391 14.004Z" stroke="white" stroke-width="4" stroke-linecap="round" stroke-linejoin="round"/>
<path d="M16.0039 6.004V6H16V6.00391L16.0039 6.004Z" stroke="white" stroke-width="4" stroke-linecap="round" stroke-linejoin="round"/>
<path d="M8.00391 6.004V6H8V6.00391L8.00391 6.004Z" stroke="white" stroke-width="4" stroke-linecap="round" stroke-linejoin="round"/>
</svg>
