<svg xmlns="http://www.w3.org/2000/svg" width="47" height="54" viewBox="0 0 47 54" fill="none"><path d="M46.9936 15.0688C46.9968 14.4276 46.8293 13.7971 46.5082 13.2422L22.7536 26.6447V51.6134C22.7181 51.8801 22.7563 52.1516 22.8651 52.3978C22.9745 52.6441 23.149 52.8547 23.3705 53.0077C23.6108 53.1332 23.8796 53.193 24.1506 53.1801C24.4211 53.1672 24.6835 53.0826 24.9108 52.935L45.1236 41.5434C45.706 41.2319 46.1903 40.7641 46.5217 40.1926C46.853 39.621 47.0179 38.9685 46.9985 38.3082L46.9936 15.0688Z" fill="url(#paint0_linear_3_188)"></path><path d="M22.7293 5.60721e-07C23.5316 -0.000371185 24.3225 0.184107 25.0417 0.539173L45.0508 11.848C45.6499 12.1777 46.152 12.6583 46.5082 13.2421L22.7536 26.6446L1.1562 14.4663C0.84156 14.3294 0.568957 14.1116 0.365844 13.8352C0.16273 13.5587 0.0366511 13.2334 1.52588e-05 12.8924C0.0188719 12.5724 0.129875 12.2647 0.319519 12.0062C0.509164 11.7477 0.769381 11.5494 1.06893 11.4351L20.2812 0.597429C21.0446 0.224034 21.8797 0.0202742 22.7293 5.60721e-07Z" fill="url(#paint1_linear_3_188)"></path><defs><linearGradient id="paint0_linear_3_188" x1="-230.811" y1="81.8902" x2="-142.975" y2="-154.987" gradientUnits="userSpaceOnUse"><stop stop-color="#8ED3DA"></stop><stop offset="1" stop-color="#56C4C8"></stop></linearGradient><linearGradient id="paint1_linear_3_188" x1="2954.03" y1="7386.36" x2="2953.38" y2="7409.69" gradientUnits="userSpaceOnUse"><stop stop-color="#8ED3DA"></stop><stop offset="1" stop-color="#56C4C8"></stop></linearGradient></defs></svg>