<svg width="92" height="92" viewBox="0 0 92 92" fill="none" xmlns="http://www.w3.org/2000/svg">
<circle cx="46" cy="46" r="46" fill="white"/>
<g clip-path="url(#clip0_1348_21440)">
<path d="M60.1562 39.1627V31.1406C60.1562 26.1004 56.0558 22 51.0156 22C45.9754 22 41.875 26.1004 41.875 31.1406V62.2188C41.875 64.9585 39.6461 67.1875 36.9062 67.1875C34.1664 67.1875 31.9375 64.9585 31.9375 62.2188V58.3996H36.1637V48.7635L39.0775 39.0775L30.5387 22L22 39.0774L24.9137 48.7634V58.3995H29.125V62.2188C29.125 66.5094 32.6156 70 36.9062 70C41.1969 70 44.6875 66.5094 44.6875 62.2188V31.1406C44.6875 27.6512 47.5262 24.8125 51.0156 24.8125C54.505 24.8125 57.3438 27.6512 57.3438 31.1406V39.1627H47.5V58.75C47.5 64.9533 52.5467 70 58.75 70C64.9533 70 70 64.9533 70 58.75V39.1627H60.1562ZM31.9445 31.1006L35.2946 37.8008H31.9445V31.1006ZM29.132 37.8007H25.7829L29.132 31.1024V37.8007ZM35.6784 40.6132L33.7122 47.1496H27.3653L25.3991 40.6132H35.6784ZM27.7263 49.9621H33.3512V55.5871H27.7263V49.9621ZM60.1562 41.9752V46.194C60.1562 46.9694 59.5254 47.6002 58.75 47.6002C57.9746 47.6002 57.3438 46.9694 57.3438 46.194V41.9752H60.1562ZM54.5312 41.9752V46.194C54.5312 48.5202 56.4238 50.4127 58.75 50.4127C61.0762 50.4127 62.9688 48.5202 62.9688 46.194V41.9752H67.1875V53.1751H50.3125V41.9752H54.5312ZM50.3125 58.75V55.9877H57.3438V67.0697C53.3583 66.3981 50.3125 62.9234 50.3125 58.75ZM60.1562 67.0697V55.9877H67.1875V58.75C67.1875 62.9234 64.1417 66.3981 60.1562 67.0697Z" fill="#50CE15"/>
</g>
<defs>
<clipPath id="clip0_1348_21440">
<rect width="48" height="48" fill="white" transform="translate(22 22)"/>
</clipPath>
</defs>
</svg>
