<svg width="92" height="92" viewBox="0 0 92 92" fill="none" xmlns="http://www.w3.org/2000/svg">
<circle cx="46" cy="46" r="46" fill="white"/>
<g clip-path="url(#clip0_1348_21412)">
<path d="M66.9719 45.1028C66.9768 44.9085 66.9798 44.7142 66.9798 44.5212C66.9798 38.514 64.6405 32.8662 60.3927 28.6184C56.1449 24.3706 50.4972 22.0312 44.4899 22.0312C38.4826 22.0312 32.8349 24.3706 28.5871 28.6184C24.3393 32.8662 22 38.5139 22 44.5212C22 50.5284 24.3393 56.1762 28.5872 60.4239C32.835 64.6717 38.4827 67.0111 44.49 67.0111C47.3837 67.0111 50.1885 66.4706 52.842 65.407C53.9288 66.5805 55.1535 67.6422 56.5055 68.5628L58.5705 69.9688L60.6354 68.5628C66.4992 64.5701 70 57.9512 70 50.857V48.6782L66.9719 45.1028ZM47.2121 52.5773H45.9041V45.8258H49.5566L47.1408 48.6782V50.857C47.1408 51.4342 47.1663 52.0077 47.2121 52.5773ZM38.058 55.432C38.0498 55.4149 38.0423 55.3972 38.0343 55.3801H43.1013V62.4378C41.0151 60.4467 39.3243 58.1 38.058 55.432ZM36.9193 52.5773C36.2053 50.4119 35.7776 48.1312 35.6587 45.8258H43.1013V52.5773H36.9193ZM24.847 45.8258H32.8522C32.9591 48.1194 33.341 50.3945 33.9823 52.5773H26.5278C25.5892 50.4931 25.0042 48.2169 24.847 45.8258ZM50.925 33.5235C50.9458 33.5673 50.9651 33.6119 50.9857 33.6558H45.9041V26.5581C47.9773 28.538 49.6606 30.871 50.925 33.5235ZM43.1013 26.5567V33.6557H38.0153C38.0298 33.6248 38.0433 33.5933 38.058 33.5623C39.3243 30.8945 41.0151 28.5477 43.1013 26.5567ZM43.1013 36.4584V43.0231H35.6661C35.7943 40.7819 36.2148 38.5659 36.9057 36.4584H43.1013ZM32.8593 43.0231H24.8593C25.0349 40.7 25.6157 38.4883 26.5306 36.4584H33.9703C33.3498 38.5825 32.9745 40.7933 32.8593 43.0231ZM51.9466 43.004L51.9303 43.0231H45.9041V36.4584H52.0959C52.7853 38.5603 53.2069 40.7698 53.3375 43.004H51.9466ZM56.1439 43.004C56.0265 40.7811 55.6505 38.5768 55.0313 36.4584H62.4493C63.3617 38.4828 63.9419 40.6879 64.1193 43.004H56.1439ZM60.8987 33.6557H54.0484C53.8622 33.2036 53.6645 32.7571 53.4549 32.3174C52.1939 29.6721 50.5574 27.3119 48.5719 25.2607C53.6965 26.3456 58.091 29.4297 60.8987 33.6557ZM40.4381 25.2541C38.4371 27.3188 36.7908 29.6958 35.526 32.3605C35.3238 32.7863 35.1333 33.2184 34.9531 33.6557H28.0812C30.8943 29.4214 35.3006 26.3333 40.4381 25.2541ZM28.0769 55.3801H34.9703C35.1454 55.8032 35.3304 56.2216 35.5261 56.6339C36.8032 59.3245 38.4687 61.7222 40.4961 63.8008C35.3311 62.7323 30.9004 59.6337 28.0769 55.3801ZM45.9041 64.1575V55.3802H47.623C48.2237 58.1649 49.372 60.791 50.9897 63.1102C49.3503 63.6846 47.6488 64.0348 45.9041 64.1575ZM67.1973 50.857C67.1973 57.023 64.1545 62.7758 59.0579 66.2461L58.5704 66.5781L58.0829 66.2461C52.9862 62.7758 49.9435 57.023 49.9435 50.857V49.7056L53.2457 45.8067H63.8952L67.1973 49.7056V50.857H67.1973Z" fill="#EAB308"/>
<path d="M58.5704 50.6914C57.3335 50.6914 56.3271 51.6977 56.3271 52.9347C56.3271 53.6417 56.6563 54.2729 57.169 54.6844V58.8775H59.9718V54.6844C60.4845 54.2729 60.8136 53.6416 60.8136 52.9347C60.8136 51.6977 59.8073 50.6914 58.5704 50.6914Z" fill="#EAB308"/>
</g>
<defs>
<clipPath id="clip0_1348_21412">
<rect width="48" height="48" fill="white" transform="translate(22 22)"/>
</clipPath>
</defs>
</svg>
