<svg width="92" height="92" viewBox="0 0 92 92" fill="none" xmlns="http://www.w3.org/2000/svg">
<circle cx="46" cy="46" r="46" fill="white"/>
<path d="M64 45.5002H28C26.08 45.5002 24.5 43.9202 24.5 42.0002V35.3603C24.5 34.0003 25.44 32.6203 26.7 32.1203L44.7 24.9203C45.46 24.6203 46.54 24.6203 47.3 24.9203L65.3 32.1203C66.56 32.6203 67.5 34.0203 67.5 35.3603V42.0002C67.5 43.9202 65.92 45.5002 64 45.5002ZM46 27.6803C45.92 27.6803 45.84 27.6802 45.8 27.7002L27.8199 34.9003C27.6999 34.9603 27.5 35.2203 27.5 35.3603V42.0002C27.5 42.2802 27.72 42.5002 28 42.5002H64C64.28 42.5002 64.5 42.2802 64.5 42.0002V35.3603C64.5 35.2203 64.32 34.9603 64.18 34.9003L46.18 27.7002C46.14 27.6802 46.08 27.6803 46 27.6803Z" fill="#7C3AED"/>
<path d="M66 67.5H26C25.18 67.5 24.5 66.82 24.5 66V60C24.5 58.08 26.08 56.5 28 56.5H64C65.92 56.5 67.5 58.08 67.5 60V66C67.5 66.82 66.82 67.5 66 67.5ZM27.5 64.5H64.5V60C64.5 59.72 64.28 59.5 64 59.5H28C27.72 59.5 27.5 59.72 27.5 60V64.5Z" fill="#7C3AED"/>
<path d="M30 59.5C29.18 59.5 28.5 58.82 28.5 58V44C28.5 43.18 29.18 42.5 30 42.5C30.82 42.5 31.5 43.18 31.5 44V58C31.5 58.82 30.82 59.5 30 59.5Z" fill="#7C3AED"/>
<path d="M38 59.5C37.18 59.5 36.5 58.82 36.5 58V44C36.5 43.18 37.18 42.5 38 42.5C38.82 42.5 39.5 43.18 39.5 44V58C39.5 58.82 38.82 59.5 38 59.5Z" fill="#7C3AED"/>
<path d="M46 59.5C45.18 59.5 44.5 58.82 44.5 58V44C44.5 43.18 45.18 42.5 46 42.5C46.82 42.5 47.5 43.18 47.5 44V58C47.5 58.82 46.82 59.5 46 59.5Z" fill="#7C3AED"/>
<path d="M54 59.5C53.18 59.5 52.5 58.82 52.5 58V44C52.5 43.18 53.18 42.5 54 42.5C54.82 42.5 55.5 43.18 55.5 44V58C55.5 58.82 54.82 59.5 54 59.5Z" fill="#7C3AED"/>
<path d="M62 59.5C61.18 59.5 60.5 58.82 60.5 58V44C60.5 43.18 61.18 42.5 62 42.5C62.82 42.5 63.5 43.18 63.5 44V58C63.5 58.82 62.82 59.5 62 59.5Z" fill="#7C3AED"/>
<path d="M68 67.5H24C23.18 67.5 22.5 66.82 22.5 66C22.5 65.18 23.18 64.5 24 64.5H68C68.82 64.5 69.5 65.18 69.5 66C69.5 66.82 68.82 67.5 68 67.5Z" fill="#7C3AED"/>
<path d="M46 40.5C43.52 40.5 41.5 38.48 41.5 36C41.5 33.52 43.52 31.5 46 31.5C48.48 31.5 50.5 33.52 50.5 36C50.5 38.48 48.48 40.5 46 40.5ZM46 34.5C45.18 34.5 44.5 35.18 44.5 36C44.5 36.82 45.18 37.5 46 37.5C46.82 37.5 47.5 36.82 47.5 36C47.5 35.18 46.82 34.5 46 34.5Z" fill="#7C3AED"/>
</svg>
