<svg width="92" height="92" viewBox="0 0 92 92" fill="none" xmlns="http://www.w3.org/2000/svg">
<circle cx="46" cy="46" r="46" fill="white"/>
<path d="M36.5425 52.6343H39.355V48.7771H43.1884V52.6343H46.0009V39.3633H36.5425V52.6343ZM43.1884 42.1758V45.9646H39.355V42.1758H43.1884Z" fill="#DB2777"/>
<path d="M55.4578 42.1758V39.3633H48.834V42.1758H50.7396V49.8218H48.834V52.6343H55.4578V49.8218H53.5521V42.1758H55.4578Z" fill="#DB2777"/>
<path d="M65.2522 37.5428V36.4557C65.2522 32.7747 62.534 29.7166 58.9996 29.1831C58.0901 26.114 55.2393 23.9199 51.9486 23.9199C49.507 23.9199 47.3392 25.1162 46.0007 26.953C46.0006 26.9534 46.0003 26.9537 46 26.954C45.9997 26.9537 45.9995 26.9533 45.9993 26.953C44.6608 25.1161 42.493 23.9199 40.0514 23.9199C36.7608 23.9199 33.9099 26.114 33.0004 29.1831C29.466 29.7166 26.7478 32.7747 26.7478 36.4557V37.5428C24.0297 38.1805 22 40.625 22 43.5347V48.4637C22 51.3734 24.0297 53.8178 26.7478 54.4555V55.5427C26.7478 59.2237 29.466 62.2819 33.0004 62.8153C33.9102 65.884 36.761 68.0785 40.0514 68.0785C42.493 68.0785 44.6608 66.8823 45.9993 65.0454C45.9994 65.045 45.9997 65.0448 46 65.0445C46.0003 65.0448 46.0005 65.0451 46.0007 65.0454C47.3392 66.8824 49.507 68.0785 51.9486 68.0785C55.239 68.0785 58.0898 65.884 58.9996 62.8153C62.534 62.2819 65.2522 59.2237 65.2522 55.5427V54.4555C67.9703 53.8178 70 51.3734 70 48.4637V43.5347C70 40.625 67.9703 38.1805 65.2522 37.5428ZM67.1875 48.4637C67.1875 50.3061 65.6885 51.8051 63.846 51.8051H62.4397V55.5427C62.4397 57.5741 61.0993 59.2984 59.2565 59.8775C59.0647 58.1811 58.298 56.6211 57.0466 55.4184L55.0976 57.446C55.9976 58.3111 56.4933 59.4747 56.4933 60.7224C56.4934 60.9181 56.4797 61.1183 56.4518 61.3105C56.1615 63.5655 54.2256 65.2659 51.9487 65.2659C49.444 65.2659 47.4063 63.2282 47.4063 60.7234H44.5938C44.5938 63.2282 42.5562 65.2659 40.0515 65.2659C37.7746 65.2659 35.8386 63.5655 35.5484 61.3105C35.5205 61.1183 35.5067 60.9181 35.5069 60.7224C35.5069 59.4746 36.0026 58.3111 36.9026 57.446L34.9536 55.4183C33.7022 56.6211 32.9355 58.181 32.7437 59.8774C30.9009 59.2983 29.5605 57.5741 29.5605 55.5426V51.8051H28.1542C26.3115 51.8051 24.8125 50.3061 24.8125 48.4637V43.5347C24.8125 42.1943 25.6061 41.0366 26.7478 40.5046C26.7478 44.1618 29.5494 46.9138 32.993 46.9138V44.1013C31.1002 44.1013 29.5603 42.5614 29.5603 40.6685V36.4557C29.5603 34.4242 30.9007 32.7 32.7435 32.121C32.9353 33.8173 33.702 35.3773 34.9534 36.58L36.9024 34.5523C36.0024 33.6873 35.5068 32.5236 35.5068 31.2759C35.5061 31.0819 35.52 30.8788 35.5482 30.6878C35.6677 29.7749 36.0443 28.9626 36.6343 28.2855C37.4726 27.3297 38.7019 26.7324 40.0513 26.7324C42.5561 26.7324 44.5938 28.7702 44.5938 31.2748H47.4062C47.4062 28.7701 49.4439 26.7323 51.9486 26.7323C53.2979 26.7323 54.5273 27.3296 55.3656 28.2854C55.9557 28.9625 56.3323 29.7748 56.4517 30.6877C56.4799 30.8787 56.4938 31.0818 56.4932 31.2758C56.4932 32.5236 55.9975 33.6872 55.0975 34.5522L57.0465 36.5799C58.2979 35.3771 59.0646 33.8172 59.2564 32.1209C61.0993 32.6999 62.4396 34.4241 62.4396 36.4556V40.6685C62.4396 42.5613 60.8997 44.1012 59.0069 44.1012V46.9137C62.4505 46.9137 65.2521 44.1927 65.2521 40.5045C66.3939 41.0365 67.1875 42.1943 67.1875 43.5347V48.4637Z" fill="#DB2777"/>
</svg>
