<svg width="92" height="92" viewBox="0 0 92 92" fill="none" xmlns="http://www.w3.org/2000/svg">
<circle cx="46" cy="46" r="46" fill="white"/>
<g clip-path="url(#clip0_1348_21382)">
<path d="M60.1179 53.0588H50.2355V50.512C52.4276 49.2464 53.9323 47.0673 54.3512 44.5882H58.9489C59.5317 46.2314 61.1009 47.4118 62.9414 47.4118C65.2768 47.4118 67.1767 45.5119 67.1767 43.1765C67.1767 40.841 65.2768 38.9412 62.9414 38.9412C61.1009 38.9412 59.5317 40.1215 58.9489 41.7647H54.3525C54.1359 40.4795 53.6295 39.2916 52.9021 38.2711L59.7048 31.4684C61.2761 32.2169 63.2194 31.9468 64.5243 30.6419C66.1757 28.9906 66.1757 26.3036 64.5243 24.6523C62.8731 23.001 60.1861 23.001 58.5348 24.6523C57.2334 25.9537 56.9584 27.8979 57.7083 29.4719L50.9056 36.2745C49.8852 35.5471 48.6971 35.0408 47.412 34.8242V30.2278C49.0552 29.6451 50.2355 28.0758 50.2355 26.2353C50.2355 23.9 48.3356 22 46.0002 22C43.6648 22 41.7649 23.9 41.7649 26.2353C41.7649 28.0758 42.9452 29.6451 44.5884 30.2278V34.8242C43.3033 35.0408 42.1152 35.5472 41.0948 36.2745L34.2922 29.4719C35.042 27.8979 34.7671 25.9537 33.4656 24.6523C31.8143 23.001 29.1274 23.001 27.4761 24.6523C25.8247 26.3036 25.8247 28.9906 27.4761 30.6419C28.7815 31.9473 30.7249 32.2168 32.2956 31.4684L39.0983 38.2711C38.3708 39.2916 37.8645 40.4795 37.6479 41.7647H33.0515C32.4687 40.1215 30.8995 38.9412 29.059 38.9412C26.7237 38.9412 24.8237 40.841 24.8237 43.1765C24.8237 45.5119 26.7237 47.4118 29.059 47.4118C30.8995 47.4118 32.4687 46.2314 33.0515 44.5882H37.6493C38.0681 47.0674 39.5729 49.2464 41.765 50.512V70H67.1768V60.1176C67.1767 56.2254 64.0101 53.0588 60.1179 53.0588ZM62.9414 41.7647C63.7199 41.7647 64.3531 42.398 64.3531 43.1765C64.3531 43.9549 63.7199 44.5882 62.9414 44.5882C62.1628 44.5882 61.5296 43.9549 61.5296 43.1765C61.5296 42.398 62.1628 41.7647 62.9414 41.7647ZM60.5314 26.6488C61.0831 26.0971 61.9762 26.0971 62.5279 26.6488C63.0796 27.2006 63.0796 28.0936 62.5279 28.6454C61.9762 29.1971 61.0831 29.1971 60.5314 28.6454C59.9796 28.0936 59.9796 27.2006 60.5314 26.6488ZM46.0002 24.8235C46.7787 24.8235 47.412 25.4568 47.412 26.2353C47.412 27.0137 46.7787 27.6471 46.0002 27.6471C45.2218 27.6471 44.5884 27.0137 44.5884 26.2353C44.5884 25.4568 45.2218 24.8235 46.0002 24.8235ZM29.4726 28.6453C28.9209 28.0936 28.9209 27.2006 29.4726 26.6488C30.0243 26.0969 30.9174 26.097 31.4691 26.6488C32.0208 27.2005 32.0208 28.0936 31.4691 28.6453C30.9173 29.1971 30.0243 29.1971 29.4726 28.6453ZM29.059 44.5882C28.2806 44.5882 27.6473 43.9549 27.6473 43.1765C27.6473 42.398 28.2806 41.7647 29.059 41.7647C29.8375 41.7647 30.4708 42.398 30.4708 43.1765C30.4708 43.9549 29.8375 44.5882 29.059 44.5882ZM40.3531 43.1765C40.3531 40.0627 42.8864 37.5294 46.0002 37.5294C49.114 37.5294 51.6473 40.0627 51.6473 43.1765C51.6473 44.5792 51.1276 45.8989 50.2355 46.9112V46C50.2355 43.6646 48.3356 41.7647 46.0002 41.7647C43.6648 41.7647 41.7649 43.6646 41.7649 46V46.9112C40.8727 45.8989 40.3531 44.5792 40.3531 43.1765ZM64.3531 67.1765H44.5884V46C44.5884 45.2216 45.2218 44.5882 46.0002 44.5882C46.7787 44.5882 47.412 45.2216 47.412 46V62.9412H50.2355V55.8824H53.059V58.7059H55.8826V55.8824H58.7061V58.7059H61.5296V56.1252C63.1728 56.708 64.3531 58.2772 64.3531 60.1176V67.1765Z" fill="#2563EB"/>
</g>
<defs>
<clipPath id="clip0_1348_21382">
<rect width="48" height="48" fill="white" transform="translate(22 22)"/>
</clipPath>
</defs>
</svg>
