<svg width="92" height="92" viewBox="0 0 92 92" fill="none" xmlns="http://www.w3.org/2000/svg">
<circle cx="46" cy="46" r="46" fill="white"/>
<g clip-path="url(#clip0_1348_21351)">
<path d="M27.5548 63.9501L29.9153 62.4204C27.5572 58.7821 26.3109 54.5622 26.3109 50.2169C26.3109 37.8092 36.4053 27.7148 48.813 27.7148C55.2963 27.7148 59.1296 30.3518 61.1281 31.0952L57.8067 22L55.1646 22.9649L56.2818 26.0245C53.8763 25.2787 51.3753 24.902 48.8129 24.902C34.8542 24.902 23.498 36.2582 23.498 50.2169C23.498 55.1064 24.9009 59.8552 27.5548 63.9501Z" fill="#EA580C"/>
<path d="M48.8129 30.5273C37.9562 30.5273 29.1235 39.36 29.1235 50.2167C29.1235 61.1252 37.9562 69.9998 48.8129 69.9998C59.6696 69.9998 68.5022 61.1252 68.5022 50.2167C68.5022 39.3599 59.6696 30.5273 48.8129 30.5273ZM63.424 41.7784H58.075L55.2623 44.5912H53.6146L50.8018 41.7784H47.989L46.5826 40.372L47.989 38.9656H51.6256V33.5758C56.6636 34.4246 60.9508 37.5127 63.424 41.7784ZM32.1694 53.0295H36.738L39.5507 50.2167H43.1874V52.2056L46.0001 55.0184V56.6661L42.6048 60.0614L46.824 64.2805H50.8018L53.6146 61.4677H54.9756L56.8183 65.153C54.4348 66.4499 51.708 67.187 48.8129 67.187C40.46 67.187 33.5061 61.0529 32.1694 53.0295ZM59.184 63.5951L56.7139 58.6549H52.4495L49.6367 61.4677H47.989L46.5826 60.0613L48.8129 57.831V53.8532L46.0001 51.0405V47.4038H38.3857L35.5729 50.2166H31.9363C31.9363 40.9108 39.5071 33.34 48.8129 33.34V36.1528H46.824L42.6048 40.3719L46.824 44.5911H49.6367L52.4495 47.4038H56.4273L59.2401 44.5911H64.7241C65.3484 46.3515 65.6895 48.2448 65.6895 50.2166C65.6895 55.6455 63.1409 60.4867 59.184 63.5951Z" fill="#EA580C"/>
</g>
<defs>
<clipPath id="clip0_1348_21351">
<rect width="48" height="48" fill="white" transform="translate(22 22)"/>
</clipPath>
</defs>
</svg>
