<svg width="43" height="43" viewBox="0 0 43 43" fill="none" xmlns="http://www.w3.org/2000/svg">
<rect x="0.5" y="0.825195" width="42" height="42" rx="11.4545" fill="#1167E8" fill-opacity="0.1"/>
<path fill-rule="evenodd" clip-rule="evenodd" d="M12.2949 15.6206C12.2949 14.825 12.611 14.0619 13.1736 13.4993C13.7362 12.9367 14.4993 12.6206 15.2949 12.6206H28.7949C29.5906 12.6206 30.3536 12.9367 30.9162 13.4993C31.4789 14.0619 31.7949 14.825 31.7949 15.6206V25.3706C31.7949 26.1663 31.4789 26.9293 30.9162 27.4919C30.3536 28.0545 29.5906 28.3706 28.7949 28.3706H25.7949V28.6276C25.7949 29.2246 26.0319 29.7976 26.4539 30.2186L27.0749 30.8406C27.1797 30.9455 27.251 31.0791 27.2799 31.2245C27.3088 31.3699 27.2939 31.5206 27.2372 31.6575C27.1805 31.7945 27.0845 31.9116 26.9613 31.994C26.838 32.0764 26.6932 32.1205 26.5449 32.1206H17.5449C17.3967 32.1205 17.2518 32.0764 17.1286 31.994C17.0054 31.9116 16.9093 31.7945 16.8526 31.6575C16.7959 31.5206 16.7811 31.3699 16.81 31.2245C16.8388 31.0791 16.9102 30.9455 17.0149 30.8406L17.6359 30.2186C18.0576 29.7969 18.2947 29.225 18.2949 28.6286V28.3706H15.2949C14.4993 28.3706 13.7362 28.0545 13.1736 27.4919C12.611 26.9293 12.2949 26.1663 12.2949 25.3706V15.6206ZM13.7949 15.6206V23.1206C13.7949 23.5184 13.953 23.9 14.2343 24.1813C14.5156 24.4626 14.8971 24.6206 15.2949 24.6206H28.7949C29.1927 24.6206 29.5743 24.4626 29.8556 24.1813C30.1369 23.9 30.2949 23.5184 30.2949 23.1206V15.6206C30.2949 15.2228 30.1369 14.8412 29.8556 14.5599C29.5743 14.2786 29.1927 14.1206 28.7949 14.1206H15.2949C14.8971 14.1206 14.5156 14.2786 14.2343 14.5599C13.953 14.8412 13.7949 15.2228 13.7949 15.6206Z" fill="#1167E8"/>
</svg>
