<svg xmlns="http://www.w3.org/2000/svg" width="45" height="52" viewBox="0 0 45 52" fill="none"><path d="M32.5 6.20454V45.2045C32.5 49.5717 35.5099 52 38.7045 52C41.6591 52 44.9091 49.9318 44.9091 45.2045V6.49999C44.9091 2.50213 41.9545 0 38.7045 0C35.4545 0 32.5 2.76065 32.5 6.20454Z" fill="#F8AB00"></path><path d="M16.25 26V45.2045C16.25 49.5717 19.2599 52 22.4545 52C25.4091 52 28.6591 49.9318 28.6591 45.2045V26.2954C28.6591 22.2976 25.7045 19.7954 22.4545 19.7954C19.2045 19.7954 16.25 22.5561 16.25 26Z" fill="#E37300"></path><path d="M12.4091 45.7954C12.4091 49.2209 9.62997 52 6.20454 52C2.77912 52 0 49.2209 0 45.7954C0 42.37 2.77912 39.5909 6.20454 39.5909C9.62997 39.5909 12.4091 42.37 12.4091 45.7954Z" fill="#E37300"></path></svg>