<svg xmlns="http://www.w3.org/2000/svg" width="52" height="52" viewBox="0 0 52 52" fill="none"><path d="M50.96 26.5909C50.96 24.7473 50.7945 22.9746 50.4873 21.2727H26V31.3418H39.9927C39.3782 34.58 37.5345 37.3218 34.7691 39.1655V45.7127H43.2073C48.1236 41.1745 50.96 34.5091 50.96 26.5909Z" fill="#4285F4"></path><path d="M26 52C33.02 52 38.9054 49.6836 43.2073 45.7127L34.7691 39.1655C32.4527 40.7255 29.4982 41.6709 26 41.6709C19.24 41.6709 13.4964 37.1091 11.44 30.9637H2.78909V37.6764C7.06727 46.1618 15.8364 52 26 52Z" fill="#34A853"></path><path d="M11.44 30.94C10.92 29.38 10.6127 27.7255 10.6127 26C10.6127 24.2746 10.92 22.62 11.44 21.06V14.3473H2.78909C1.01636 17.8455 0 21.7927 0 26C0 30.2073 1.01636 34.1546 2.78909 37.6527L9.52545 32.4055L11.44 30.94Z" fill="#FBBC05"></path><path d="M26 10.3527C29.8291 10.3527 33.2327 11.6764 35.9509 14.2291L43.3964 6.78363C38.8818 2.57636 33.02 0 26 0C15.8364 0 7.06727 5.83818 2.78909 14.3473L11.44 21.06C13.4964 14.9145 19.24 10.3527 26 10.3527Z" fill="#EA4335"></path></svg>