<svg xmlns="http://www.w3.org/2000/svg" width="49" height="52" viewBox="0 0 49 52" fill="none"><path d="M6.02832 0.5H31.6855C34.7716 0.50015 37.2078 2.96011 37.1436 6.07422V9.12695C37.1438 10.106 37.9943 10.9706 38.9756 10.9707H42.9717C46.052 10.9709 48.4998 13.4978 48.5 16.5547V50.6562C48.4997 51.0918 48.0883 51.5 47.668 51.5H44.5137C44.4222 51.5 44.2973 51.4738 44.1904 51.4268L44.0918 51.373L36.8115 46.2148L36.8018 46.208L36.6816 46.1357C36.3949 45.9786 36.0621 45.9111 35.751 45.9111H6.03906C2.94074 45.846 0.5 43.3738 0.5 40.3262V6.08398C0.500193 2.96013 2.94424 0.500155 6.02832 0.5ZM6.09863 4.31055C5.11719 4.31059 4.2666 5.17602 4.2666 6.15527V40.1846C4.2666 41.2346 5.0471 42.0293 6.09863 42.0293H37.293C37.4983 42.0293 37.6755 42.0825 37.7852 42.1562L42.7559 45.6182V45.6172C43.5866 46.2088 44.8035 45.6015 44.8037 44.501V16.626C44.8037 15.6468 43.953 14.7814 42.9717 14.7812H39.0459C38.0644 14.7812 37.2139 15.6467 37.2139 16.626V34.5957C37.2139 35.0314 36.8024 35.4404 36.3818 35.4404H12.6182C12.1976 35.4404 11.7861 35.0314 11.7861 34.5957V11.8857C11.7861 11.4501 12.1976 11.041 12.6182 11.041H31.6152C32.5967 11.041 33.4473 10.1765 33.4473 9.19727V6.15527C33.4473 5.17602 32.5967 4.31059 31.6152 4.31055H6.09863ZM16.6836 14.7812C16.0529 14.7814 15.5529 15.2927 15.5527 15.918V30.4219C15.5528 31.0473 16.0528 31.5585 16.6836 31.5586H32.2461C32.6133 31.5586 32.914 31.3972 33.1113 31.1484C33.2983 30.9125 33.377 30.6196 33.377 30.3506V15.918C33.3767 15.2926 32.8769 14.7813 32.2461 14.7812H16.6836Z" fill="white" stroke="black"></path></svg>