<svg width="72" height="72" viewBox="0 0 72 72" fill="none" xmlns="http://www.w3.org/2000/svg">
<rect width="72" height="72" rx="36" fill="white"/>
<path d="M17.6392 44.1911V41.9091H28.3906V44.1911H24.3828V55H21.647V44.1911H17.6392ZM41.5934 48.4545C41.5934 49.8821 41.3228 51.0966 40.7816 52.098C40.2447 53.0994 39.5117 53.8643 38.5827 54.3928C37.658 54.9169 36.6183 55.179 35.4634 55.179C34.3001 55.179 33.256 54.9148 32.3313 54.3864C31.4066 53.858 30.6758 53.093 30.1388 52.0916C29.6019 51.0902 29.3335 49.8778 29.3335 48.4545C29.3335 47.027 29.6019 45.8125 30.1388 44.8111C30.6758 43.8097 31.4066 43.0469 32.3313 42.5227C33.256 41.9943 34.3001 41.7301 35.4634 41.7301C36.6183 41.7301 37.658 41.9943 38.5827 42.5227C39.5117 43.0469 40.2447 43.8097 40.7816 44.8111C41.3228 45.8125 41.5934 47.027 41.5934 48.4545ZM38.7873 48.4545C38.7873 47.5298 38.6488 46.75 38.3718 46.1151C38.0991 45.4801 37.7134 44.9986 37.2148 44.6705C36.7163 44.3423 36.1325 44.1783 35.4634 44.1783C34.7944 44.1783 34.2106 44.3423 33.712 44.6705C33.2134 44.9986 32.8256 45.4801 32.5487 46.1151C32.2759 46.75 32.1396 47.5298 32.1396 48.4545C32.1396 49.3793 32.2759 50.1591 32.5487 50.794C32.8256 51.429 33.2134 51.9105 33.712 52.2386C34.2106 52.5668 34.7944 52.7308 35.4634 52.7308C36.1325 52.7308 36.7163 52.5668 37.2148 52.2386C37.7134 51.9105 38.0991 51.429 38.3718 50.794C38.6488 50.1591 38.7873 49.3793 38.7873 48.4545ZM43.6436 55V41.9091H48.8084C49.8013 41.9091 50.6472 42.0987 51.3461 42.478C52.0449 42.853 52.5776 43.375 52.9441 44.044C53.3148 44.7088 53.5002 45.4759 53.5002 46.3452C53.5002 47.2145 53.3127 47.9815 52.9377 48.6463C52.5627 49.3111 52.0194 49.8288 51.3077 50.1996C50.6003 50.5703 49.7438 50.7557 48.7381 50.7557H45.4462V48.5376H48.2907C48.8233 48.5376 49.2623 48.446 49.6074 48.2628C49.9569 48.0753 50.2168 47.8175 50.3873 47.4893C50.562 47.157 50.6493 46.7756 50.6493 46.3452C50.6493 45.9105 50.562 45.5312 50.3873 45.2074C50.2168 44.8793 49.9569 44.6257 49.6074 44.4467C49.258 44.2635 48.8148 44.1719 48.2779 44.1719H46.4114V55H43.6436Z" fill="black"/>
<path d="M45.7076 22.7075C45.6147 22.8005 45.5044 22.8742 45.383 22.9246C45.2616 22.9749 45.1315 23.0008 45.0001 23.0008C44.8687 23.0008 44.7385 22.9749 44.6171 22.9246C44.4957 22.8742 44.3854 22.8005 44.2926 22.7075L37.0001 15.4137V35C37.0001 35.2652 36.8947 35.5196 36.7072 35.7071C36.5196 35.8946 36.2653 36 36.0001 36C35.7349 36 35.4805 35.8946 35.293 35.7071C35.1054 35.5196 35.0001 35.2652 35.0001 35V15.4137L27.7076 22.7075C27.5199 22.8951 27.2654 23.0005 27.0001 23.0005C26.7347 23.0005 26.4802 22.8951 26.2926 22.7075C26.1049 22.5199 25.9995 22.2654 25.9995 22C25.9995 21.7346 26.1049 21.4801 26.2926 21.2925L35.2926 12.2925C35.3854 12.1995 35.4957 12.1258 35.6171 12.0754C35.7385 12.0251 35.8687 11.9992 36.0001 11.9992C36.1315 11.9992 36.2616 12.0251 36.383 12.0754C36.5044 12.1258 36.6147 12.1995 36.7076 12.2925L45.7076 21.2925C45.8005 21.3854 45.8743 21.4957 45.9246 21.6171C45.975 21.7385 46.0009 21.8686 46.0009 22C46.0009 22.1314 45.975 22.2615 45.9246 22.3829C45.8743 22.5043 45.8005 22.6146 45.7076 22.7075Z" fill="black"/>
</svg>
