<svg width="13" height="13" viewBox="0 0 13 13" fill="none" xmlns="http://www.w3.org/2000/svg">
<g clip-path="url(#clip0_79_10961)">
<path d="M6.12108 1.59856C7.72316 1.59856 7.91291 1.60466 8.54558 1.63352C9.13058 1.66022 9.44827 1.75797 9.65972 1.84011C9.93976 1.94896 10.1397 2.079 10.3496 2.28894C10.5596 2.49889 10.6896 2.69879 10.7984 2.97883C10.8806 3.19028 10.9783 3.50797 11.005 4.09294C11.0339 4.72564 11.04 4.91539 11.04 6.51747C11.04 8.11954 11.0339 8.30929 11.005 8.94197C10.9783 9.52696 10.8806 9.84466 10.7984 10.0561C10.6896 10.3361 10.5596 10.536 10.3496 10.746C10.1397 10.9559 9.93976 11.086 9.65972 11.1948C9.44827 11.277 9.13058 11.3747 8.54558 11.4014C7.913 11.4303 7.72325 11.4364 6.12108 11.4364C4.51891 11.4364 4.32916 11.4303 3.69658 11.4014C3.11158 11.3747 2.79389 11.277 2.58247 11.1948C2.3024 11.086 2.1025 10.9559 1.89256 10.746C1.68261 10.536 1.55257 10.3361 1.44375 10.0561C1.36158 9.84466 1.26384 9.52697 1.23714 8.94199C1.20827 8.3093 1.20217 8.11954 1.20217 6.51747C1.20217 4.91539 1.20827 4.72564 1.23714 4.09297C1.26384 3.50797 1.36158 3.19028 1.44375 2.97883C1.55257 2.69879 1.68261 2.49889 1.89256 2.28894C2.1025 2.079 2.3024 1.94896 2.58247 1.84011C2.79389 1.75797 3.11158 1.66022 3.69655 1.63352C4.32925 1.60466 4.51901 1.59856 6.12108 1.59856ZM6.12108 0.517456C4.49157 0.517456 4.28727 0.524363 3.6473 0.553563C3.00865 0.582715 2.57251 0.684128 2.19084 0.83246C1.79629 0.985794 1.46168 1.19095 1.12813 1.52451C0.794568 1.85807 0.589408 2.19267 0.436074 2.58723C0.287742 2.9689 0.186329 3.40503 0.157177 4.04369C0.127977 4.68363 0.121094 4.88795 0.121094 6.51747C0.121094 8.14698 0.127977 8.35131 0.157177 8.99125C0.186329 9.6299 0.287742 10.066 0.436074 10.4477C0.589408 10.8422 0.794568 11.1769 1.12813 11.5104C1.46168 11.844 1.79629 12.0491 2.19084 12.2025C2.57251 12.3508 3.00865 12.4522 3.6473 12.4814C4.28727 12.5106 4.49157 12.5175 6.12108 12.5175C7.7506 12.5175 7.95492 12.5106 8.59486 12.4814C9.23352 12.4522 9.66965 12.3508 10.0513 12.2025C10.4459 12.0491 10.7805 11.844 11.114 11.5104C11.4476 11.1769 11.6528 10.8423 11.8061 10.4477C11.9544 10.066 12.0558 9.6299 12.085 8.99125C12.1142 8.35131 12.1211 8.14698 12.1211 6.51747C12.1211 4.88795 12.1142 4.68363 12.085 4.04369C12.0558 3.40503 11.9544 2.9689 11.8061 2.58723C11.6528 2.19267 11.4476 1.85807 11.114 1.52451C10.7805 1.19095 10.4459 0.985794 10.0513 0.83246C9.66965 0.684128 9.23352 0.582715 8.59486 0.553563C7.95492 0.524363 7.7506 0.517456 6.12108 0.517456ZM6.12108 3.43638C4.41945 3.43638 3.03999 4.81584 3.03999 6.51747C3.03999 8.2191 4.41945 9.59856 6.12108 9.59856C7.82271 9.59856 9.20217 8.2191 9.20217 6.51747C9.20217 4.81584 7.82271 3.43638 6.12108 3.43638ZM6.12108 8.51748C5.01652 8.51748 4.12107 7.62203 4.12107 6.51747C4.12107 5.41291 5.01652 4.51746 6.12108 4.51746C7.22564 4.51746 8.12109 5.41291 8.12109 6.51747C8.12109 7.62203 7.22564 8.51748 6.12108 8.51748ZM10.0439 3.31465C10.0439 3.7123 9.72155 4.03466 9.3239 4.03466C8.92625 4.03466 8.60389 3.7123 8.60389 3.31465C8.60389 2.917 8.92625 2.59466 9.3239 2.59466C9.72155 2.59466 10.0439 2.917 10.0439 3.31465Z" fill="white"/>
</g>
<defs>
<clipPath id="clip0_79_10961">
<rect width="12" height="12" fill="white" transform="translate(0.121094 0.517456)"/>
</clipPath>
</defs>
</svg>
