<svg width="38" height="37" viewBox="0 0 38 37" fill="none" xmlns="http://www.w3.org/2000/svg">
<rect x="0.226562" width="37.0074" height="37.0074" rx="18.5037" fill="white" fill-opacity="0.2"/>
<path d="M19.0308 10.6655C22.1245 10.6655 23.6714 10.6657 24.7856 11.4028C25.2832 11.732 25.7093 12.1582 26.0386 12.6558C26.7759 13.7701 26.7759 15.3175 26.7759 18.4116C26.7759 21.5055 26.7758 23.0522 26.0386 24.1665C25.7093 24.6641 25.2832 25.0902 24.7856 25.4194C23.6714 26.1567 22.1246 26.1567 19.0308 26.1567C15.9366 26.1567 14.3892 26.1567 13.2749 25.4194C12.7774 25.0902 12.3512 24.664 12.022 24.1665C11.2848 23.0523 11.2847 21.5053 11.2847 18.4116C11.2847 15.3175 11.2847 13.7701 12.022 12.6558C12.3512 12.1582 12.7773 11.7321 13.2749 11.4028C14.3892 10.6655 15.9366 10.6655 19.0308 10.6655ZM19.0327 14.3999C16.8183 14.4001 15.0231 16.1952 15.0229 18.4097C15.0229 20.6243 16.8182 22.4202 19.0327 22.4204C21.2474 22.4204 23.0435 20.6244 23.0435 18.4097C23.0433 16.1951 21.2473 14.3999 19.0327 14.3999ZM19.0327 15.7563C20.498 15.7563 21.6859 16.9444 21.686 18.4097C21.686 19.8751 20.4981 21.063 19.0327 21.063C17.5674 21.0628 16.3794 19.875 16.3794 18.4097C16.3796 16.9445 17.5675 15.7565 19.0327 15.7563ZM23.1997 13.2573C22.6793 13.2573 22.2573 13.6793 22.2573 14.1997C22.2574 14.72 22.6794 15.1421 23.1997 15.1421C23.72 15.142 24.142 14.72 24.1421 14.1997C24.1421 13.6794 23.72 13.2574 23.1997 13.2573Z" fill="white"/>
</svg>
