<svg width="40" height="40" viewBox="0 0 40 40" fill="none" xmlns="http://www.w3.org/2000/svg">
<g clip-path="url(#clip0_296_2248)">
<path d="M0.289845 29.4908H3.58476V15.4644H0.289845V29.4908ZM1.9307 13.6249C2.96284 13.6249 3.77003 12.831 3.77003 11.8386C3.77003 10.8329 2.96284 10.0389 1.9307 10.0389C0.911795 10.0389 0.104614 10.8329 0.104614 11.8386C0.104614 12.831 0.911795 13.6249 1.9307 13.6249ZM14.555 10.0785C8.98422 10.0785 5.49065 13.8763 5.49065 19.9501C5.49065 26.024 8.98388 29.8085 14.555 29.8085C20.1126 29.8085 23.6062 26.024 23.6062 19.9501C23.6062 13.8763 20.1129 10.0785 14.555 10.0785ZM14.555 12.9897C17.9558 12.9897 20.1258 15.6892 20.1258 19.9501C20.1258 24.1977 17.9557 26.8972 14.555 26.8972C11.1411 26.8972 8.98422 24.1978 8.98422 19.9501C8.98422 15.6892 11.1411 12.9897 14.555 12.9897ZM24.9961 24.1184C25.1416 27.6384 28.0263 29.8085 32.4195 29.8085C37.0377 29.8085 39.949 27.5325 39.949 23.9067C39.949 21.0617 38.3081 19.4606 34.431 18.5741L32.2344 18.0712C29.8922 17.5155 28.9263 16.7744 28.9263 15.5041C28.9263 13.9162 30.3819 12.8576 32.5387 12.8576C34.7221 12.8576 36.2173 13.9295 36.3761 15.7158H39.6314C39.552 12.3548 36.7731 10.0786 32.5653 10.0786C28.4102 10.0786 25.4593 12.3679 25.4593 15.7555C25.4593 18.4814 27.1266 20.1752 30.6463 20.9824L33.1208 21.5647C35.5291 22.1337 36.5083 22.9276 36.5083 24.3038C36.5083 25.8917 34.9071 27.0297 32.6048 27.0297C30.2759 27.0297 28.5161 25.8785 28.3044 24.1185H24.9962L24.9961 24.1184Z" fill="#5A5A5A"/>
</g>
<defs>
<clipPath id="clip0_296_2248">
<rect width="40" height="40" fill="white"/>
</clipPath>
</defs>
</svg>
