<svg width="43" height="43" viewBox="0 0 43 43" fill="none" xmlns="http://www.w3.org/2000/svg">
<g clip-path="url(#clip0_1294_1039)">
<path d="M31.0455 0.825195H11.9545C5.62835 0.825195 0.5 5.95355 0.5 12.2797V31.3707C0.5 37.6968 5.62835 42.8252 11.9545 42.8252H31.0455C37.3716 42.8252 42.5 37.6968 42.5 31.3707V12.2797C42.5 5.95355 37.3716 0.825195 31.0455 0.825195Z" fill="#1167E8" fill-opacity="0.1"/>
<path d="M17.5312 24.0627C17.5312 24.6097 17.314 25.1343 16.9272 25.5211C16.5404 25.9079 16.0158 26.1252 15.4688 26.1252C14.9217 26.1252 14.3971 25.9079 14.0103 25.5211C13.6235 25.1343 13.4062 24.6097 13.4062 24.0627C13.4062 23.5157 13.6235 22.9911 14.0103 22.6043C14.3971 22.2175 14.9217 22.0002 15.4688 22.0002C16.0158 22.0002 16.5404 22.2175 16.9272 22.6043C17.314 22.9911 17.5312 23.5157 17.5312 24.0627ZM18.5625 30.0391V31.2815C18.5625 31.3726 18.5263 31.4601 18.4618 31.5245C18.3974 31.589 18.3099 31.6252 18.2188 31.6252H12.7188C12.6276 31.6252 12.5401 31.589 12.4757 31.5245C12.4112 31.4601 12.375 31.3726 12.375 31.2815V29.9065C12.375 29.4745 12.4655 29.0474 12.6405 28.6526C12.8156 28.2577 13.0713 27.9039 13.3914 27.6138C13.7114 27.3238 14.0886 27.1039 14.4987 26.9684C14.9089 26.833 15.3428 26.7848 15.7726 26.8271C17.3814 26.9805 18.5625 28.4235 18.5625 30.0391ZM30.5938 24.0627C30.5937 24.6097 30.3765 25.1343 29.9897 25.5211C29.6029 25.9079 29.0783 26.1252 28.5312 26.1252C27.9842 26.1252 27.4596 25.9079 27.0728 25.5211C26.686 25.1343 26.4688 24.6097 26.4688 24.0627C26.4688 23.5157 26.686 22.9911 27.0728 22.6043C27.4596 22.2175 27.9842 22.0002 28.5312 22.0002C29.0783 22.0002 29.6029 22.2175 29.9897 22.6043C30.3765 22.9911 30.5938 23.5157 30.5938 24.0627ZM31.625 30.0391V31.2815C31.625 31.3726 31.5888 31.4601 31.5243 31.5245C31.4599 31.589 31.3724 31.6252 31.2812 31.6252H25.7812C25.6901 31.6252 25.6026 31.589 25.5382 31.5245C25.4737 31.4601 25.4375 31.3726 25.4375 31.2815V29.9065C25.4375 29.4745 25.528 29.0474 25.703 28.6526C25.8781 28.2577 26.1338 27.9039 26.4539 27.6138C26.7739 27.3238 27.1511 27.1039 27.5612 26.9684C27.9714 26.833 28.4053 26.7848 28.8351 26.8271C30.4439 26.9805 31.625 28.4235 31.625 30.0391ZM27.3164 16.7443L26.1628 16.6178C26.1244 16.6134 26.0881 16.5983 26.058 16.574C26.028 16.5498 26.0054 16.5175 25.993 16.481C25.8203 15.9786 25.5523 15.5144 25.2037 15.1135C25.1783 15.0845 25.1617 15.0489 25.1557 15.0108C25.1497 14.9727 25.1547 14.9337 25.1701 14.8983L25.6376 13.8361C25.6581 13.7896 25.6606 13.7371 25.6448 13.6887C25.6289 13.6404 25.5957 13.5996 25.5516 13.5742L23.9484 12.6488C23.9044 12.6234 23.8526 12.6151 23.8028 12.6255C23.7531 12.6359 23.709 12.6643 23.6789 12.7052L22.99 13.6457C22.9672 13.6766 22.9361 13.7003 22.9003 13.714C22.8645 13.7278 22.8255 13.731 22.7879 13.7234C22.2662 13.6224 21.7302 13.6208 21.208 13.7186C21.1705 13.7261 21.1317 13.7228 21.096 13.709C21.0603 13.6952 21.0293 13.6716 21.0066 13.6409L20.3211 12.7052C20.291 12.6643 20.2469 12.6359 20.1972 12.6255C20.1474 12.6151 20.0956 12.6234 20.0516 12.6488L18.4484 13.5742C18.4044 13.5997 18.3713 13.6405 18.3554 13.6888C18.3396 13.7371 18.3421 13.7895 18.3624 13.8361L18.8299 14.8976C18.8451 14.9327 18.85 14.9714 18.844 15.0091C18.8381 15.0468 18.8215 15.0821 18.7963 15.1108C18.4504 15.5139 18.1838 15.9788 18.0104 16.481C17.9981 16.5172 17.9757 16.5493 17.9459 16.5734C17.9161 16.5975 17.8801 16.6126 17.842 16.6171L16.6836 16.7443C16.633 16.7499 16.5863 16.7739 16.5524 16.8119C16.5185 16.8498 16.4999 16.899 16.5 16.9498V18.8013C16.5 18.852 16.5188 18.901 16.5526 18.9388C16.5865 18.9766 16.6331 19.0006 16.6836 19.0061L17.8372 19.1326C17.9162 19.1416 17.9809 19.1945 18.007 19.2695C18.1797 19.7718 18.4477 20.236 18.7963 20.6369C18.8217 20.6659 18.8383 20.7015 18.8443 20.7396C18.8503 20.7777 18.8453 20.8167 18.8299 20.8521L18.3624 21.9143C18.3419 21.9608 18.3394 22.0134 18.3552 22.0617C18.3711 22.1101 18.4043 22.1508 18.4484 22.1762L20.0516 23.1016C20.0956 23.127 20.1474 23.1353 20.1972 23.1249C20.2469 23.1145 20.291 23.0861 20.3211 23.0452L21.01 22.1054C21.0328 22.0745 21.0639 22.0508 21.0997 22.0371C21.1355 22.0233 21.1745 22.0201 21.2121 22.0277C21.7338 22.1287 22.2698 22.1303 22.792 22.0325C22.8295 22.025 22.8683 22.0283 22.904 22.0421C22.9397 22.0559 22.9707 22.0795 22.9934 22.1102L23.6789 23.0459C23.709 23.0868 23.7531 23.1152 23.8028 23.1256C23.8526 23.136 23.9044 23.1277 23.9484 23.1023L25.5516 22.1769C25.5956 22.1514 25.6287 22.1106 25.6446 22.0623C25.6604 22.014 25.6579 21.9615 25.6376 21.915L25.1701 20.8535C25.1549 20.8184 25.15 20.7797 25.156 20.742C25.1619 20.7043 25.1785 20.669 25.2037 20.6403C25.5496 20.2372 25.8162 19.7723 25.9896 19.2701C26.0019 19.2339 26.0243 19.2018 26.0541 19.1777C26.0839 19.1536 26.1199 19.1385 26.158 19.134L27.3164 19.0075C27.367 19.0013 27.4136 18.9769 27.4474 18.9388C27.4812 18.9007 27.4999 18.8515 27.5 18.8006V16.9498C27.5001 16.899 27.4815 16.8498 27.4476 16.8119C27.4137 16.7739 27.367 16.7499 27.3164 16.7443ZM22 19.9377C21.453 19.9377 20.9284 19.7204 20.5416 19.3336C20.1548 18.9468 19.9375 18.4222 19.9375 17.8752C19.9375 17.3282 20.1548 16.8036 20.5416 16.4168C20.9284 16.03 21.453 15.8127 22 15.8127C22.547 15.8127 23.0716 16.03 23.4584 16.4168C23.8452 16.8036 24.0625 17.3282 24.0625 17.8752C24.0625 18.4222 23.8452 18.9468 23.4584 19.3336C23.0716 19.7204 22.547 19.9377 22 19.9377ZM25.4375 26.8127L23.6094 28.6408C23.5902 28.6599 23.5657 28.6729 23.539 28.6782C23.5123 28.6834 23.4847 28.6806 23.4596 28.6702C23.4346 28.6597 23.4131 28.6421 23.3981 28.6195C23.383 28.5969 23.375 28.5703 23.375 28.5431V27.5002H20.625V28.5431C20.6249 28.5703 20.6168 28.5967 20.6016 28.6192C20.5865 28.6417 20.5651 28.6593 20.54 28.6696C20.515 28.68 20.4874 28.6827 20.4608 28.6775C20.4342 28.6722 20.4098 28.6592 20.3906 28.6401L18.5625 26.8127L20.3906 24.9846C20.4098 24.9655 20.4343 24.9525 20.461 24.9472C20.4877 24.942 20.5153 24.9448 20.5404 24.9552C20.5654 24.9657 20.5869 24.9833 20.6019 25.0059C20.617 25.0285 20.625 25.0551 20.625 25.0823V26.1252H23.375V25.0823C23.3751 25.0552 23.3832 25.0287 23.3984 25.0062C23.4135 24.9837 23.4349 24.9661 23.46 24.9558C23.485 24.9454 23.5126 24.9427 23.5392 24.948C23.5658 24.9532 23.5902 24.9662 23.6094 24.9853L25.4375 26.8127Z" fill="#1C63FF"/>
</g>
<defs>
<clipPath id="clip0_1294_1039">
<rect width="43" height="43" fill="white"/>
</clipPath>
</defs>
</svg>
