<svg width="30" height="30" viewBox="0 0 30 30" fill="none" xmlns="http://www.w3.org/2000/svg">
<path d="M6.90891 9.76396C8.46977 9.76396 9.44153 8.73623 9.44153 7.45197C9.41255 6.13874 8.4701 5.13965 6.93854 5.13965C5.40731 5.13965 4.40625 6.13874 4.40625 7.45197C4.40625 8.73623 5.37768 9.76396 6.87993 9.76396H6.90891Z" fill="white"/>
<path d="M9.14834 24.9744V11.5918H4.67188V24.9744H9.14834Z" fill="white"/>
<path d="M11.6249 24.9739H16.1013V17.5005C16.1013 17.1004 16.1303 16.701 16.2485 16.4152C16.5722 15.616 17.3085 14.7885 18.5454 14.7885C20.1652 14.7885 20.8132 16.0157 20.8132 17.8147V24.9739H25.2891V17.3007C25.2891 13.19 23.0808 11.2775 20.1356 11.2775C17.7208 11.2775 16.6605 12.6187 16.0714 13.5322H16.1013V11.5913H11.6249C11.6835 12.8472 11.6249 24.9739 11.6249 24.9739Z" fill="white"/>
</svg>
