<svg width="36" height="36" viewBox="0 0 36 36" fill="none" xmlns="http://www.w3.org/2000/svg">
<g clip-path="url(#clip0_53_1949)">
<path d="M30.1193 0.778809H6.08562C3.24131 0.778809 0.935547 3.08458 0.935547 5.92888V29.9626C0.935547 32.8069 3.24131 35.1126 6.08562 35.1126H30.1193C32.9636 35.1126 35.2694 32.8069 35.2694 29.9626V5.92888C35.2694 3.08458 32.9636 0.778809 30.1193 0.778809Z" fill="#0077B5"/>
<path d="M10.4577 12.5141C11.828 12.5141 12.9389 11.4032 12.9389 10.0329C12.9389 8.66261 11.828 7.55176 10.4577 7.55176C9.08741 7.55176 7.97656 8.66261 7.97656 10.0329C7.97656 11.4032 9.08741 12.5141 10.4577 12.5141Z" fill="white"/>
<path d="M17.297 13.7876V27.0651V13.7876ZM10.457 13.7876V27.0651V13.7876Z" fill="white"/>
<path d="M17.297 13.7876V27.0651M10.457 13.7876V27.0651" stroke="white" stroke-width="4.42585"/>
<path d="M19.4434 19.6889C19.4434 18.3477 20.3151 17.0066 21.8575 17.0066C23.4669 17.0066 24.0704 18.2136 24.0704 20.0242V27.0653H28.4962V19.4877C28.4962 15.3972 26.3504 13.5195 23.3998 13.5195C21.1198 13.5195 19.9798 14.7936 19.4434 15.6654" fill="white"/>
</g>
<defs>
<clipPath id="clip0_53_1949">
<rect width="34.3338" height="34.3338" fill="white" transform="translate(0.935547 0.778809)"/>
</clipPath>
</defs>
</svg>
