<svg width="12" height="11" viewBox="0 0 12 11" fill="none" xmlns="http://www.w3.org/2000/svg">
<g clip-path="url(#clip0_79_10959)">
<path d="M0.121094 1.67931C0.121094 1.34261 0.244971 1.06483 0.492715 0.845982C0.74046 0.627124 1.06254 0.5177 1.45893 0.5177C1.84825 0.5177 2.16324 0.625437 2.40391 0.840932C2.65166 1.06315 2.77553 1.35271 2.77553 1.70962C2.77553 2.03285 2.6552 2.3022 2.41453 2.5177C2.16679 2.73992 1.84117 2.85103 1.4377 2.85103H1.42708C1.03776 2.85103 0.72277 2.73992 0.482098 2.5177C0.241425 2.29548 0.121094 2.01601 0.121094 1.67931ZM0.259125 10.5177V3.77022H2.61627V10.5177H0.259125ZM3.92225 10.5177H6.2794V6.75001C6.2794 6.51432 6.30771 6.3325 6.36434 6.20456C6.46343 5.9756 6.61385 5.78199 6.81559 5.62375C7.01733 5.4655 7.27038 5.38638 7.57476 5.38638C8.36756 5.38638 8.76395 5.89479 8.76395 6.91163V10.5177H11.1211V6.649C11.1211 5.65237 10.8734 4.89648 10.3779 4.38133C9.88235 3.86618 9.2276 3.6086 8.41356 3.6086C7.50044 3.6086 6.78905 3.98234 6.2794 4.72981V4.75002H6.26878L6.2794 4.72981V3.77022H3.92225C3.93641 3.9857 3.94349 4.65573 3.94349 5.78032C3.94349 6.90489 3.93641 8.48401 3.92225 10.5177Z" fill="white"/>
</g>
<defs>
<clipPath id="clip0_79_10959">
<rect width="11" height="10" fill="white" transform="translate(0.121094 0.517456)"/>
</clipPath>
</defs>
</svg>
