<svg width="38" height="37" viewBox="0 0 38 37" fill="none" xmlns="http://www.w3.org/2000/svg">
<rect x="0.841797" width="37.0074" height="37.0074" rx="18.5037" fill="white" fill-opacity="0.2"/>
<path d="M11.9038 12.7504C11.9038 12.2537 12.0783 11.8438 12.4272 11.521C12.7761 11.1981 13.2297 11.0366 13.7879 11.0366C14.3362 11.0366 14.7798 11.1956 15.1187 11.5135C15.4676 11.8414 15.6421 12.2686 15.6421 12.7952C15.6421 13.272 15.4726 13.6694 15.1337 13.9874C14.7848 14.3152 14.3262 14.4792 13.758 14.4792H13.743C13.1948 14.4792 12.7512 14.3152 12.4122 13.9874C12.0733 13.6595 11.9038 13.2472 11.9038 12.7504ZM12.0982 25.7904V15.8353H15.4178V25.7904H12.0982ZM17.257 25.7904H20.5767V20.2317C20.5767 19.8839 20.6165 19.6157 20.6963 19.4269C20.8358 19.0891 21.0477 18.8035 21.3318 18.57C21.6159 18.3365 21.9723 18.2198 22.4009 18.2198C23.5174 18.2198 24.0757 18.9699 24.0757 20.4701V25.7904H27.3953V20.0826C27.3953 18.6122 27.0464 17.497 26.3486 16.737C25.6508 15.9769 24.7287 15.5969 23.5822 15.5969C22.2963 15.5969 21.2944 16.1483 20.5767 17.2511V17.2809H20.5617L20.5767 17.2511V15.8353H17.257C17.277 16.1533 17.287 17.1418 17.287 18.801C17.287 20.4602 17.277 22.79 17.257 25.7904Z" fill="white"/>
</svg>
