<svg xmlns="http://www.w3.org/2000/svg" width="79" height="53" viewBox="0 0 79 53" fill="none"><path d="M8.53297 34.6044C8.53297 37.6209 9.19506 39.9368 10.0604 41.3379C11.1951 43.1731 12.8874 43.9505 14.6126 43.9505C16.8379 43.9505 18.8736 43.3983 22.7967 37.9725C25.9396 33.6236 29.6429 27.5192 32.1346 23.6923L36.3544 17.2088C39.2857 12.706 42.6786 7.70055 46.5687 4.30769C49.7445 1.53846 53.1703 0 56.6181 0C62.4066 0 67.9203 3.3544 72.1401 9.6456C76.7582 16.5357 79 25.2143 79 34.1703C79 39.4945 77.9506 43.4066 76.1648 46.4972C74.4396 49.4863 71.0769 52.4725 65.4203 52.4725V43.9505C70.2637 43.9505 71.4725 39.5 71.4725 34.4066C71.4725 27.1483 69.7802 19.0934 66.0522 13.3379C63.4066 9.25549 59.978 6.76099 56.206 6.76099C52.1264 6.76099 48.8434 9.83791 45.1538 15.3242C43.1923 18.239 41.1786 21.7912 38.9176 25.7994L36.4286 30.2088C31.4286 39.0742 30.1621 41.0934 27.6621 44.4258C23.2802 50.261 19.5385 52.4725 14.6126 52.4725C8.76923 52.4725 5.07418 49.9423 2.78571 46.1291C0.917583 43.022 0 38.9451 0 34.2994L8.53297 34.6044Z" fill="#0081FB"></path><path d="M6.72803 10.2473C10.6401 4.21703 16.2857 0 22.761 0C26.511 0 30.239 1.10989 34.1319 4.28846C38.3901 7.76374 42.9286 13.4863 48.5907 22.9176L50.6209 26.3022C55.522 34.467 58.3104 38.6676 59.9423 40.6483C62.0412 43.1923 63.511 43.9505 65.4203 43.9505C70.2637 43.9505 71.4725 39.5 71.4725 34.4066L79 34.1703C79 39.4945 77.9506 43.4066 76.1648 46.4972C74.4396 49.4863 71.0769 52.4725 65.4203 52.4725C61.9039 52.4725 58.7885 51.7088 55.3434 48.4588C52.6951 45.9643 49.5989 41.533 47.217 37.5494L40.1319 25.7143C36.5769 19.7747 33.3159 15.3462 31.4286 13.3407C29.3984 11.1841 26.7885 8.57967 22.6236 8.57967C19.2528 8.57967 16.3901 10.9451 13.9945 14.5632L6.72803 10.2473Z" fill="url(#paint0_linear_3_41)"></path><path d="M22.6236 8.57967C19.2527 8.57967 16.3901 10.9451 13.9945 14.5632C10.6071 19.6758 8.53297 27.2912 8.53297 34.6044C8.53297 37.6209 9.19505 39.9368 10.0604 41.3379L2.78571 46.1291C0.917582 43.022 0 38.9451 0 34.2994C0 25.8516 2.31868 17.0467 6.72802 10.2473C10.6401 4.21703 16.2857 0 22.761 0L22.6236 8.57967Z" fill="url(#paint1_linear_3_41)"></path><defs><linearGradient id="paint0_linear_3_41" x1="16.7582" y1="32.1429" x2="71.1539" y2="34.8901" gradientUnits="userSpaceOnUse"><stop stop-color="#0064E1"></stop><stop offset="0.4" stop-color="#0064E1"></stop><stop offset="0.83" stop-color="#0073EE"></stop><stop offset="1" stop-color="#0082FB"></stop></linearGradient><linearGradient id="paint1_linear_3_41" x1="12.3626" y1="38.1868" x2="12.3626" y2="18.1319" gradientUnits="userSpaceOnUse"><stop stop-color="#0082FB"></stop><stop offset="1" stop-color="#0064E0"></stop></linearGradient></defs></svg>