<svg xmlns="http://www.w3.org/2000/svg" width="54" height="55" viewBox="0 0 54 55" fill="none"><path d="M24.2393 0.500977C28.0697 0.478446 31.7263 2.07642 34.3223 4.89551C40.0892 3.77711 45.9399 6.45962 48.875 11.5957L49.0566 11.917C50.8381 15.1737 51.2271 19.0211 50.1328 22.5732C53.9768 27.0342 54.5959 33.4672 51.6426 38.5928C49.7465 41.9397 46.5396 44.3244 42.8115 45.1748C40.8909 50.755 35.657 54.5126 29.7617 54.499C29.7604 54.499 29.7591 54.5 29.7578 54.5V54.499C25.9272 54.5229 22.2692 52.9242 19.6748 50.1045C13.9082 51.2225 8.05807 48.542 5.12305 43.4062L4.94141 43.085C3.15914 39.8269 2.76937 35.9772 3.86523 32.4238C0.020838 27.9626 -0.595911 21.5253 2.36035 16.4004C4.25632 13.0537 7.46271 10.6679 11.1904 9.81738C13.1113 4.24242 18.3448 0.489054 24.2363 0.500977V0.5C24.2376 0.499992 24.2389 0.500008 24.2402 0.5L24.2393 0.500977ZM35.6084 40.46L35.6045 40.6094C35.5589 41.3515 35.1449 42.0274 34.4932 42.3994L24.3359 48.2979C25.9161 49.4276 27.8113 50.0389 29.7617 50.0361L30.2432 50.0234C35.1888 49.7612 39.1226 45.6469 39.1289 40.6035V28.4971L35.6084 26.4521V40.46ZM20.1484 41.4795L20.1494 41.4805C19.4598 41.885 18.6067 41.8858 17.918 41.4805V41.4795L7.7627 35.582C7.58336 37.4886 7.98815 39.4114 8.93066 41.0879L8.97949 41.1729C11.5744 45.6791 17.3021 47.2214 21.7861 44.625L32.207 38.5723V34.4775L20.1484 41.4795ZM30.4053 19.4727L42.3564 26.4131L42.4727 26.4795C43.1614 26.8772 43.5839 27.6158 43.5791 28.4131V40.2188C45.3369 39.4066 46.8099 38.0651 47.7842 36.3682L48.0146 35.9414C50.2771 31.4977 48.6967 26.0018 44.3525 23.4775L33.9307 17.4258L30.4053 19.4727ZM10.417 14.7812C8.65973 15.5924 7.18875 16.9349 6.2168 18.6328L6.20312 18.6562C3.6386 23.1661 5.17803 28.9145 9.64746 31.5176L20.0684 37.5723L23.5938 35.5254L11.5303 28.5215L11.4033 28.4424C10.786 28.031 10.413 27.3321 10.417 26.584V14.7812ZM21.793 24.4756V30.5254L26.999 33.5469L32.2051 30.5254V24.4736L26.999 21.4521L21.793 24.4756ZM24.2432 4.96484C19.0678 4.96193 14.8645 9.1815 14.8613 14.3936V26.499L18.3838 28.543L18.3896 14.5371C18.3863 13.7379 18.8111 12.9986 19.5049 12.6025L29.6592 6.70312C28.0801 5.57762 26.1901 4.9649 24.2441 4.96484H24.2432ZM45.0205 13.8379C42.4337 9.32373 36.6987 7.77657 32.2148 10.3779L21.7939 16.4248V20.5205L33.8545 13.5166C34.5427 13.1139 35.3926 13.1135 36.0801 13.5166L46.2334 19.4141C46.4104 17.4801 45.9908 15.5311 45.0205 13.8389V13.8379Z" fill="white" stroke="black"></path></svg>