<svg xmlns="http://www.w3.org/2000/svg" width="46" height="52" viewBox="0 0 46 52" fill="none"><path fill-rule="evenodd" clip-rule="evenodd" d="M19.4969 16.8374L16.9753 26.1169L31.4038 16.7852L21.9681 51.9912L31.5501 52L45.4892 0L19.4969 16.8374Z" fill="#3395FF"></path><path d="M25.9375 26.4698C25.184 29.2929 24.1791 33.0563 23.1748 36.8194C22.1705 40.5825 21.1663 44.346 20.4131 47.168C20.0366 48.5787 19.7226 49.7542 19.5029 50.5772C19.3984 50.9687 19.3153 51.2808 19.2568 51.5001H0.652344L4.39941 37.5147C4.42995 37.495 4.46515 37.4733 4.50391 37.4483C4.67751 37.3362 4.93277 37.1712 5.25684 36.962L7.94141 35.2286C10.1636 33.7937 13.1266 31.8802 16.0898 29.9669C19.0531 28.0535 22.0171 26.1406 24.2402 24.7051C25.3139 24.0119 26.2145 23.4292 26.8594 23.0128C26.6392 23.8376 26.3215 25.0312 25.9375 26.4698Z" fill="white" stroke="black"></path></svg>