<svg width="130" height="130" viewBox="0 0 130 130" fill="none" xmlns="http://www.w3.org/2000/svg">
<path d="M130 65C130 29.1015 100.899 0 65 0C29.1015 0 0 29.1015 0 65C0 100.899 29.1015 130 65 130C100.899 130 130 100.899 130 65Z" fill="white"/>
<mask id="mask0_1_3" style="mask-type:luminance" maskUnits="userSpaceOnUse" x="22" y="22" width="85" height="86">
<path d="M88.0612 22.3838H41.311C30.8518 22.3838 22.373 30.8626 22.373 41.3218V88.4669C22.373 98.9261 30.8518 107.405 41.311 107.405H88.0612C98.5204 107.405 106.999 98.9261 106.999 88.4669V41.3218C106.999 30.8626 98.5204 22.3838 88.0612 22.3838Z" fill="white"/>
</mask>
<g mask="url(#mask0_1_3)">
<path d="M29.0977 58.8104C29.3764 58.973 29.601 59.1821 29.7791 59.4454C29.9572 59.7087 30.0811 60.0107 30.1508 60.3592C30.2205 60.7077 30.2438 61.0871 30.205 61.4975C30.1508 62.0706 29.996 62.6282 29.7481 63.1625C29.5003 63.6968 29.1441 64.177 28.695 64.5874L27.6108 63.4955C27.9206 63.178 28.1839 62.845 28.3775 62.4965C28.5788 62.148 28.695 61.7608 28.7337 61.3272C28.7647 60.9787 28.7337 60.7077 28.6175 60.5063C28.5091 60.305 28.3465 60.1888 28.1219 60.1733H28.0987C27.9903 60.1578 27.8896 60.1733 27.8044 60.2043C27.7192 60.2353 27.634 60.305 27.5489 60.4134C27.4637 60.5218 27.3785 60.6689 27.2856 60.8548C27.1926 61.0484 27.092 61.2962 26.9835 61.606C26.8519 61.9777 26.7203 62.3184 26.5731 62.6127C26.426 62.9147 26.2634 63.1625 26.0698 63.3638C25.8839 63.5652 25.6516 63.7123 25.3883 63.8052C25.125 63.8982 24.8075 63.9291 24.4358 63.8982H24.4125C24.0641 63.8672 23.7621 63.7665 23.4988 63.6116C23.2355 63.4568 23.0109 63.2554 22.8328 62.9999C22.6547 62.7443 22.523 62.4578 22.4456 62.1248C22.3681 61.7918 22.3449 61.4278 22.3836 61.0406C22.4378 60.4831 22.5695 59.9875 22.7786 59.5383C22.9877 59.0892 23.2664 58.6865 23.6072 58.3225L24.7765 59.306C24.5132 59.6235 24.3041 59.9333 24.1415 60.2508C23.9789 60.5605 23.8782 60.878 23.8472 61.2033C23.8163 61.5285 23.855 61.7763 23.9711 61.9467C24.0796 62.1171 24.2344 62.2177 24.4203 62.2332H24.4435C24.5674 62.2487 24.6758 62.2332 24.7688 62.1945C24.8617 62.1558 24.9546 62.0783 25.0321 61.9622C25.1173 61.846 25.2024 61.6834 25.2876 61.4743C25.3728 61.2652 25.4735 61.0097 25.5896 60.6922C25.729 60.3205 25.8684 59.9875 26.0233 59.7009C26.1782 59.4144 26.3485 59.1743 26.5499 58.9885C26.7435 58.8026 26.9681 58.6632 27.2159 58.5781C27.4637 58.4929 27.7502 58.4696 28.0832 58.5006H28.1064C28.4781 58.5393 28.8034 58.64 29.0822 58.8026L29.0977 58.8104Z" fill="#B4B4B4"/>
<path d="M32.17 50.5293C32.2552 50.7849 32.3172 51.0482 32.3481 51.3192C32.3791 51.5902 32.3791 51.8845 32.3404 52.1788C32.3017 52.4808 32.2242 52.806 32.1003 53.1545C31.9222 53.6811 31.6512 54.138 31.3104 54.5175C30.962 54.9047 30.567 55.1989 30.1256 55.4158C29.6842 55.6326 29.2041 55.7487 28.6852 55.7797C28.1664 55.8107 27.6553 55.7333 27.1442 55.5551H27.1209C26.6098 55.3693 26.1607 55.1137 25.7735 54.773C25.3863 54.4323 25.0843 54.0451 24.8597 53.5959C24.6351 53.1545 24.5035 52.6666 24.4648 52.1401C24.426 51.6135 24.5035 51.0791 24.6971 50.5216C24.8132 50.1886 24.9449 49.8943 25.0998 49.631C25.2469 49.3755 25.4095 49.1509 25.5876 48.9573C25.758 48.7637 25.9516 48.5933 26.1529 48.4539C26.3543 48.3068 26.5711 48.1829 26.788 48.0745L27.6011 49.4761C27.2526 49.6697 26.9583 49.8866 26.7105 50.1266C26.4704 50.3667 26.2846 50.6687 26.1607 51.0327C26.06 51.3347 26.0213 51.629 26.0445 51.931C26.0755 52.2252 26.1529 52.504 26.3001 52.7596C26.4395 53.0151 26.6253 53.2397 26.8654 53.4333C27.0977 53.6269 27.3687 53.7818 27.6785 53.8824H27.7017C28.0115 53.9986 28.3135 54.0451 28.6233 54.0373C28.933 54.0296 29.2196 53.9676 29.4906 53.8592C29.7616 53.7508 29.994 53.5882 30.203 53.3713C30.4121 53.1545 30.567 52.899 30.6754 52.5892C30.8148 52.1788 30.8613 51.8071 30.8071 51.4741C30.7529 51.1411 30.6445 50.7849 30.4818 50.4131L31.8448 49.7627C31.9764 50.0182 32.0926 50.266 32.1778 50.5216L32.17 50.5293Z" fill="#B4B4B4"/>
<path d="M36.5368 44.4407L33.6173 44.4639L32.8971 45.5558L34.926 46.8955L34.0045 48.2895L27.6699 44.1154L29.5827 41.2192C30.0783 40.468 30.6514 39.9957 31.2941 39.8253C31.9369 39.6472 32.5873 39.7788 33.2456 40.2125L33.2611 40.228C33.7722 40.5687 34.1129 40.9637 34.2678 41.4283C34.4227 41.8929 34.4459 42.3731 34.3297 42.8764L37.6132 42.8222L36.5368 44.4484V44.4407ZM32.3783 41.6606C32.0762 41.4593 31.7897 41.4128 31.5109 41.5057C31.2322 41.5987 30.9766 41.8155 30.752 42.164L29.8382 43.5501L31.6581 44.7505L32.5873 43.3411C32.8119 43.0003 32.9049 42.6828 32.8661 42.3885C32.8274 42.0943 32.6648 41.862 32.3937 41.6838L32.3783 41.6684V41.6606Z" fill="#B4B4B4"/>
<path d="M43.036 34.597C43.199 35.0849 43.261 35.5805 43.23 36.0916C43.199 36.595 43.067 37.0906 42.827 37.5707C42.595 38.0508 42.254 38.4845 41.813 38.8717C41.371 39.2589 40.899 39.5377 40.396 39.708C39.8922 39.8784 39.3888 39.9481 38.8855 39.9249C38.3821 39.9016 37.902 39.77 37.4451 39.5454C36.9882 39.3208 36.57 39.0033 36.2138 38.6007L36.1983 38.5852C35.8421 38.1747 35.5788 37.7333 35.4162 37.2377C35.2535 36.7421 35.1916 36.2542 35.2226 35.7431C35.2535 35.2398 35.3852 34.7442 35.6252 34.264C35.8576 33.7839 36.1983 33.3502 36.6397 32.963C37.0811 32.5758 37.5535 32.2971 38.0568 32.1267C38.5602 31.9563 39.0636 31.8866 39.5669 31.9099C40.07 31.9331 40.55 32.0647 41.007 32.2893C41.472 32.5139 41.882 32.8314 42.239 33.2341L42.254 33.2496C42.61 33.66 42.874 34.1014 43.036 34.597ZM40.945 34.4034C40.729 34.1556 40.488 33.9698 40.21 33.8226C39.9309 33.6755 39.6444 33.598 39.3501 33.5671C39.0558 33.5438 38.7538 33.5671 38.4595 33.6677C38.1653 33.7607 37.8942 33.9155 37.6464 34.1324C37.3909 34.357 37.1973 34.6048 37.0734 34.8835C36.9495 35.1623 36.8798 35.4411 36.872 35.7354C36.872 36.0297 36.9185 36.3239 37.0192 36.6105C37.1198 36.897 37.2824 37.168 37.4993 37.4081L37.5148 37.4236C37.7316 37.6636 37.9717 37.8572 38.2504 38.0044C38.5292 38.1438 38.8158 38.2289 39.11 38.2599C39.4043 38.2831 39.7063 38.2599 39.9928 38.167C40.287 38.0818 40.558 37.9192 40.814 37.6946C41.062 37.4778 41.255 37.2222 41.387 36.9512C41.518 36.6724 41.588 36.3859 41.588 36.0916C41.588 35.7973 41.542 35.5031 41.441 35.2165C41.333 34.93 41.178 34.659 40.961 34.4189L40.945 34.4034Z" fill="#B4B4B4"/>
<path d="M46.776 34.9796L43.33 28.2191L44.817 27.4602L47.582 32.881L50.95 31.1618L51.632 32.5015L46.776 34.9796Z" fill="#B4B4B4"/>
<path d="M53.643 31.8087L51.738 24.4597L53.357 24.0415L54.882 29.9269L58.545 28.9822L58.925 30.438L53.643 31.8087Z" fill="#B4B4B4"/>
<path d="M72.203 28.3701C71.955 28.8115 71.637 29.1755 71.25 29.4775C70.863 29.7795 70.406 29.9964 69.895 30.1358C69.384 30.2751 68.826 30.3139 68.238 30.2519L65.295 29.9267L66.124 22.384L69.066 22.7093C69.655 22.7712 70.189 22.9261 70.654 23.1739C71.126 23.4217 71.521 23.7315 71.839 24.1032C72.156 24.4749 72.388 24.9086 72.536 25.381C72.683 25.8533 72.721 26.3644 72.667 26.891V26.9143C72.605 27.4486 72.458 27.9287 72.21 28.3701H72.203ZM70.925 26.7284C70.964 26.3954 70.94 26.0857 70.855 25.7914C70.778 25.4971 70.646 25.2416 70.468 25.017C70.29 24.7924 70.073 24.6143 69.802 24.4672C69.531 24.3278 69.229 24.2348 68.896 24.1961L67.61 24.0567L67.115 28.6024L68.4 28.7418C68.741 28.7806 69.051 28.7573 69.345 28.6799C69.639 28.6024 69.895 28.4708 70.112 28.2927C70.329 28.1146 70.514 27.89 70.654 27.6344C70.793 27.3789 70.886 27.0769 70.925 26.7361V26.7129V26.7284Z" fill="#B4B4B4"/>
<path d="M82.179 31.927C81.815 32.291 81.397 32.5698 80.932 32.7634C80.468 32.9569 79.964 33.0576 79.43 33.0654C78.896 33.0654 78.353 32.9647 77.811 32.7401C77.269 32.5155 76.812 32.2213 76.433 31.8496C76.053 31.4701 75.767 31.0597 75.566 30.595C75.364 30.1381 75.264 29.6503 75.256 29.1392C75.256 28.6281 75.349 28.117 75.55 27.6136V27.5904C75.759 27.087 76.046 26.6534 76.41 26.2894C76.774 25.9254 77.192 25.6466 77.656 25.453C78.121 25.2594 78.624 25.1588 79.159 25.151C79.693 25.1433 80.235 25.2517 80.777 25.4763C81.319 25.6931 81.776 25.9951 82.156 26.3668C82.535 26.7385 82.822 27.1567 83.023 27.6214C83.224 28.086 83.325 28.5661 83.333 29.0772C83.333 29.5883 83.24 30.0994 83.039 30.6028V30.626C82.829 31.1294 82.543 31.563 82.179 31.927ZM81.412 29.9755C81.536 29.6735 81.598 29.3715 81.606 29.0617C81.606 28.752 81.559 28.4577 81.451 28.1789C81.343 27.9001 81.18 27.6523 80.963 27.4278C80.746 27.2032 80.491 27.0328 80.181 26.9089C79.864 26.7773 79.554 26.723 79.252 26.7308C78.95 26.7385 78.663 26.8082 78.4 26.9321C78.137 27.056 77.897 27.2342 77.687 27.451C77.478 27.6756 77.308 27.9389 77.184 28.2331V28.2564C77.052 28.5584 76.991 28.8604 76.983 29.1701C76.983 29.4799 77.029 29.7742 77.138 30.053C77.246 30.3317 77.409 30.5795 77.618 30.8041C77.827 31.0287 78.09 31.1991 78.408 31.3307C78.717 31.4546 79.027 31.5166 79.329 31.5088C79.631 31.5011 79.925 31.4314 80.189 31.3075C80.452 31.1836 80.692 31.0055 80.901 30.7886C81.11 30.5641 81.281 30.3008 81.405 30.0065V29.9833L81.412 29.9755Z" fill="#B4B4B4"/>
<path d="M89.876 40.6406L88.776 39.688L90.72 34.8093L86.182 37.45L85.082 36.4975L88.11 29.0168L89.465 30.1862L87.297 35.1036L91.959 32.308L93.043 33.2451L90.96 38.2632L95.505 35.3979L96.83 36.5362L89.876 40.6328V40.6406Z" fill="#B4B4B4"/>
<path d="M95.61 48.5863L97.833 42.9409L93.705 45.4345L92.854 44.0251L99.343 40.0989L100.141 41.4154L97.98 46.8749L101.976 44.4587L102.828 45.8681L96.338 49.7943L95.603 48.5785L95.61 48.5863Z" fill="#B4B4B4"/>
<path d="M102.362 58.9875C102.153 58.941 101.959 58.8636 101.789 58.7474C101.618 58.6312 101.471 58.4919 101.347 58.3137C101.231 58.1356 101.146 57.942 101.107 57.7175C101.061 57.5006 101.061 57.2838 101.107 57.0747C101.154 56.8656 101.231 56.6798 101.347 56.5016C101.463 56.3235 101.61 56.1841 101.789 56.0602C101.967 55.9441 102.16 55.8589 102.385 55.8124C102.602 55.766 102.819 55.766 103.028 55.8124C103.237 55.8589 103.423 55.9363 103.593 56.0525C103.763 56.1687 103.91 56.3158 104.034 56.4939C104.158 56.672 104.243 56.8656 104.282 57.0824C104.329 57.2993 104.321 57.5161 104.282 57.7252C104.243 57.9343 104.15 58.1201 104.042 58.2905C103.926 58.4609 103.787 58.608 103.608 58.7319C103.43 58.8558 103.237 58.941 103.02 58.9797C102.803 59.0184 102.586 59.0184 102.377 58.9797L102.362 58.9875Z" fill="#B4B4B4"/>
<path d="M100.203 72.31C99.932 72.139 99.707 71.915 99.544 71.651C99.382 71.38 99.266 71.078 99.204 70.722C99.142 70.374 99.142 69.994 99.196 69.584C99.273 69.011 99.444 68.461 99.707 67.934C99.97 67.408 100.342 66.943 100.807 66.548L101.852 67.679C101.527 67.988 101.264 68.314 101.047 68.654C100.838 68.995 100.698 69.382 100.644 69.808C100.598 70.157 100.629 70.428 100.729 70.637C100.83 70.846 100.993 70.962 101.217 70.993H101.24C101.349 71.009 101.442 71.001 101.535 70.97C101.62 70.939 101.713 70.877 101.798 70.776C101.883 70.676 101.976 70.529 102.069 70.343C102.17 70.157 102.278 69.909 102.394 69.599C102.534 69.228 102.689 68.902 102.843 68.6C102.998 68.306 103.176 68.066 103.37 67.872C103.564 67.679 103.796 67.539 104.067 67.454C104.338 67.369 104.655 67.346 105.027 67.4H105.05C105.391 67.446 105.693 67.555 105.956 67.717C106.212 67.88 106.429 68.089 106.599 68.352C106.77 68.608 106.886 68.902 106.955 69.243C107.017 69.576 107.033 69.94 106.979 70.327C106.909 70.877 106.762 71.373 106.537 71.814C106.313 72.255 106.018 72.65 105.662 72.999L104.524 71.977C104.795 71.667 105.019 71.365 105.198 71.055C105.376 70.753 105.476 70.436 105.523 70.11C105.562 69.785 105.531 69.537 105.43 69.359C105.329 69.181 105.182 69.08 104.996 69.057H104.973C104.849 69.042 104.741 69.049 104.648 69.08C104.555 69.111 104.462 69.189 104.377 69.305C104.292 69.413 104.199 69.576 104.106 69.777C104.013 69.979 103.904 70.242 103.773 70.552C103.626 70.923 103.463 71.241 103.3 71.527C103.138 71.806 102.952 72.039 102.75 72.224C102.549 72.41 102.325 72.534 102.069 72.612C101.813 72.689 101.527 72.705 101.202 72.658H101.178C100.807 72.604 100.481 72.495 100.21 72.325L100.203 72.31Z" fill="#B4B4B4"/>
<path d="M96.845 80.478C96.768 80.222 96.714 79.959 96.69 79.68C96.667 79.401 96.683 79.115 96.729 78.821C96.776 78.519 96.868 78.201 97 77.853C97.201 77.334 97.48 76.885 97.844 76.513C98.208 76.141 98.611 75.855 99.06 75.661C99.509 75.46 99.997 75.359 100.508 75.351C101.019 75.344 101.53 75.436 102.041 75.63H102.065C102.568 75.831 103.009 76.11 103.381 76.459C103.753 76.815 104.039 77.21 104.248 77.667C104.458 78.116 104.574 78.611 104.589 79.138C104.605 79.665 104.512 80.199 104.303 80.749C104.179 81.082 104.032 81.368 103.869 81.624C103.706 81.879 103.536 82.096 103.358 82.282C103.18 82.468 102.986 82.631 102.777 82.762C102.568 82.902 102.351 83.018 102.127 83.118L101.368 81.686C101.724 81.508 102.026 81.299 102.282 81.066C102.537 80.834 102.731 80.54 102.87 80.184C102.986 79.889 103.033 79.587 103.017 79.293C103.002 78.999 102.924 78.72 102.793 78.457C102.661 78.193 102.483 77.961 102.251 77.76C102.018 77.558 101.755 77.396 101.453 77.28H101.43C101.128 77.156 100.818 77.094 100.508 77.094C100.198 77.094 99.912 77.14 99.641 77.241C99.37 77.341 99.13 77.496 98.913 77.705C98.696 77.915 98.533 78.17 98.417 78.472C98.262 78.875 98.2 79.246 98.247 79.587C98.293 79.928 98.386 80.284 98.533 80.656L97.147 81.26C97.023 81.004 96.923 80.749 96.837 80.493L96.845 80.478Z" fill="#B4B4B4"/>
<path d="M92.265 86.405L95.185 86.49L95.944 85.421L93.961 84.012L94.929 82.649L101.117 87.047L99.103 89.874C98.577 90.609 97.996 91.059 97.345 91.206C96.695 91.361 96.052 91.206 95.409 90.749L95.394 90.733C94.891 90.377 94.573 89.967 94.434 89.494C94.294 89.03 94.287 88.542 94.418 88.046L91.135 87.984L92.265 86.397V86.405ZM96.323 89.332C96.618 89.541 96.904 89.603 97.191 89.518C97.477 89.432 97.733 89.223 97.973 88.89L98.933 87.535L97.16 86.273L96.176 87.651C95.936 87.984 95.835 88.302 95.866 88.596C95.897 88.89 96.044 89.13 96.308 89.316L96.323 89.332Z" fill="#B4B4B4"/>
<path d="M85.403 96.011C85.256 95.515 85.21 95.019 85.264 94.516C85.311 94.013 85.465 93.525 85.713 93.052C85.969 92.58 86.317 92.154 86.766 91.79C87.216 91.418 87.703 91.155 88.215 91C88.726 90.845 89.229 90.791 89.732 90.838C90.228 90.884 90.708 91.023 91.165 91.264C91.622 91.504 92.017 91.829 92.358 92.255L92.373 92.27C92.714 92.688 92.962 93.145 93.101 93.641C93.248 94.137 93.295 94.632 93.24 95.136C93.194 95.639 93.039 96.127 92.791 96.599C92.536 97.072 92.187 97.497 91.73 97.861C91.281 98.233 90.793 98.496 90.282 98.651C89.771 98.806 89.268 98.86 88.764 98.814C88.269 98.767 87.789 98.628 87.332 98.388C86.875 98.148 86.48 97.823 86.139 97.397L86.124 97.381C85.783 96.963 85.535 96.506 85.396 96.011H85.403ZM87.487 96.274C87.696 96.522 87.928 96.723 88.199 96.878C88.47 97.033 88.749 97.126 89.051 97.164C89.345 97.203 89.647 97.18 89.941 97.102C90.236 97.017 90.514 96.878 90.778 96.661C91.041 96.444 91.242 96.204 91.374 95.933C91.513 95.662 91.591 95.383 91.606 95.089C91.622 94.795 91.583 94.501 91.49 94.214C91.397 93.92 91.242 93.649 91.041 93.401L91.026 93.385C90.817 93.138 90.584 92.936 90.313 92.781C90.042 92.626 89.763 92.534 89.461 92.495C89.167 92.456 88.865 92.479 88.571 92.557C88.276 92.634 87.998 92.781 87.734 92.998C87.479 93.207 87.278 93.447 87.138 93.726C86.999 93.997 86.921 94.284 86.906 94.578C86.89 94.872 86.929 95.166 87.022 95.453C87.115 95.74 87.27 96.018 87.471 96.266L87.487 96.282V96.274Z" fill="#B4B4B4"/>
<path d="M81.679 95.507L84.885 102.384L83.375 103.088L80.804 97.575L77.373 99.17L76.738 97.807L81.679 95.507Z" fill="#B4B4B4"/>
<path d="M74.701 98.432L76.335 105.843L74.709 106.199L73.4 100.259L69.706 101.073L69.381 99.601L74.709 98.424L74.701 98.432Z" fill="#B4B4B4"/>
<path d="M56.03 101.207C56.293 100.774 56.618 100.417 57.021 100.139C57.424 99.852 57.881 99.651 58.399 99.527C58.918 99.403 59.468 99.387 60.057 99.473L62.984 99.899L61.892 107.41L58.965 106.984C58.376 106.899 57.857 106.729 57.393 106.465C56.928 106.202 56.549 105.877 56.239 105.49C55.937 105.103 55.72 104.669 55.588 104.189C55.465 103.709 55.434 103.198 55.511 102.671V102.648C55.588 102.121 55.759 101.641 56.022 101.207H56.03ZM57.253 102.896C57.207 103.221 57.215 103.538 57.284 103.833C57.354 104.127 57.47 104.39 57.641 104.615C57.811 104.847 58.02 105.033 58.283 105.188C58.547 105.343 58.849 105.443 59.182 105.49L60.459 105.676L61.118 101.145L59.84 100.96C59.507 100.913 59.189 100.921 58.895 100.983C58.601 101.052 58.338 101.169 58.113 101.339C57.888 101.509 57.703 101.726 57.548 101.982C57.393 102.237 57.3 102.532 57.246 102.872V102.896H57.253Z" fill="#B4B4B4"/>
<path d="M46.215 97.302C46.595 96.954 47.021 96.691 47.493 96.505C47.965 96.327 48.469 96.241 49.003 96.257C49.537 96.272 50.072 96.396 50.606 96.636C51.14 96.876 51.59 97.186 51.954 97.581C52.318 97.976 52.589 98.394 52.774 98.867C52.96 99.331 53.045 99.819 53.03 100.338C53.015 100.849 52.898 101.352 52.682 101.848V101.871C52.449 102.367 52.155 102.785 51.775 103.134C51.396 103.482 50.97 103.745 50.498 103.931C50.025 104.109 49.522 104.194 48.988 104.179C48.453 104.164 47.919 104.04 47.385 103.8C46.85 103.559 46.401 103.25 46.037 102.855C45.673 102.46 45.402 102.042 45.216 101.569C45.03 101.105 44.945 100.617 44.961 100.098C44.976 99.587 45.092 99.083 45.309 98.588V98.565C45.542 98.069 45.836 97.651 46.215 97.295V97.302ZM46.912 99.285C46.781 99.579 46.703 99.889 46.688 100.191C46.672 100.501 46.711 100.795 46.812 101.081C46.912 101.368 47.067 101.623 47.268 101.848C47.478 102.08 47.725 102.258 48.035 102.398C48.345 102.537 48.655 102.607 48.957 102.607C49.259 102.607 49.545 102.553 49.816 102.437C50.087 102.32 50.327 102.15 50.552 101.941C50.769 101.724 50.947 101.469 51.079 101.174V101.151C51.218 100.857 51.295 100.555 51.311 100.245C51.326 99.935 51.288 99.641 51.187 99.355C51.086 99.076 50.939 98.82 50.738 98.588C50.536 98.363 50.281 98.177 49.971 98.038C49.669 97.906 49.359 97.837 49.057 97.829C48.755 97.821 48.461 97.883 48.19 97.999C47.919 98.115 47.679 98.278 47.454 98.495C47.238 98.712 47.059 98.967 46.928 99.262V99.285H46.912Z" fill="#B4B4B4"/>
<path d="M38.8259 88.337L39.8946 89.32L37.7805 94.129L42.411 91.644L43.48 92.627L40.197 99.999L38.8801 98.784L41.211 93.944L36.4562 96.577L35.4031 95.609L37.6566 90.668L33.0102 93.37L31.7324 92.186L38.8259 88.337Z" fill="#B4B4B4"/>
<path d="M33.3707 80.191L30.9469 85.752L35.1596 83.397L35.965 84.838L29.3361 88.539L28.5849 87.192L30.9314 81.81L26.8503 84.087L26.0449 82.646L32.6738 78.945L33.363 80.184L33.3707 80.191Z" fill="#B4B4B4"/>
<path d="M26.9786 69.543C27.1877 69.597 27.3735 69.682 27.5439 69.806C27.7143 69.922 27.8536 70.077 27.9698 70.255C28.086 70.433 28.1557 70.635 28.1944 70.859C28.2331 71.084 28.2254 71.293 28.1711 71.502C28.1169 71.711 28.0318 71.897 27.9079 72.067C27.7839 72.238 27.6368 72.377 27.451 72.493C27.2728 72.609 27.0715 72.679 26.8469 72.718C26.6224 72.756 26.4133 72.749 26.2042 72.694C25.9951 72.64 25.8092 72.555 25.6466 72.431C25.484 72.307 25.3369 72.16 25.2207 71.974C25.1045 71.796 25.0271 71.595 24.9961 71.378C24.9574 71.153 24.9729 70.944 25.0271 70.735C25.0813 70.526 25.1665 70.34 25.2904 70.178C25.4143 70.015 25.5614 69.868 25.7395 69.752C25.9177 69.636 26.119 69.558 26.3436 69.527C26.5681 69.496 26.7772 69.504 26.9863 69.558L26.9786 69.543Z" fill="#B4B4B4"/>
</g>
<path opacity="0.4" d="M65.417 118.5C94.7341 118.5 118.5 94.7334 118.5 65.4163C118.5 36.0992 94.7341 12.333 65.417 12.333C36.0999 12.333 12.3337 36.0992 12.3337 65.4163C12.3337 94.7334 36.0999 118.5 65.417 118.5Z" stroke="#02E583"/>
</svg>
