<svg width="979" height="490" viewBox="0 0 979 490" fill="none" xmlns="http://www.w3.org/2000/svg">
<g clip-path="url(#clip0_612_2278)">
<mask id="mask0_612_2278" style="mask-type:luminance" maskUnits="userSpaceOnUse" x="445" y="445" width="89" height="45">
<path d="M533.144 489.534C533.144 477.959 528.546 466.858 520.361 458.673C512.176 450.488 501.075 445.89 489.5 445.89C477.925 445.89 466.823 450.488 458.639 458.673C450.454 466.858 445.855 477.959 445.855 489.534H489.5H533.144Z" fill="white"/>
</mask>
<g mask="url(#mask0_612_2278)">
<path d="M533.144 489.534C533.144 477.959 528.546 466.858 520.361 458.673C512.176 450.488 501.075 445.89 489.5 445.89C477.925 445.89 466.823 450.488 458.639 458.673C450.454 466.858 445.855 477.959 445.855 489.534H489.5H533.144Z" stroke="#EDF0FE" stroke-width="3.42308"/>
</g>
<mask id="mask1_612_2278" style="mask-type:luminance" maskUnits="userSpaceOnUse" x="397" y="397" width="185" height="93">
<path d="M581.067 489.534C581.067 465.249 571.42 441.958 554.248 424.786C537.076 407.614 513.785 397.967 489.5 397.967C465.215 397.967 441.924 407.614 424.752 424.786C407.58 441.958 397.933 465.249 397.933 489.534H489.5H581.067Z" fill="white"/>
</mask>
<g mask="url(#mask1_612_2278)">
<path d="M581.067 489.534C581.067 465.249 571.42 441.958 554.248 424.786C537.076 407.614 513.785 397.967 489.5 397.967C465.215 397.967 441.924 407.614 424.752 424.786C407.58 441.958 397.933 465.249 397.933 489.534H489.5H581.067Z" stroke="#EDF0FE" stroke-width="3.42308"/>
</g>
<mask id="mask2_612_2278" style="mask-type:luminance" maskUnits="userSpaceOnUse" x="353" y="353" width="274" height="137">
<path d="M626.423 489.962C626.423 453.761 612.042 419.043 586.444 393.445C560.847 367.848 526.129 353.467 489.928 353.467C453.727 353.467 419.009 367.847 393.411 393.445C367.813 419.043 353.433 453.761 353.433 489.962H489.928H626.423Z" fill="white"/>
</mask>
<g mask="url(#mask2_612_2278)">
<path d="M626.423 489.962C626.423 453.761 612.042 419.043 586.444 393.445C560.847 367.848 526.129 353.467 489.928 353.467C453.727 353.467 419.009 367.847 393.411 393.445C367.813 419.043 353.433 453.761 353.433 489.962H489.928H626.423Z" stroke="#EDF0FE" stroke-width="3.42308"/>
</g>
<mask id="mask3_612_2278" style="mask-type:luminance" maskUnits="userSpaceOnUse" x="308" y="308" width="364" height="182">
<path d="M671.779 489.961C671.779 441.731 652.62 395.477 618.516 361.373C584.413 327.27 538.158 308.11 489.928 308.11C441.698 308.11 395.444 327.27 361.34 361.373C327.236 395.477 308.077 441.731 308.077 489.961H489.928H671.779Z" fill="white"/>
</mask>
<g mask="url(#mask3_612_2278)">
<path d="M671.779 489.961C671.779 441.731 652.62 395.477 618.516 361.373C584.413 327.27 538.158 308.11 489.928 308.11C441.698 308.11 395.444 327.27 361.34 361.373C327.236 395.477 308.077 441.731 308.077 489.961H489.928H671.779Z" stroke="#EDF0FE" stroke-width="3.42308"/>
</g>
<mask id="mask4_612_2278" style="mask-type:luminance" maskUnits="userSpaceOnUse" x="266" y="266" width="448" height="224">
<path d="M713.711 489.961C713.711 430.61 690.134 373.69 648.166 331.722C606.199 289.755 549.278 266.178 489.927 266.178C430.576 266.178 373.656 289.755 331.688 331.722C289.721 373.69 266.144 430.61 266.144 489.961H489.927H713.711Z" fill="white"/>
</mask>
<g mask="url(#mask4_612_2278)">
<path d="M713.711 489.961C713.711 430.61 690.134 373.69 648.166 331.722C606.199 289.755 549.278 266.178 489.927 266.178C430.576 266.178 373.656 289.755 331.688 331.722C289.721 373.69 266.144 430.61 266.144 489.961H489.927H713.711Z" stroke="#EDF0FE" stroke-width="3.42308"/>
</g>
<mask id="mask5_612_2278" style="mask-type:luminance" maskUnits="userSpaceOnUse" x="219" y="219" width="541" height="271">
<path d="M759.923 489.962C759.923 418.355 731.477 349.68 680.843 299.047C630.209 248.413 561.535 219.967 489.928 219.967C418.321 219.967 349.646 248.413 299.012 299.047C248.378 349.68 219.933 418.355 219.933 489.962H489.928H759.923Z" fill="white"/>
</mask>
<g mask="url(#mask5_612_2278)">
<path d="M759.923 489.962C759.923 418.355 731.477 349.68 680.843 299.047C630.209 248.413 561.535 219.967 489.928 219.967C418.321 219.967 349.646 248.413 299.012 299.047C248.378 349.68 219.933 418.355 219.933 489.962H489.928H759.923Z" stroke="#EDF0FE" stroke-width="3.42308"/>
</g>
<mask id="mask6_612_2278" style="mask-type:luminance" maskUnits="userSpaceOnUse" x="170" y="170" width="640" height="320">
<path d="M809.557 489.962C809.557 405.191 775.882 323.892 715.94 263.949C655.998 204.007 574.699 170.332 489.928 170.332C405.157 170.332 323.858 204.007 263.915 263.949C203.973 323.892 170.298 405.191 170.298 489.962H489.928H809.557Z" fill="white"/>
</mask>
<g mask="url(#mask6_612_2278)">
<path d="M809.557 489.962C809.557 405.191 775.882 323.892 715.94 263.949C655.998 204.007 574.699 170.332 489.928 170.332C405.157 170.332 323.858 204.007 263.915 263.949C203.973 323.892 170.298 405.191 170.298 489.962H489.928H809.557Z" stroke="#EDF0FE" stroke-width="3.42308"/>
</g>
<mask id="mask7_612_2278" style="mask-type:luminance" maskUnits="userSpaceOnUse" x="118" y="118" width="743" height="372">
<path d="M860.904 489.534C860.904 391.031 821.774 296.563 752.123 226.912C682.471 157.26 588.003 118.13 489.501 118.13C390.998 118.13 296.53 157.26 226.878 226.912C157.227 296.563 118.097 391.031 118.097 489.534H489.501H860.904Z" fill="white"/>
</mask>
<g mask="url(#mask7_612_2278)">
<path d="M860.904 489.534C860.904 391.031 821.774 296.563 752.123 226.912C682.471 157.26 588.003 118.13 489.501 118.13C390.998 118.13 296.53 157.26 226.878 226.912C157.227 296.563 118.097 391.031 118.097 489.534H489.501H860.904Z" stroke="#EDF0FE" stroke-width="3.42308"/>
</g>
<mask id="mask8_612_2278" style="mask-type:luminance" maskUnits="userSpaceOnUse" x="59" y="59" width="861" height="431">
<path d="M919.097 489.534C919.097 375.598 873.836 266.329 793.271 185.764C712.706 105.199 603.436 59.938 489.5 59.938C375.565 59.938 266.295 105.199 185.73 185.764C105.165 266.329 59.9043 375.598 59.9043 489.534H489.5H919.097Z" fill="white"/>
</mask>
<g mask="url(#mask8_612_2278)">
<path d="M919.097 489.534C919.097 375.598 873.836 266.329 793.271 185.764C712.706 105.199 603.436 59.938 489.5 59.938C375.565 59.938 266.295 105.199 185.73 185.764C105.165 266.329 59.9043 375.598 59.9043 489.534H489.5H919.097Z" stroke="#EDF0FE" stroke-width="3.42308"/>
</g>
<mask id="mask9_612_2278" style="mask-type:luminance" maskUnits="userSpaceOnUse" x="0" y="0" width="979" height="490">
<path d="M979 489.5C979 359.677 927.428 235.17 835.629 143.371C743.83 51.5722 619.324 9.8014e-06 489.5 0C359.677 -9.8014e-06 235.17 51.5721 143.371 143.371C51.5722 235.17 1.96028e-05 359.676 0 489.5H489.5H979Z" fill="white"/>
</mask>
<g mask="url(#mask9_612_2278)">
<path d="M979 489.5C979 359.677 927.428 235.17 835.629 143.371C743.83 51.5722 619.324 9.8014e-06 489.5 0C359.677 -9.8014e-06 235.17 51.5721 143.371 143.371C51.5722 235.17 1.96028e-05 359.676 0 489.5H489.5H979Z" stroke="#EDF0FE" stroke-width="3.42308"/>
</g>
<g filter="url(#filter0_d_612_2278)">
<path d="M463.5 64.1873C463.5 54.6664 463.5 49.906 465.353 46.2695C466.983 43.0707 469.583 40.47 472.782 38.8402C476.419 36.9873 481.179 36.9873 490.7 36.9873H505.3C514.821 36.9873 519.581 36.9873 523.218 38.8402C526.417 40.47 529.017 43.0707 530.647 46.2695C532.5 49.906 532.5 54.6664 532.5 64.1873V78.7873C532.5 88.3082 532.5 93.0686 530.647 96.7051C529.017 99.9039 526.417 102.505 523.218 104.134C519.581 105.987 514.821 105.987 505.3 105.987H490.7C481.179 105.987 476.419 105.987 472.782 104.134C469.583 102.505 466.983 99.9039 465.353 96.7051C463.5 93.0686 463.5 88.3082 463.5 78.7873V64.1873Z" fill="white"/>
<path d="M490.7 37.4873H505.3C510.068 37.4873 513.615 37.4872 516.425 37.7168C519.054 37.9316 520.999 38.3453 522.662 39.125L522.991 39.2861C526.096 40.868 528.619 43.3918 530.201 46.4961C531.086 48.2321 531.541 50.2586 531.771 53.0625C532 55.8722 532 59.4188 532 64.1875V78.7871C532 83.5558 532 87.1024 531.771 89.9121C531.556 92.5409 531.142 94.4861 530.362 96.1494L530.201 96.4785C528.718 99.3889 526.408 101.79 523.566 103.382L522.991 103.688C521.255 104.573 519.229 105.029 516.425 105.258C513.615 105.487 510.068 105.487 505.3 105.487H490.7C485.932 105.487 482.385 105.487 479.575 105.258C476.771 105.029 474.745 104.573 473.009 103.688C470.098 102.205 467.698 99.8948 466.105 97.0537L465.799 96.4785C464.914 94.7425 464.459 92.716 464.229 89.9121C464 87.1024 464 83.5558 464 78.7871V64.1875C464 59.4189 464 55.8722 464.229 53.0625C464.459 50.2586 464.914 48.2321 465.799 46.4961C467.381 43.3918 469.904 40.868 473.009 39.2861C474.745 38.4016 476.771 37.9459 479.575 37.7168C482.385 37.4872 485.932 37.4873 490.7 37.4873Z" stroke="#E5E5E5"/>
<mask id="mask10_612_2278" style="mask-type:luminance" maskUnits="userSpaceOnUse" x="477" y="50" width="42" height="42">
<path d="M518.5 50.9873H477.5V91.9873H518.5V50.9873Z" fill="white"/>
</mask>
<g mask="url(#mask10_612_2278)">
<path d="M489.057 70.6854C489.057 71.1902 489.108 71.6002 489.205 71.9026C489.313 72.2024 489.451 72.5304 489.641 72.8866C489.702 72.9807 489.734 73.0899 489.736 73.2018C489.736 73.3376 489.654 73.476 489.48 73.6118L488.619 74.1858C488.515 74.2604 488.392 74.3032 488.265 74.3088C488.127 74.3088 487.991 74.2422 487.855 74.1192C487.671 73.921 487.506 73.7056 487.363 73.476C487.211 73.2131 487.069 72.9438 486.94 72.6688C485.877 73.927 484.542 74.5574 482.932 74.5574C481.787 74.5574 480.872 74.2268 480.206 73.5708C479.537 72.9148 479.196 72.0384 479.196 70.9442C479.196 69.7809 479.606 68.8379 480.437 68.1255C481.269 67.4131 482.374 67.0595 483.778 67.0595C484.239 67.0595 484.718 67.1005 485.223 67.1671C485.728 67.2363 486.248 67.3465 486.792 67.4695V66.4701C486.792 65.4297 486.574 64.7046 486.151 64.2818C485.715 63.8564 484.977 63.6514 483.927 63.6514C483.45 63.6514 482.961 63.7078 482.456 63.8308C481.954 63.9501 481.462 64.1051 480.982 64.2946C480.828 64.3647 480.668 64.4246 480.506 64.4739C480.435 64.4972 480.362 64.511 480.288 64.5149C480.096 64.5149 480.001 64.3766 480.001 64.0896V63.4182C480.001 63.2004 480.027 63.0338 480.096 62.9416C480.199 62.8158 480.331 62.7166 480.48 62.652C480.954 62.406 481.528 62.201 482.197 62.037C482.863 61.8576 483.573 61.7782 484.324 61.7782C485.946 61.7782 487.132 62.1472 487.896 62.8852C488.647 63.6232 489.029 64.7456 489.029 66.2523V70.6854H489.054H489.057ZM483.519 72.7636C483.968 72.7636 484.431 72.6816 484.923 72.5176C485.413 72.3536 485.851 72.0513 486.218 71.6413C486.437 71.3895 486.596 71.0905 486.681 70.7674C486.763 70.4369 486.82 70.0423 486.82 69.5759V69.0019C486.406 68.9015 485.987 68.8245 485.564 68.7712C485.139 68.7163 484.711 68.688 484.283 68.6867C483.368 68.6867 482.699 68.8661 482.251 69.2351C481.8 69.6041 481.585 70.1243 481.585 70.8084C481.585 71.4491 481.746 71.9282 482.087 72.2588C482.415 72.5996 482.891 72.7636 483.519 72.7636ZM494.469 74.2422C494.223 74.2422 494.059 74.2012 493.951 74.1038C493.841 74.0218 493.746 73.8322 493.664 73.5708L490.461 62.9954C490.398 62.8181 490.356 62.6341 490.335 62.447C490.335 62.2292 490.446 62.1062 490.663 62.1062H492.001C492.257 62.1062 492.437 62.1472 492.532 62.242C492.642 62.324 492.724 62.5162 492.806 62.775L495.097 71.8334L497.223 62.775C497.29 62.5034 497.372 62.324 497.48 62.242C497.644 62.1413 497.836 62.0939 498.028 62.1062H499.117C499.379 62.1062 499.553 62.1472 499.663 62.242C499.773 62.324 499.868 62.5162 499.922 62.775L502.077 71.9436L504.434 62.775C504.478 62.5766 504.573 62.3929 504.709 62.242C504.867 62.1414 505.054 62.0938 505.242 62.1062H506.51C506.728 62.1062 506.851 62.2164 506.851 62.447C506.851 62.5162 506.835 62.5854 506.825 62.6674C506.803 62.7837 506.771 62.8978 506.728 63.0082L503.44 73.5836C503.358 73.8578 503.263 74.0372 503.156 74.1192C503.001 74.2182 502.819 74.2657 502.635 74.255H501.464C501.206 74.255 501.029 74.214 500.919 74.1192C500.808 74.0218 500.714 73.845 500.66 73.5708L498.546 64.7481L496.444 73.5606C496.378 73.8347 496.296 74.0116 496.188 74.1064C496.078 74.2038 495.886 74.2447 495.642 74.2447H494.469V74.2422ZM511.991 74.6112C511.284 74.6121 510.578 74.5296 509.89 74.3652C509.208 74.2012 508.678 74.0218 508.322 73.8168C508.104 73.6938 507.955 73.558 507.899 73.4324C507.847 73.3119 507.82 73.182 507.819 73.0506V72.3536C507.819 72.0666 507.927 71.9282 508.132 71.9282C508.216 71.9284 508.299 71.9423 508.378 71.9692C508.46 71.9974 508.583 72.0512 508.719 72.1076C509.18 72.3126 509.687 72.4766 510.218 72.5868C510.764 72.6944 511.294 72.7508 511.84 72.7508C512.701 72.7508 513.367 72.5996 513.831 72.2998C514.054 72.1649 514.237 71.9734 514.362 71.7447C514.486 71.5161 514.548 71.2584 514.541 70.9981C514.545 70.8223 514.515 70.6473 514.452 70.4833C514.389 70.3192 514.293 70.1693 514.172 70.0422C513.928 69.7809 513.465 69.5477 512.796 69.3299L510.818 68.7149C509.823 68.3997 509.085 67.9333 508.637 67.3183C508.198 66.7501 507.958 66.053 507.955 65.3349C507.955 64.7609 508.078 64.2536 508.322 63.8154C508.568 63.3798 508.896 62.9954 509.306 62.693C509.716 62.3804 510.177 62.1472 510.723 61.9832C511.269 61.8192 511.84 61.75 512.44 61.75C512.742 61.75 513.055 61.7628 513.354 61.8038C513.667 61.8448 513.954 61.9012 514.241 61.9576C514.513 62.0242 514.774 62.0908 515.017 62.1754C515.263 62.2574 515.453 62.3394 515.591 62.4214C515.752 62.5022 515.893 62.6188 516.001 62.7622C516.089 62.8956 516.131 63.0538 516.122 63.2132V63.8564C516.122 64.1434 516.014 64.2946 515.809 64.2946C515.628 64.2738 515.452 64.2181 515.292 64.1306C514.468 63.7652 513.574 63.5833 512.673 63.5976C511.896 63.5976 511.281 63.7206 510.859 63.9819C510.436 64.2382 510.218 64.6379 510.218 65.1991C510.218 65.5809 510.354 65.9089 510.628 66.1703C510.9 66.4291 511.404 66.6879 512.127 66.9211L514.064 67.5361C515.046 67.8513 515.755 68.2895 516.178 68.8507C516.601 69.4119 516.804 70.0551 516.804 70.7674C516.804 71.3568 516.683 71.8873 516.45 72.3536C516.208 72.8216 515.869 73.2323 515.456 73.558C515.033 73.8988 514.528 74.1474 513.941 74.3242C513.326 74.5164 512.686 74.6112 511.991 74.6112Z" fill="#252F3E"/>
<path fill-rule="evenodd" clip-rule="evenodd" d="M514.566 81.2582C510.082 84.5818 503.563 86.3474 497.959 86.3474C490.105 86.3474 483.027 83.4338 477.682 78.5907C477.259 78.2063 477.641 77.6861 478.143 77.9885C483.927 81.3531 491.058 83.3928 498.438 83.3928C503.412 83.3928 508.88 82.3524 513.913 80.2179C514.664 79.8771 515.304 80.7099 514.566 81.2582Z" fill="#FF9900"/>
<path fill-rule="evenodd" clip-rule="evenodd" d="M516.434 79.1237C515.863 78.3883 512.645 78.7701 511.186 78.9469C510.751 79.0033 510.682 78.6189 511.076 78.3319C513.639 76.5253 517.854 77.0455 518.344 77.6477C518.836 78.2627 518.208 82.4908 515.807 84.5152C515.44 84.8304 515.087 84.6689 515.248 84.2589C515.794 82.9008 517.008 79.8514 516.434 79.1263V79.1237Z" fill="#FF9900"/>
</g>
</g>
<g filter="url(#filter1_d_612_2278)">
<path d="M446 119.987C446 115.569 449.582 111.987 454 111.987H542C546.418 111.987 550 115.569 550 119.987V137.987C550 142.406 546.418 145.987 542 145.987H454C449.582 145.987 446 142.406 446 137.987V119.987Z" fill="#F6F8FA"/>
<path d="M482.069 134.987L485.737 124.557H487.781L491.449 134.987H489.685L488.887 132.649H484.645L483.833 134.987H482.069ZM485.121 131.179H488.383L486.535 125.719H486.997L485.121 131.179ZM494.072 134.987L491.202 124.557H492.952L495.276 133.587H494.842L497.25 124.557H498.972L501.38 133.587H500.932L503.27 124.557H505.006L502.15 134.987H500.288L497.866 126.097H498.356L495.92 134.987H494.072ZM509.753 135.155C509.099 135.155 508.493 135.034 507.933 134.791C507.373 134.539 506.897 134.199 506.505 133.769C506.113 133.34 505.823 132.845 505.637 132.285L507.037 131.697C507.289 132.341 507.657 132.836 508.143 133.181C508.628 133.527 509.188 133.699 509.823 133.699C510.196 133.699 510.523 133.643 510.803 133.531C511.083 133.41 511.297 133.242 511.447 133.027C511.605 132.813 511.685 132.565 511.685 132.285C511.685 131.903 511.577 131.599 511.363 131.375C511.148 131.151 510.831 130.974 510.411 130.843L508.451 130.227C507.667 129.985 507.069 129.616 506.659 129.121C506.248 128.617 506.043 128.029 506.043 127.357C506.043 126.769 506.187 126.256 506.477 125.817C506.766 125.369 507.163 125.019 507.667 124.767C508.18 124.515 508.763 124.389 509.417 124.389C510.042 124.389 510.611 124.501 511.125 124.725C511.638 124.94 512.077 125.239 512.441 125.621C512.814 126.004 513.085 126.447 513.253 126.951L511.881 127.553C511.675 127.003 511.353 126.578 510.915 126.279C510.485 125.981 509.986 125.831 509.417 125.831C509.071 125.831 508.768 125.892 508.507 126.013C508.245 126.125 508.04 126.293 507.891 126.517C507.751 126.732 507.681 126.984 507.681 127.273C507.681 127.609 507.788 127.908 508.003 128.169C508.217 128.431 508.544 128.627 508.983 128.757L510.803 129.331C511.633 129.583 512.259 129.947 512.679 130.423C513.099 130.89 513.309 131.473 513.309 132.173C513.309 132.752 513.155 133.265 512.847 133.713C512.548 134.161 512.133 134.516 511.601 134.777C511.069 135.029 510.453 135.155 509.753 135.155Z" fill="#202021"/>
</g>
<g filter="url(#filter2_d_612_2278)">
<path d="M805.5 321.187C805.5 311.666 805.5 306.906 807.353 303.269C808.983 300.071 811.583 297.47 814.782 295.84C818.419 293.987 823.179 293.987 832.7 293.987H847.3C856.821 293.987 861.581 293.987 865.218 295.84C868.417 297.47 871.017 300.071 872.647 303.269C874.5 306.906 874.5 311.666 874.5 321.187V335.787C874.5 345.308 874.5 350.069 872.647 353.705C871.017 356.904 868.417 359.505 865.218 361.134C861.581 362.987 856.821 362.987 847.3 362.987H832.7C823.179 362.987 818.419 362.987 814.782 361.134C811.583 359.505 808.983 356.904 807.353 353.705C805.5 350.069 805.5 345.308 805.5 335.787V321.187Z" fill="white"/>
<path d="M832.7 294.487H847.3C852.068 294.487 855.615 294.487 858.425 294.717C861.054 294.932 862.999 295.345 864.662 296.125L864.991 296.286C868.096 297.868 870.619 300.392 872.201 303.496C873.086 305.232 873.541 307.259 873.771 310.062C874 312.872 874 316.419 874 321.188V335.787C874 340.556 874 344.102 873.771 346.912C873.556 349.541 873.142 351.486 872.362 353.149L872.201 353.479C870.718 356.389 868.408 358.79 865.566 360.382L864.991 360.688C863.255 361.573 861.229 362.029 858.425 362.258C855.615 362.487 852.068 362.487 847.3 362.487H832.7C827.932 362.487 824.385 362.487 821.575 362.258C818.771 362.029 816.745 361.573 815.009 360.688C812.098 359.205 809.698 356.895 808.105 354.054L807.799 353.479C806.914 351.742 806.459 349.716 806.229 346.912C806 344.102 806 340.556 806 335.787V321.188C806 316.419 806 312.872 806.229 310.062C806.459 307.259 806.914 305.232 807.799 303.496C809.381 300.392 811.904 297.868 815.009 296.286C816.745 295.402 818.771 294.946 821.575 294.717C824.385 294.487 827.932 294.487 832.7 294.487Z" stroke="#E5E5E5"/>
<path d="M838.642 339.793L847.222 338.276L847.301 338.258L842.888 333.008C841.409 331.256 839.937 329.499 838.473 327.734C838.473 327.708 843.032 315.155 843.057 315.111C845.58 319.429 848.086 323.756 850.576 328.093L858.135 341.2L858.194 341.3L830.14 341.297L838.642 339.793ZM821.807 338.194C821.807 338.186 823.885 334.576 826.427 330.171L831.05 322.158L836.436 317.638C839.398 315.155 841.83 313.112 841.838 313.112C841.819 313.188 841.79 313.261 841.753 313.33L835.9 325.876L830.16 338.197L825.984 338.202C823.685 338.204 821.807 338.202 821.807 338.194Z" fill="#0089D6"/>
</g>
<g filter="url(#filter3_d_612_2278)">
<path d="M878 368.987H802C797.582 368.987 794 372.569 794 376.987V394.987C794 399.405 797.582 402.987 802 402.987H878C882.418 402.987 886 399.405 886 394.987V376.987C886 372.569 882.418 368.987 878 368.987Z" fill="#F6F8FA"/>
<path d="M821.082 391.987L824.75 381.557H826.794L830.462 391.987H828.698L827.9 389.649H823.658L822.846 391.987H821.082ZM824.134 388.179H827.396L825.548 382.719H826.01L824.134 388.179ZM830.859 391.987V390.685L835.311 385.295L835.563 385.841H831.069V384.413H836.963V385.701L832.567 391.105L832.315 390.545H836.977V391.987H830.859ZM840.837 392.155C840.268 392.155 839.768 392.029 839.339 391.777C838.91 391.516 838.574 391.157 838.331 390.699C838.098 390.233 837.981 389.696 837.981 389.089V384.413H839.563V388.949C839.563 389.295 839.633 389.598 839.773 389.859C839.913 390.121 840.109 390.326 840.361 390.475C840.613 390.615 840.902 390.685 841.229 390.685C841.565 390.685 841.859 390.611 842.111 390.461C842.363 390.312 842.559 390.102 842.699 389.831C842.848 389.561 842.923 389.243 842.923 388.879V384.413H844.491V391.987H842.993V390.503L843.161 390.699C842.984 391.166 842.69 391.525 842.279 391.777C841.868 392.029 841.388 392.155 840.837 392.155ZM846.338 391.987V384.413H847.85V385.939L847.71 385.715C847.878 385.221 848.149 384.866 848.522 384.651C848.895 384.427 849.343 384.315 849.866 384.315H850.328V385.757H849.67C849.147 385.757 848.723 385.921 848.396 386.247C848.079 386.565 847.92 387.022 847.92 387.619V391.987H846.338ZM854.966 392.155C854.21 392.155 853.538 391.983 852.95 391.637C852.372 391.283 851.919 390.807 851.592 390.209C851.266 389.603 851.102 388.926 851.102 388.179C851.102 387.414 851.266 386.737 851.592 386.149C851.928 385.561 852.376 385.099 852.936 384.763C853.496 384.418 854.131 384.245 854.84 384.245C855.41 384.245 855.918 384.343 856.366 384.539C856.814 384.735 857.192 385.006 857.5 385.351C857.808 385.687 858.042 386.075 858.2 386.513C858.368 386.952 858.452 387.419 858.452 387.913C858.452 388.035 858.448 388.161 858.438 388.291C858.429 388.422 858.41 388.543 858.382 388.655H852.348V387.395H857.486L856.73 387.969C856.824 387.512 856.791 387.106 856.632 386.751C856.483 386.387 856.25 386.103 855.932 385.897C855.624 385.683 855.26 385.575 854.84 385.575C854.42 385.575 854.047 385.683 853.72 385.897C853.394 386.103 853.142 386.401 852.964 386.793C852.787 387.176 852.717 387.643 852.754 388.193C852.708 388.707 852.778 389.155 852.964 389.537C853.16 389.92 853.431 390.219 853.776 390.433C854.131 390.648 854.532 390.755 854.98 390.755C855.438 390.755 855.825 390.653 856.142 390.447C856.469 390.242 856.726 389.976 856.912 389.649L858.2 390.279C858.051 390.634 857.818 390.956 857.5 391.245C857.192 391.525 856.819 391.749 856.38 391.917C855.951 392.076 855.48 392.155 854.966 392.155Z" fill="#202021"/>
</g>
<g filter="url(#filter4_d_612_2278)">
<path d="M121.5 320.2C121.5 310.679 121.5 305.919 123.353 302.282C124.983 299.083 127.583 296.483 130.782 294.853C134.419 293 139.179 293 148.7 293H163.3C172.821 293 177.581 293 181.218 294.853C184.417 296.483 187.017 299.083 188.647 302.282C190.5 305.919 190.5 310.679 190.5 320.2V334.8C190.5 344.321 190.5 349.081 188.647 352.718C187.017 355.917 184.417 358.517 181.218 360.147C177.581 362 172.821 362 163.3 362H148.7C139.179 362 134.419 362 130.782 360.147C127.583 358.517 124.983 355.917 123.353 352.718C121.5 349.081 121.5 344.321 121.5 334.8V320.2Z" fill="white"/>
<path d="M148.7 293.5H163.3C168.068 293.5 171.615 293.5 174.425 293.729C177.054 293.944 178.999 294.358 180.662 295.138L180.991 295.299C184.096 296.881 186.619 299.404 188.201 302.509C189.086 304.245 189.541 306.271 189.771 309.075C190 311.885 190 315.432 190 320.2V334.8C190 339.568 190 343.115 189.771 345.925C189.556 348.554 189.142 350.499 188.362 352.162L188.201 352.491C186.718 355.402 184.408 357.802 181.566 359.395L180.991 359.701C179.255 360.586 177.229 361.041 174.425 361.271C171.615 361.5 168.068 361.5 163.3 361.5H148.7C143.932 361.5 140.385 361.5 137.575 361.271C134.771 361.041 132.745 360.586 131.009 359.701C128.098 358.218 125.698 355.908 124.105 353.066L123.799 352.491C122.914 350.755 122.459 348.729 122.229 345.925C122 343.115 122 339.568 122 334.8V320.2C122 315.432 122 311.885 122.229 309.075C122.459 306.271 122.914 304.245 123.799 302.509C125.381 299.404 127.904 296.881 131.009 295.299C132.745 294.414 134.771 293.959 137.575 293.729C140.385 293.5 143.932 293.5 148.7 293.5Z" stroke="#E5E5E5"/>
<path d="M156 338.283V345.079C167.518 345.079 176.469 333.958 172.702 321.881C171.879 319.274 170.44 316.905 168.507 314.972C166.575 313.039 164.205 311.6 161.599 310.777C149.542 307.01 138.421 315.979 138.421 327.48H145.217C145.217 320.266 152.371 314.685 159.966 317.435C161.361 317.943 162.628 318.751 163.678 319.801C164.728 320.851 165.536 322.118 166.045 323.513C168.812 331.1 163.226 338.247 156.02 338.263V331.505H149.242V338.283H156Z" fill="#0080FF"/>
<path d="M149.243 343.503H144.02V338.283H149.243V343.503ZM139.656 338.283H144.02V333.917H139.656V338.283Z" fill="#0080FF"/>
</g>
<g filter="url(#filter5_d_612_2278)">
<path d="M104 376C104 371.582 107.582 368 112 368H200C204.418 368 208 371.582 208 376V394C208 398.418 204.418 402 200 402H112C107.582 402 104 398.418 104 394V376Z" fill="#F6F8FA"/>
<path d="M111.284 391V380.57H114.7C115.783 380.57 116.721 380.789 117.514 381.228C118.317 381.657 118.937 382.264 119.376 383.048C119.815 383.832 120.034 384.742 120.034 385.778C120.034 386.805 119.815 387.715 119.376 388.508C118.937 389.292 118.317 389.903 117.514 390.342C116.721 390.781 115.783 391 114.7 391H111.284ZM112.936 389.53H114.728C115.465 389.53 116.105 389.376 116.646 389.068C117.197 388.76 117.621 388.326 117.92 387.766C118.219 387.206 118.368 386.543 118.368 385.778C118.368 385.013 118.214 384.355 117.906 383.804C117.607 383.244 117.187 382.81 116.646 382.502C116.105 382.194 115.465 382.04 114.728 382.04H112.936V389.53ZM121.507 391V383.426H123.089V391H121.507ZM121.507 382.39V380.57H123.089V382.39H121.507ZM128.593 394.08C128.042 394.08 127.533 393.991 127.067 393.814C126.6 393.637 126.199 393.389 125.863 393.072C125.527 392.764 125.275 392.4 125.107 391.98L126.563 391.378C126.693 391.733 126.931 392.027 127.277 392.26C127.631 392.493 128.065 392.61 128.579 392.61C128.98 392.61 129.339 392.531 129.657 392.372C129.974 392.223 130.226 391.999 130.413 391.7C130.599 391.411 130.693 391.061 130.693 390.65V388.942L130.973 389.264C130.711 389.749 130.347 390.118 129.881 390.37C129.423 390.622 128.905 390.748 128.327 390.748C127.627 390.748 126.997 390.585 126.437 390.258C125.877 389.931 125.433 389.483 125.107 388.914C124.789 388.345 124.631 387.705 124.631 386.996C124.631 386.277 124.789 385.638 125.107 385.078C125.433 384.518 125.872 384.075 126.423 383.748C126.973 383.421 127.603 383.258 128.313 383.258C128.891 383.258 129.405 383.384 129.853 383.636C130.31 383.879 130.683 384.233 130.973 384.7L130.763 385.092V383.426H132.261V390.65C132.261 391.303 132.102 391.887 131.785 392.4C131.477 392.923 131.047 393.333 130.497 393.632C129.946 393.931 129.311 394.08 128.593 394.08ZM128.509 389.278C128.929 389.278 129.302 389.18 129.629 388.984C129.955 388.779 130.212 388.508 130.399 388.172C130.595 387.827 130.693 387.439 130.693 387.01C130.693 386.581 130.595 386.193 130.399 385.848C130.203 385.503 129.941 385.232 129.615 385.036C129.288 384.831 128.919 384.728 128.509 384.728C128.079 384.728 127.697 384.831 127.361 385.036C127.025 385.232 126.759 385.503 126.563 385.848C126.376 386.184 126.283 386.571 126.283 387.01C126.283 387.43 126.376 387.813 126.563 388.158C126.759 388.503 127.025 388.779 127.361 388.984C127.697 389.18 128.079 389.278 128.509 389.278ZM134.112 391V383.426H135.694V391H134.112ZM134.112 382.39V380.57H135.694V382.39H134.112ZM140.82 391.084C140.027 391.084 139.411 390.86 138.972 390.412C138.533 389.964 138.314 389.334 138.314 388.522V384.854H136.984V383.426H137.194C137.549 383.426 137.824 383.323 138.02 383.118C138.216 382.913 138.314 382.633 138.314 382.278V381.69H139.896V383.426H141.618V384.854H139.896V388.452C139.896 388.713 139.938 388.937 140.022 389.124C140.106 389.301 140.241 389.441 140.428 389.544C140.615 389.637 140.857 389.684 141.156 389.684C141.231 389.684 141.315 389.679 141.408 389.67C141.501 389.661 141.59 389.651 141.674 389.642V391C141.543 391.019 141.399 391.037 141.24 391.056C141.081 391.075 140.941 391.084 140.82 391.084ZM145.418 391.168C144.904 391.168 144.452 391.079 144.06 390.902C143.677 390.715 143.378 390.463 143.164 390.146C142.949 389.819 142.842 389.437 142.842 388.998C142.842 388.587 142.93 388.219 143.108 387.892C143.294 387.565 143.579 387.29 143.962 387.066C144.344 386.842 144.825 386.683 145.404 386.59L148.036 386.156V387.402L145.712 387.808C145.292 387.883 144.984 388.018 144.788 388.214C144.592 388.401 144.494 388.643 144.494 388.942C144.494 389.231 144.601 389.469 144.816 389.656C145.04 389.833 145.324 389.922 145.67 389.922C146.099 389.922 146.472 389.829 146.79 389.642C147.116 389.455 147.368 389.208 147.546 388.9C147.723 388.583 147.812 388.233 147.812 387.85V385.904C147.812 385.531 147.672 385.227 147.392 384.994C147.121 384.751 146.757 384.63 146.3 384.63C145.88 384.63 145.511 384.742 145.194 384.966C144.886 385.181 144.657 385.461 144.508 385.806L143.192 385.148C143.332 384.775 143.56 384.448 143.878 384.168C144.195 383.879 144.564 383.655 144.984 383.496C145.413 383.337 145.866 383.258 146.342 383.258C146.939 383.258 147.466 383.37 147.924 383.594C148.39 383.818 148.75 384.131 149.002 384.532C149.263 384.924 149.394 385.381 149.394 385.904V391H147.882V389.628L148.204 389.67C148.026 389.978 147.798 390.244 147.518 390.468C147.247 390.692 146.934 390.865 146.58 390.986C146.234 391.107 145.847 391.168 145.418 391.168ZM151.243 391V380.402H152.825V391H151.243ZM162.344 391.168C161.588 391.168 160.884 391.033 160.23 390.762C159.586 390.491 159.017 390.113 158.522 389.628C158.037 389.143 157.654 388.573 157.374 387.92C157.104 387.267 156.968 386.553 156.968 385.778C156.968 385.003 157.104 384.289 157.374 383.636C157.654 382.973 158.037 382.404 158.522 381.928C159.008 381.443 159.577 381.069 160.23 380.808C160.884 380.537 161.588 380.402 162.344 380.402C163.11 380.402 163.814 380.537 164.458 380.808C165.112 381.069 165.681 381.443 166.166 381.928C166.661 382.413 167.044 382.983 167.314 383.636C167.585 384.289 167.72 385.003 167.72 385.778C167.72 386.553 167.58 387.267 167.3 387.92C167.03 388.573 166.652 389.143 166.166 389.628C165.681 390.113 165.112 390.491 164.458 390.762C163.805 391.033 163.1 391.168 162.344 391.168ZM162.344 389.656C162.886 389.656 163.38 389.558 163.828 389.362C164.286 389.166 164.682 388.895 165.018 388.55C165.354 388.195 165.616 387.785 165.802 387.318C165.989 386.842 166.082 386.329 166.082 385.778C166.082 385.227 165.989 384.719 165.802 384.252C165.616 383.785 165.354 383.375 165.018 383.02C164.682 382.665 164.286 382.39 163.828 382.194C163.38 381.998 162.886 381.9 162.344 381.9C161.803 381.9 161.304 381.998 160.846 382.194C160.398 382.39 160.006 382.665 159.67 383.02C159.334 383.375 159.073 383.785 158.886 384.252C158.709 384.719 158.62 385.227 158.62 385.778C158.62 386.329 158.709 386.842 158.886 387.318C159.073 387.785 159.334 388.195 159.67 388.55C160.006 388.895 160.403 389.166 160.86 389.362C161.318 389.558 161.812 389.656 162.344 389.656ZM173.011 391.168C172.255 391.168 171.583 390.995 170.995 390.65C170.417 390.295 169.955 389.819 169.609 389.222C169.273 388.625 169.105 387.948 169.105 387.192C169.105 386.445 169.273 385.773 169.609 385.176C169.945 384.579 170.407 384.112 170.995 383.776C171.583 383.431 172.255 383.258 173.011 383.258C173.525 383.258 174.005 383.351 174.453 383.538C174.901 383.715 175.289 383.963 175.615 384.28C175.951 384.597 176.199 384.966 176.357 385.386L174.971 386.03C174.813 385.638 174.556 385.325 174.201 385.092C173.856 384.849 173.459 384.728 173.011 384.728C172.582 384.728 172.195 384.835 171.849 385.05C171.513 385.255 171.247 385.549 171.051 385.932C170.855 386.305 170.757 386.73 170.757 387.206C170.757 387.682 170.855 388.111 171.051 388.494C171.247 388.867 171.513 389.161 171.849 389.376C172.195 389.591 172.582 389.698 173.011 389.698C173.469 389.698 173.865 389.581 174.201 389.348C174.547 389.105 174.803 388.783 174.971 388.382L176.357 389.04C176.208 389.441 175.965 389.805 175.629 390.132C175.303 390.449 174.915 390.701 174.467 390.888C174.019 391.075 173.534 391.168 173.011 391.168ZM181.459 391.168C180.703 391.168 180.031 390.995 179.443 390.65C178.865 390.295 178.412 389.819 178.085 389.222C177.759 388.615 177.595 387.939 177.595 387.192C177.595 386.427 177.759 385.75 178.085 385.162C178.421 384.574 178.869 384.112 179.429 383.776C179.989 383.431 180.624 383.258 181.333 383.258C181.903 383.258 182.411 383.356 182.859 383.552C183.307 383.748 183.685 384.019 183.993 384.364C184.301 384.7 184.535 385.087 184.693 385.526C184.861 385.965 184.945 386.431 184.945 386.926C184.945 387.047 184.941 387.173 184.931 387.304C184.922 387.435 184.903 387.556 184.875 387.668H178.841V386.408H183.979L183.223 386.982C183.317 386.525 183.284 386.119 183.125 385.764C182.976 385.4 182.743 385.115 182.425 384.91C182.117 384.695 181.753 384.588 181.333 384.588C180.913 384.588 180.54 384.695 180.213 384.91C179.887 385.115 179.635 385.414 179.457 385.806C179.28 386.189 179.21 386.655 179.247 387.206C179.201 387.719 179.271 388.167 179.457 388.55C179.653 388.933 179.924 389.231 180.269 389.446C180.624 389.661 181.025 389.768 181.473 389.768C181.931 389.768 182.318 389.665 182.635 389.46C182.962 389.255 183.219 388.989 183.405 388.662L184.693 389.292C184.544 389.647 184.311 389.969 183.993 390.258C183.685 390.538 183.312 390.762 182.873 390.93C182.444 391.089 181.973 391.168 181.459 391.168ZM188.689 391.168C188.176 391.168 187.723 391.079 187.331 390.902C186.948 390.715 186.65 390.463 186.435 390.146C186.22 389.819 186.113 389.437 186.113 388.998C186.113 388.587 186.202 388.219 186.379 387.892C186.566 387.565 186.85 387.29 187.233 387.066C187.616 386.842 188.096 386.683 188.675 386.59L191.307 386.156V387.402L188.983 387.808C188.563 387.883 188.255 388.018 188.059 388.214C187.863 388.401 187.765 388.643 187.765 388.942C187.765 389.231 187.872 389.469 188.087 389.656C188.311 389.833 188.596 389.922 188.941 389.922C189.37 389.922 189.744 389.829 190.061 389.642C190.388 389.455 190.64 389.208 190.817 388.9C190.994 388.583 191.083 388.233 191.083 387.85V385.904C191.083 385.531 190.943 385.227 190.663 384.994C190.392 384.751 190.028 384.63 189.571 384.63C189.151 384.63 188.782 384.742 188.465 384.966C188.157 385.181 187.928 385.461 187.779 385.806L186.463 385.148C186.603 384.775 186.832 384.448 187.149 384.168C187.466 383.879 187.835 383.655 188.255 383.496C188.684 383.337 189.137 383.258 189.613 383.258C190.21 383.258 190.738 383.37 191.195 383.594C191.662 383.818 192.021 384.131 192.273 384.532C192.534 384.924 192.665 385.381 192.665 385.904V391H191.153V389.628L191.475 389.67C191.298 389.978 191.069 390.244 190.789 390.468C190.518 390.692 190.206 390.865 189.851 390.986C189.506 391.107 189.118 391.168 188.689 391.168ZM194.515 391V383.426H196.027V384.91L195.845 384.714C196.031 384.238 196.33 383.879 196.741 383.636C197.151 383.384 197.627 383.258 198.169 383.258C198.729 383.258 199.223 383.379 199.653 383.622C200.082 383.865 200.418 384.201 200.661 384.63C200.903 385.059 201.025 385.554 201.025 386.114V391H199.457V386.534C199.457 386.151 199.387 385.829 199.247 385.568C199.107 385.297 198.906 385.092 198.645 384.952C198.393 384.803 198.103 384.728 197.777 384.728C197.45 384.728 197.156 384.803 196.895 384.952C196.643 385.092 196.447 385.297 196.307 385.568C196.167 385.839 196.097 386.161 196.097 386.534V391H194.515Z" fill="#202021"/>
</g>
</g>
<defs>
<filter id="filter0_d_612_2278" x="453.7" y="27.1873" width="88.6" height="88.5995" filterUnits="userSpaceOnUse" color-interpolation-filters="sRGB">
<feFlood flood-opacity="0" result="BackgroundImageFix"/>
<feColorMatrix in="SourceAlpha" type="matrix" values="0 0 0 0 0 0 0 0 0 0 0 0 0 0 0 0 0 0 127 0" result="hardAlpha"/>
<feOffset/>
<feGaussianBlur stdDeviation="4.9"/>
<feComposite in2="hardAlpha" operator="out"/>
<feColorMatrix type="matrix" values="0 0 0 0 0 0 0 0 0 0 0 0 0 0 0 0 0 0 0.1 0"/>
<feBlend mode="normal" in2="BackgroundImageFix" result="effect1_dropShadow_612_2278"/>
<feBlend mode="normal" in="SourceGraphic" in2="effect1_dropShadow_612_2278" result="shape"/>
</filter>
<filter id="filter1_d_612_2278" x="437" y="102.987" width="122" height="52" filterUnits="userSpaceOnUse" color-interpolation-filters="sRGB">
<feFlood flood-opacity="0" result="BackgroundImageFix"/>
<feColorMatrix in="SourceAlpha" type="matrix" values="0 0 0 0 0 0 0 0 0 0 0 0 0 0 0 0 0 0 127 0" result="hardAlpha"/>
<feOffset/>
<feGaussianBlur stdDeviation="4.5"/>
<feComposite in2="hardAlpha" operator="out"/>
<feColorMatrix type="matrix" values="0 0 0 0 0 0 0 0 0 0 0 0 0 0 0 0 0 0 0.1 0"/>
<feBlend mode="normal" in2="BackgroundImageFix" result="effect1_dropShadow_612_2278"/>
<feBlend mode="normal" in="SourceGraphic" in2="effect1_dropShadow_612_2278" result="shape"/>
</filter>
<filter id="filter2_d_612_2278" x="795.7" y="284.187" width="88.6" height="88.6" filterUnits="userSpaceOnUse" color-interpolation-filters="sRGB">
<feFlood flood-opacity="0" result="BackgroundImageFix"/>
<feColorMatrix in="SourceAlpha" type="matrix" values="0 0 0 0 0 0 0 0 0 0 0 0 0 0 0 0 0 0 127 0" result="hardAlpha"/>
<feOffset/>
<feGaussianBlur stdDeviation="4.9"/>
<feComposite in2="hardAlpha" operator="out"/>
<feColorMatrix type="matrix" values="0 0 0 0 0 0 0 0 0 0 0 0 0 0 0 0 0 0 0.1 0"/>
<feBlend mode="normal" in2="BackgroundImageFix" result="effect1_dropShadow_612_2278"/>
<feBlend mode="normal" in="SourceGraphic" in2="effect1_dropShadow_612_2278" result="shape"/>
</filter>
<filter id="filter3_d_612_2278" x="785" y="359.987" width="110" height="52" filterUnits="userSpaceOnUse" color-interpolation-filters="sRGB">
<feFlood flood-opacity="0" result="BackgroundImageFix"/>
<feColorMatrix in="SourceAlpha" type="matrix" values="0 0 0 0 0 0 0 0 0 0 0 0 0 0 0 0 0 0 127 0" result="hardAlpha"/>
<feOffset/>
<feGaussianBlur stdDeviation="4.5"/>
<feComposite in2="hardAlpha" operator="out"/>
<feColorMatrix type="matrix" values="0 0 0 0 0 0 0 0 0 0 0 0 0 0 0 0 0 0 0.1 0"/>
<feBlend mode="normal" in2="BackgroundImageFix" result="effect1_dropShadow_612_2278"/>
<feBlend mode="normal" in="SourceGraphic" in2="effect1_dropShadow_612_2278" result="shape"/>
</filter>
<filter id="filter4_d_612_2278" x="111.7" y="283.2" width="88.6" height="88.6" filterUnits="userSpaceOnUse" color-interpolation-filters="sRGB">
<feFlood flood-opacity="0" result="BackgroundImageFix"/>
<feColorMatrix in="SourceAlpha" type="matrix" values="0 0 0 0 0 0 0 0 0 0 0 0 0 0 0 0 0 0 127 0" result="hardAlpha"/>
<feOffset/>
<feGaussianBlur stdDeviation="4.9"/>
<feComposite in2="hardAlpha" operator="out"/>
<feColorMatrix type="matrix" values="0 0 0 0 0 0 0 0 0 0 0 0 0 0 0 0 0 0 0.1 0"/>
<feBlend mode="normal" in2="BackgroundImageFix" result="effect1_dropShadow_612_2278"/>
<feBlend mode="normal" in="SourceGraphic" in2="effect1_dropShadow_612_2278" result="shape"/>
</filter>
<filter id="filter5_d_612_2278" x="95" y="359" width="122" height="52" filterUnits="userSpaceOnUse" color-interpolation-filters="sRGB">
<feFlood flood-opacity="0" result="BackgroundImageFix"/>
<feColorMatrix in="SourceAlpha" type="matrix" values="0 0 0 0 0 0 0 0 0 0 0 0 0 0 0 0 0 0 127 0" result="hardAlpha"/>
<feOffset/>
<feGaussianBlur stdDeviation="4.5"/>
<feComposite in2="hardAlpha" operator="out"/>
<feColorMatrix type="matrix" values="0 0 0 0 0 0 0 0 0 0 0 0 0 0 0 0 0 0 0.1 0"/>
<feBlend mode="normal" in2="BackgroundImageFix" result="effect1_dropShadow_612_2278"/>
<feBlend mode="normal" in="SourceGraphic" in2="effect1_dropShadow_612_2278" result="shape"/>
</filter>
<clipPath id="clip0_612_2278">
<rect width="979" height="490" fill="white"/>
</clipPath>
</defs>
</svg>
