<svg xmlns="http://www.w3.org/2000/svg" width="47" height="54" viewBox="0 0 47 54" fill="none"><path d="M41.125 10.375C41.0937 10.0937 40.8437 9.96875 40.6562 9.96875C40.4687 9.96875 36.375 9.65625 36.375 9.65625C36.375 9.65625 33.5312 6.8125 33.1875 6.53125C32.875 6.21875 32.2812 6.3125 32.0312 6.375C32 6.375 31.4062 6.5625 30.4375 6.875C29.4687 4.09375 27.8125 1.5625 24.8437 1.5625H24.5625C23.75 0.5 22.6875 0 21.8125 0C14.9375 0 11.625 8.59375 10.5937 12.9687C7.90625 13.8125 6 14.375 5.78125 14.4687C4.28125 14.9375 4.25 14.9687 4.0625 16.375C3.90625 17.4375 0 47.6562 0 47.6562L30.4062 53.3437L46.9062 49.7812C46.9375 49.7187 41.1562 10.6562 41.125 10.375ZM28.75 7.3125C28 7.53125 27.0937 7.8125 26.1875 8.125V7.56249C26.1875 5.87499 25.9687 4.5 25.5625 3.40625C27.125 3.59375 28.0937 5.3125 28.75 7.3125ZM23.6562 3.75C24.0625 4.8125 24.3437 6.3125 24.3437 8.375V8.6875C22.6562 9.21875 20.875 9.74999 19.0312 10.3437C20.0625 6.40624 22.0312 4.46875 23.6562 3.75ZM21.6562 1.8125C21.9687 1.8125 22.2812 1.9375 22.5312 2.125C20.3125 3.15625 17.9687 5.74999 17 11C15.5312 11.4687 14.125 11.875 12.7812 12.3125C13.9062 8.3125 16.7187 1.8125 21.6562 1.8125Z" fill="#95BF47"></path><path d="M40.6562 9.90625C40.4687 9.90625 36.375 9.59375 36.375 9.59375C36.375 9.59375 33.5312 6.75 33.1875 6.46875C33.0625 6.34375 32.9063 6.28125 32.7813 6.28125L30.5 53.3437L47 49.7812C47 49.7812 41.2187 10.6563 41.1875 10.375C41.0625 10.0938 40.8437 9.96875 40.6562 9.90625Z" fill="#5E8E3E"></path><path d="M24.8438 19.0312L22.8437 25.0625C22.8437 25.0625 21.0312 24.0937 18.875 24.0937C15.6562 24.0937 15.5 26.125 15.5 26.625C15.5 29.375 22.6875 30.4375 22.6875 36.9062C22.6875 42 19.4687 45.2812 15.125 45.2812C9.875 45.2812 7.25 42.0312 7.25 42.0312L8.65625 37.4062C8.65625 37.4062 11.4062 39.7812 13.7187 39.7812C15.25 39.7812 15.875 38.5937 15.875 37.7187C15.875 34.125 10 33.9687 10 28.0312C10 23.0625 13.5625 18.25 20.7812 18.25C23.4688 18.2187 24.8438 19.0312 24.8438 19.0312Z" fill="white"></path></svg>