<svg xmlns="http://www.w3.org/2000/svg" width="52" height="52" viewBox="0 0 52 52" fill="none"><path d="M0 52L3.65698 38.6479C1.39774 34.731 0.211039 30.2877 0.216497 25.766C0.222453 11.5584 11.7844 0 25.9923 0C32.8869 0.00350319 39.3584 2.6866 44.2254 7.55709C49.0924 12.4276 51.7702 18.9015 51.7677 25.7867C51.7614 39.9932 40.1977 51.5537 25.9919 51.5537H25.9807C21.6672 51.5519 17.4287 50.4698 13.6639 48.4169L0 52Z" fill="#E5E5E5"></path><path d="M26 4.35272C14.1827 4.35272 4.57237 13.9595 4.56817 25.7677C4.56235 29.7999 5.69782 33.7514 7.8433 37.1654L8.35302 37.9757L6.18839 45.8782L14.2969 43.7521L15.0798 44.2159C18.3683 46.1675 22.1388 47.1996 25.9839 47.2017H25.9919C37.8002 47.2017 47.4105 37.5938 47.415 25.7849C47.4239 22.9703 46.8745 20.1819 45.7984 17.5811C44.7223 14.9803 43.141 12.6188 41.1461 10.6332C39.1622 8.63687 36.802 7.05384 34.2022 5.97578C31.6023 4.89773 28.8145 4.34606 26 4.35272Z" fill="url(#paint0_linear_3_137)"></path><path fill-rule="evenodd" clip-rule="evenodd" d="M19.5499 14.994C19.0672 13.9217 18.5592 13.9 18.1006 13.8814L16.8661 13.8663C16.4366 13.8663 15.7388 14.0275 15.1489 14.6721C14.5589 15.3167 12.8945 16.8745 12.8945 20.0432C12.8945 23.2118 15.2025 26.2736 15.524 26.7038C15.8456 27.134 19.9794 33.8436 26.5258 36.4251C31.9659 38.5705 33.0729 38.1438 34.2542 38.0366C35.4355 37.9294 38.0646 36.4787 38.601 34.9748C39.1373 33.4709 39.1377 32.1824 38.9769 31.913C38.8161 31.6436 38.3866 31.4835 37.742 31.1612C37.0974 30.839 33.9316 29.2811 33.3413 29.066C32.751 28.8509 32.3219 28.744 31.892 29.3886C31.4622 30.0332 30.2294 31.4832 29.8535 31.913C29.4776 32.3429 29.1024 32.3968 28.4578 32.0749C27.8132 31.7529 25.7394 31.0726 23.2787 28.8786C21.3642 27.1715 20.0719 25.0632 19.6956 24.419C19.3194 23.7748 19.6557 23.4258 19.9787 23.105C20.2677 22.8163 20.6226 22.3528 20.9452 21.9769C21.2679 21.601 21.374 21.3323 21.5884 20.9032C21.8028 20.4741 21.696 20.0971 21.5348 19.7752C21.3737 19.4532 20.1223 16.2678 19.5499 14.994Z" fill="white"></path><defs><linearGradient id="paint0_linear_3_137" x1="25.5554" y1="6.92406" x2="25.7726" y2="43.5412" gradientUnits="userSpaceOnUse"><stop stop-color="#57D163"></stop><stop offset="1" stop-color="#23B33A"></stop></linearGradient></defs></svg>