<svg xmlns="http://www.w3.org/2000/svg" width="89" height="53" viewBox="0 0 89 53" fill="none"><path d="M8.25951 0H80.7039C85.2884 0 89 3.71122 89 8.2961V35.9493C89 40.5338 85.2888 44.2454 80.7039 44.2454H54.7247L58.2906 52.9778L42.6082 44.2454H8.29636C3.71183 44.2454 0.000265265 40.5342 0.000265265 35.9493V8.2961C-0.0361203 3.74772 3.67498 0 8.25951 0Z" fill="#7F54B3"></path><path d="M5.06769 7.56149C5.57419 6.87411 6.33396 6.5123 7.34695 6.43996C9.19206 6.29524 10.2413 7.16353 10.4945 9.04483C11.6161 16.6063 12.8461 23.0098 14.1487 28.2559L22.0718 13.1694C22.7954 11.7946 23.6998 11.071 24.7852 10.9987C26.3771 10.8902 27.3539 11.9032 27.7518 14.0377C28.6563 18.8496 29.814 22.9377 31.1888 26.4108C32.1295 17.2212 33.7214 10.6008 35.9646 6.51237C36.5073 5.49938 37.3032 4.99288 38.3524 4.9205C39.1845 4.84814 39.9443 5.10139 40.6316 5.64407C41.319 6.18676 41.6808 6.87414 41.7532 7.70626C41.7893 8.35748 41.6808 8.90014 41.3914 9.44283C39.9804 12.0477 38.8227 16.4255 37.8821 22.5032C36.9777 28.4005 36.6521 32.9951 36.8691 36.2874C36.9415 37.1918 36.7968 37.9878 36.435 38.6752C36.0008 39.4711 35.3496 39.9053 34.5175 39.9776C33.5769 40.05 32.6001 39.6158 31.6594 38.639C28.2948 35.202 25.6175 30.0648 23.664 23.2267C21.3124 27.8575 19.576 31.3309 18.4544 33.6463C16.3199 37.7344 14.511 39.8328 12.9914 39.9413C12.0145 40.0137 11.1824 39.1815 10.4588 37.445C8.61374 32.7054 6.62387 23.5523 4.48926 9.98541C4.34455 9.04476 4.56162 8.21265 5.06811 7.56142L5.06769 7.56149ZM82.8173 13.2415C81.5149 10.9622 79.5974 9.58728 77.0288 9.04459C76.3415 8.89988 75.6902 8.82752 75.0752 8.82752C71.6021 8.82752 68.7802 10.6365 66.5733 14.2544C64.692 17.3296 63.7513 20.7305 63.7513 24.4567C63.7513 27.2425 64.3302 29.6302 65.4879 31.6201C66.7903 33.8994 68.7078 35.2743 71.2764 35.817C71.9638 35.9618 72.615 36.0341 73.23 36.0341C76.7393 36.0341 79.5612 34.2252 81.7319 30.6072C83.6132 27.4958 84.5539 24.0949 84.5539 20.3688C84.5901 17.5468 83.975 15.1953 82.8173 13.2415ZM78.2589 23.263C77.7523 25.6508 76.8479 27.4234 75.5093 28.6176C74.4601 29.5582 73.4833 29.9562 72.5788 29.7753C71.7105 29.5944 70.9869 28.8347 70.4443 27.4237C70.0101 26.3022 69.793 25.1806 69.793 24.1314C69.793 23.227 69.8654 22.3225 70.0463 21.4904C70.3719 20.0071 70.9869 18.5599 71.9637 17.185C73.1576 15.4123 74.4239 14.6887 75.7264 14.942C76.5947 15.1229 77.3183 15.8826 77.8609 17.2936C78.2951 18.4151 78.5122 19.5367 78.5122 20.5858C78.5122 21.5265 78.4397 22.4309 78.2589 23.263ZM60.1693 13.2415C58.8669 10.9622 56.9132 9.58728 54.3808 9.04459C53.6935 8.89988 53.0422 8.82752 52.4272 8.82752C48.9541 8.82752 46.1322 10.6365 43.9253 14.2544C42.044 17.3296 41.1033 20.7305 41.1033 24.4567C41.1033 27.2425 41.6822 29.6302 42.8399 31.6201C44.1423 33.8994 46.0598 35.2743 48.6284 35.817C49.3158 35.9618 49.967 36.0341 50.582 36.0341C54.0913 36.0341 56.9132 34.2252 59.0839 30.6072C60.9652 27.4958 61.9059 24.0949 61.9059 20.3688C61.9059 17.5468 61.327 15.1953 60.1693 13.2415ZM55.5747 23.263C55.0682 25.6508 54.1637 27.4234 52.8251 28.6176C51.7759 29.5582 50.7991 29.9562 49.8946 29.7753C49.0263 29.5944 48.3028 28.8347 47.7601 27.4237C47.3259 26.3022 47.1089 25.1806 47.1089 24.1314C47.1089 23.227 47.1812 22.3225 47.3621 21.4904C47.6877 20.0071 48.3028 18.5599 49.2796 17.185C50.4735 15.4123 51.7397 14.6887 53.0423 14.942C53.9106 15.1229 54.6341 15.8826 55.1768 17.2936C55.6109 18.4151 55.828 19.5367 55.828 20.5858C55.8642 21.5265 55.7556 22.4309 55.5747 23.263Z" fill="white"></path></svg>